<?xml version="1.0" encoding="utf-8"?>
<!-- Svg Vector Icons : http://www.onlinewebfonts.com/icon -->
<!DOCTYPE svg PUBLIC "-//W3C//DTD SVG 1.1//EN" "http://www.w3.org/Graphics/SVG/1.1/DTD/svg11.dtd">
<svg version="1.1" xmlns="http://www.w3.org/2000/svg" xmlns:xlink="http://www.w3.org/1999/xlink" x="0px" y="0px" viewBox="0 0 1000 1000" enable-background="new 0 0 1000 1000" xml:space="preserve">
<metadata> Svg Vector Icons : http://www.onlinewebfonts.com/icon </metadata>
<g><g><path d="M989.5,385.6c-2.4-5.5-6.4-9.4-10.9-13.6c-4.4-4.1-8.4-8.4-13.8-11.6c-5.3-3.1-10.6-4.4-16.5-4.3c-1.7,0-3.3,0-5-0.1c-8.5-0.1-9.4-0.6-10.6-8.8c-0.1-0.8-0.8-1.3-1.6-1.2c-3.2,0.5-6.4,1-9.5,1.5c-1.4,0.2-3.6,0.7-4.2,0c-5.4-6.3-15.4-6-19.9-13.4c-0.4-0.6-1.2-1.5-1.9-1.9c-11.4-6.6-21.7-15.4-35.6-16.5c-0.1,0-0.3-0.1-0.4-0.3c-0.2-0.2-0.5-0.4-0.8-0.4c-0.3,0-1.1,0.1-1.9,0.3c-1,0.2-1.9,0.4-2.8,0.7c-6.9,2.2-14.4,3.4-20.6,6.8c-8.2,4.5-15.4,10.9-23.1,16.4c-6.2,4.5-12,9.5-18.5,13.2c-18.1,10.3-36.9,11.7-57,5.2c-19.2-6.2-39.2-8.5-59.4-7.5c-4.5,0.2-8.9,0.4-13.4,0.6c-3.6,0.1-7.3,0.3-10.9,0.5c-12.7,0.6-25.5,1.2-38.2,1.8c-4.1,0.2-8.4-0.4-12.4,0.4c-11.8,2.4-23.5,5.3-35.3,8c-17.2,3.9-34.4,8.6-51.8,11.5c-17.4,2.9-35.1,4.4-52.7,5.8c-13,1.1-26.2,0.9-39.3,1.6c-3.8,0.2-7.7,0.4-11.5,0.5c-1.3,0-2.5-0.1-3.8-0.1c-0.8,0-1.6,0-2.4,0.1c-0.8,0.1-2,0.2-2.8,0.2c-22.9,0.4-45.7-0.6-68.4-4.9c-2.7-0.5-5.3-1-8-1.5c-9.1-2.1-18.2-4-27.3-5.8c-9.6-2.1-19.1-4.4-28.7-6.7c-26.2-6.3-52.7-5.9-79.1-2.9c-24.4,2.7-48.3,8.1-71.6,15.7c-0.7,0.2-1.6,0.5-2,0.6c-0.2,0-0.5,0.1-0.7,0.1c-0.4,0.1-0.7,0.2-1,0.3c-0.5,0.2-1.5,0.7-2.2,1c-14.7,4.9-29.5,9.7-44.1,14.8c-19.4,6.8-38,15.5-55.6,26.3c-0.8,0.5-1.5,1.3-2.2,2c-0.5,0.6-0.3,1.2,0.4,1.3c1.6,0.3,2.9,0.1,4.1-0.4c9.5-3.9,18.9-8.2,28.5-11.8C55.3,405,67.3,400,79.8,397c21.2-5.2,42.7-9,64.2-13.3c18.2-3.6,36.4-5.4,54.7-4.6c21.2,1.8,42.2,6.3,62.9,11.7c10.5,2.8,20.9,5.7,31.3,8.8c3.9,1.4,7.7,2.8,11.6,4.3c14.6,5.8,29.6,10.7,44.9,14.2c20.8,4.8,42,7.7,63,11.8c26.3,5.2,52.2,11.7,76.2,24.6c10.3,5.6,20.8,12.6,33.7,11.6c0.2,0,0.4,0.1,0.7,0.3c0.3,0.2,0.7,1,0.8,1.8c0.8,7,1.6,14.2,2.6,21.4c0.5,3.7-0.3,6.1-3.7,8.2c-10.9,6.8-18,16.7-22,28.6c-0.4,1-0.7,2-1,3.1c-3.3,10.1-9.5,18-18,23.5c-12.3,7.9-22.8,17.7-32.7,28.2c-3,3.1-5.2,7.1-7,11.1c-3.7,8-4.6,17.8-15.4,21.9c-0.7,0.3-0.7,0.7,0,1c2.1,0.8,3.7,1.5,5.2,2c0.7,0.3,1.2,1.1,1,1.9c-1.3,5.9-3.6,11.4-8.4,15.1c-6.7,5.2-7.8,11.4-5,18.9c0.6,1.5,1.1,3.2,1.3,4.8c0.8,6.1,3.7,10.9,8.5,14.6c5.4,4.1,10.8,8.1,16,12c0.6,0.5,1.6,0.4,2.3,0.1c5.1-2.6,11.7,3,15-2.7c0.4-0.7,1.2-1,1.9-0.8c2,0.7,3.9,1.3,6.2,2.1c0.7,0.2,1.1-0.1,0.8-0.8c-0.3-0.9-0.5-1.3-0.7-1.7c-3.6-6.2-9.2-8-16-7.7c-6.1,0.2-10.7-2.2-13.3-8.3c-2.3-5.4-1.7-9.7,2.4-14c3.2-3.3,4.8-7.3,3.4-12.3c-0.7-2.3-0.8-5.3,0.1-7.4c5.7-13,11.8-25.9,17.8-38.7c0.7-1.5,1.8-2.8,2.9-4c3.7-4.2,7.9-8,11.3-12.4c7.6-9.7,17.3-15.9,29.2-18.6c9.5-2.1,19.2-3.2,28.7-5.5c4.3-1,8.4-3.3,11.9-4.9c0.7-0.3,1.7-0.2,2.3,0.3c4.4,3.6,8.4,6.9,12.5,10c6.2,4.6,12,9.4,13.2,17.7c0,0.1,0.2,0.2,0.3,0.4c0.2,0.2,0.8-0.2,1.3-0.7c0.1-0.2,0.3-0.3,0.4-0.5c0.5-0.6,1.1-0.4,1.4,0.3c2.4,7.2,4.4,14.2,7.1,20.9c2.3,5.9,4.5,12.3,8.5,17c2.5,2.9,3.4,5,2.9,8.3c-0.1,0.6-0.1,1.3-0.1,2.1c0,0.8,0.5,1.1,1.2,0.7c5.8-3.5,7-8.9,6.3-15.4c-0.1-0.8,0.2-0.9,0.6-0.3c4.3,6.1,7.1,12.2,11.9,15.6c5.1,3.7,6.6,8.1,7.9,13.3c0,0.1,0.2,0.2,0.4,0.3c0.2,0.1,0.8-0.3,1.2-0.9c3.5-5.4,3.1-12-1.7-19.4c-6.8-10.6-12.7-21.4-14.7-33.5l-0.7-5.6c-0.2-2.8-0.2-5.7,0.1-8.6c0.6-6.2-1.4-7.4-7.5-8.2c-1.4-0.2-3-0.5-4.2-1.3c-9-5.8-18-11.8-27-17.8c-1.7-1.2-3.2-2.6-4.7-3.9c-0.6-0.5-0.6-1.3,0-1.8c3.2-2.5,7-4.4,7.9-7.3c3.3-10.2,10.3-11.9,19.4-10.9c1.8,0.2,3.6-0.4,5.4-0.5c7.6-0.5,15.2-1.1,22.8-1.2c7.3-0.1,14.6,0.5,21.9,0.4c8.9-0.1,15.9-3,19.3-12.4c1.4-4,4-7.2,7.3-9.2c0.7-0.4,1.8-0.8,2.5-1.1c0.8-0.3,1.6-0.5,2.3-0.8c0.7-0.2,1.7-0.5,2.2-0.6c0.3,0,0.6-0.1,0.9-0.1c3.3-0.3,6.6-0.9,9.9-1.2c21.9-1.6,42.8-6.9,62-17.9c1-0.6,1.9-0.9,2.7-0.9c0.8,0,1.7,0.8,2.2,1.4c1,1.3,2,2.6,3,3.9c0.1,0.2,0.3,0.3,0.4,0.4c0.2,0.2,0.9,0.9,1.3,1.5c5.2,7.1,10.4,14.1,15.5,21.2c2.3,3.2,4.2,6.6,6.3,9.9c0.4,0.6,1.1,1,1.6,0.8c0.5-0.2,0.6-1,0.4-1.7c-1.9-5.2-3.9-10.3-5.6-15c-0.3-0.7,0.1-1.3,0.9-1.4c3.3-0.2,6.7-0.4,10.1-0.7c0.8,0,1.4-0.4,1.3-0.8c0-0.4-0.6-0.9-1.4-1.1c-5.5-1.8-9.7-5-13.5-8.8c-2.2-5.9-5.9-11.1-10.9-14.9c0.1-0.1,0.1-0.3,0.2-0.4c0.4-0.2,0.7-0.4,0.9-0.5c1.3-0.7,2.5-1.6,3.9-2.2c14-6.3,22.4-16.1,20.8-32.6c-0.6-5.9,4.1-10.8,9.7-13.1c9.8-4,19.8-7.6,29.1-12.6c8.9-4.8,16.7-4.3,24.7,1c6.7,4.5,13.8,8.5,20.2,13.4c12.6,9.7,24.8,19.9,37.2,29.9c3.6,2.9,7.1,6.1,11,8.6c5.2,3.3,11.2,4.1,16.5,2.7c0.7-0.2,2-0.4,2.7-0.7c0.7-0.3,1.3-0.8,1.4-0.8c0.1-0.1,0.7-0.4,1.4-0.8c0.4-0.3,0.8-0.6,1.2-0.9c0.6-0.5,0.8-1.5,0.5-2.2c-1.2-3-2.4-6-3.7-9.1c-0.3-0.7-1-0.9-1.7-0.5c-0.6,0.4-1.2,0.8-1.9,1.3c-0.6,0.4-1.2,0.7-1.3,0.6c-0.1-0.1,0-0.7,0.3-1.4c0.2-0.6,0.5-1.1,0.7-1.6c0.3-0.7-0.1-1.1-0.8-0.9c-0.3,0.1-0.6,0.2-0.9,0.3c-0.7,0.2-1.3-0.2-1.2-0.9c0.1-0.7-0.5-1.1-1.1-0.7c-0.4,0.2-0.8,0.4-1.1,0.6c-0.7,0.3-1.3,0-1.4-0.8c-0.2-1.7-0.4-3.3-0.6-4.8c-0.1-0.8-0.7-1.1-1.4-0.8c-0.5,0.2-1.1,0.5-1.7,0.7c-0.7,0.3-1.1,0-0.9-0.8c0.1-0.5,0.2-0.9,0.3-1.3c0.2-0.7-0.2-1.1-1-0.8c-0.8,0.3-1.5,0.6-2.4,1c-0.7,0.3-1,0-0.6-0.7c0.7-1.4,1.4-2.6,2.4-4.1c0.4-0.7,0.1-0.9-0.6-0.6c-1.3,0.6-2.2,1-3.1,1.4c-0.7,0.3-1.1,0-0.9-0.8c0.2-0.6,0.3-1.2,0.5-1.9c0.2-0.7-0.2-1-0.8-0.6c-0.6,0.4-1.2,0.8-1.8,1.2c-0.6,0.4-0.9,0.2-0.7-0.5c0.2-0.6,0.4-1.2,0.6-1.7c0.3-0.7-0.1-1.1-0.9-1c-0.1,0-0.1,0-0.2,0c-0.7,0.2-1.1-0.2-0.8-1c0.2-0.4,0.3-0.8,0.5-1.2c0.3-0.7-0.1-1.1-0.8-0.9l0,0c-0.7,0.2-1.4-0.2-1.5-1c-0.1-0.6-0.1-1.2-0.5-1.6c-1.8-2.2-4.4-3.9-5.7-6.3c-4.6-8.6-2-16.2,3.8-23.3c1.4-1.7,2.7-3.6,4.5-4.7c0.7-0.4,1.5-0.5,1.8-0.4c0.2,0,0.4,0.1,0.5,0.2c0.7,0.3,1.5,0.4,2.3,0.5c0.8,0,1.8,0.4,2.4,0.8c0.6,0.5,1.3,0.8,2,1.2c0.7,0.3,1.8,0.8,2.4,1.4c1.4,1.3,2.5,2.8,3.2,4.7c0.3,0.7,0.9,0.9,1.5,0.4c0.1-0.1,0.2-0.1,0.2-0.2c0.6-0.5,1.6-0.7,2.3-0.4c0.8,0.3,1.6,0.6,2.3,0.8c0.7,0.2,1.2,1.1,1.1,1.8c-0.1,0.4-0.1,0.9-0.2,1.3c-0.1,0.8,0.4,1.2,1.1,1c2.1-0.6,4.1-1.2,6.1-1.8c0.7-0.2,1.3,0.2,1.3,1v4.5c0,0.8,0.2,1.5,0.4,1.6c0.2,0.1,0.7-0.3,1.1-1c0.6-0.9,1.1-1.8,1.7-2.8c0.4-0.6,0.9-1.1,1-1c0.2,0.1,0.1,0.8,0,1.5c-0.2,0.9-0.5,1.8-0.7,2.7c-0.2,0.7-0.1,1.5,0.2,1.6c0.3,0.2,0.9-0.3,1.3-0.9c0.9-1.6,1.9-3.2,3.2-5.3c0.4-0.7,0.6-0.6,0.5,0.2c-0.1,1.1-0.3,2-0.4,2.8c-0.1,0.8,0.1,1.6,0.5,1.9c0.4,0.3,1,0,1.3-0.7c0.4-0.8,0.9-1.6,1.3-2.4c0.4-0.7,0.8-1.1,1-0.9c0.2,0.2,0.2,0.9,0,1.7c-0.2,0.8-0.4,1.5-0.6,2.3c-0.2,0.7-0.1,1.5,0.1,1.7c0.3,0.2,0.9-0.1,1.4-0.7c0.9-1,1.8-2,2.8-3c0.5-0.6,0.9-0.4,0.9,0.4v2.2c0,0.8,0.4,0.9,0.9,0.3c0.9-1.1,1.7-2,2.5-2.9c0.5-0.6,1-0.4,1.2,0.3c0.1,0.8,0.3,1.5,0.4,2.3c0.1,0.8,0.7,1,1.4,0.6c0.2-0.1,0.4-0.2,0.5-0.4c0.6-0.4,1.5-0.2,1.9,0.4c0,0,0,0,0,0c0.4,0.6,1,0.7,1.3,0.1c0.3-0.6,0.9-1,1.5-1c0.5,0,1,0,1,0.1c0,0.1,0.7,0.1,1.4-0.1c5.9-1.3,8.7-5.1,9-11.1c0-0.1,0.1-0.3,0.3-0.4c0.2-0.2,0.4-0.9,0.4-1.7v-3.2C990,387.5,989.8,386.3,989.5,385.6z"/></g><g></g><g></g><g></g><g></g><g></g><g></g><g></g><g></g><g></g><g></g><g></g><g></g><g></g><g></g><g></g></g>
</svg>