<?xml version="1.0" encoding="UTF-8" standalone="no"?>
<!-- Created with Inkscape (http://www.inkscape.org/) -->

<svg
   xmlns:dc="http://purl.org/dc/elements/1.1/"
   xmlns:cc="http://creativecommons.org/ns#"
   xmlns:rdf="http://www.w3.org/1999/02/22-rdf-syntax-ns#"
   xmlns:svg="http://www.w3.org/2000/svg"
   xmlns="http://www.w3.org/2000/svg"
   xmlns:sodipodi="http://sodipodi.sourceforge.net/DTD/sodipodi-0.dtd"
   xmlns:inkscape="http://www.inkscape.org/namespaces/inkscape"
   id="svg6788"
   sodipodi:version="0.32"
   inkscape:version="0.91 r13725"
   width="467.60928"
   height="606.02917"
   version="1.0"
   sodipodi:docname="BoS_logoCAN].svg"
   inkscape:export-filename="C:\Users\Cole\Documents\Paradox Interactive\Hearts of Iron IV\mod\frozennorth\gfx\flags\BoS_Canada.png"
   inkscape:export-xdpi="71.283699"
   inkscape:export-ydpi="71.283699">
  <metadata
     id="metadata6793">
    <rdf:RDF>
      <cc:Work
         rdf:about="">
        <dc:format>image/svg+xml</dc:format>
        <dc:type
           rdf:resource="http://purl.org/dc/dcmitype/StillImage" />
        <dc:title></dc:title>
      </cc:Work>
    </rdf:RDF>
  </metadata>
  <defs
     id="defs6791" />
  <sodipodi:namedview
     inkscape:window-height="1017"
     inkscape:window-width="1920"
     inkscape:pageshadow="2"
     inkscape:pageopacity="0.0"
     guidetolerance="10.0"
     gridtolerance="10.0"
     objecttolerance="10.0"
     borderopacity="1.0"
     bordercolor="#666666"
     pagecolor="#ffffff"
     id="base"
     showgrid="true"
     inkscape:zoom="1.208706"
     inkscape:cx="331.54681"
     inkscape:cy="303.42454"
     inkscape:window-x="-8"
     inkscape:window-y="-8"
     inkscape:current-layer="g6879"
     showguides="true"
     inkscape:guide-bbox="true"
     fit-margin-top="0"
     fit-margin-left="0"
     fit-margin-right="0"
     fit-margin-bottom="0"
     inkscape:window-maximized="1">
    <sodipodi:guide
       position="36.818803,3.05"
       orientation="0,393.86008"
       id="guide4141" />
    <sodipodi:guide
       position="430.67888,3.05"
       orientation="-472.71875,0"
       id="guide4143" />
    <sodipodi:guide
       position="430.67888,475.76875"
       orientation="0,-393.86008"
       id="guide4145" />
    <sodipodi:guide
       position="36.818803,475.76875"
       orientation="472.71875,0"
       id="guide4147" />
    <sodipodi:guide
       position="233.76841,475.76875"
       orientation="1,0"
       id="guide4149" />
    <sodipodi:guide
       position="96.618106,306.91705"
       orientation="0,1"
       id="guide4151" />
  </sodipodi:namedview>
  <g
     id="g6879"
     transform="translate(33.239283,127.01042)">
    <g
       transform="matrix(2.2948622,0,0,2.2948622,-487.89332,-194.89973)"
       id="g4206"
       style="fill:#ff0000;fill-opacity:1">
      <path
         inkscape:connector-curvature="0"
         id="path20"
         d="m 300.54424,29.583177 -21.76375,51.96068 -9.52166,-10.473504 -0.68011,63.250937 -31.96553,-32.64565 -0.68012,12.92224 -35.78578,-7.43575 11.61883,36.63526 -13.64789,0.31729 46.29354,46.61082 -14.59976,14.32802 14.96259,17.68306 -2.72047,15.59716 43.52753,-10.83634 14.59976,-6.89227 19.13744,7.95799 40.39562,10.49628 -3.03776,-16.59456 15.27987,-17.41132 -14.96258,-13.69345 44.88777,-46.61082 -11.56201,-0.68012 10.7908,-37.63266 -35.18547,7.52684 -0.76968,-12.96778 -32.64565,32.64564 -0.45391,-62.253531 -9.74784,9.884478 -21.76378,-51.68894 z"
         style="fill:#b90000;fill-opacity:1;fill-rule:evenodd;stroke:none" />
    </g>
    <circle
       style="opacity:1;fill:#ffffff;fill-opacity:1;fill-rule:nonzero;stroke:none;stroke-width:1;stroke-linecap:round;stroke-linejoin:round;stroke-miterlimit:4;stroke-dasharray:8, 2, 1, 2;stroke-dashoffset:0;stroke-opacity:1"
       id="path4153"
       cx="200.50955"
       cy="169.16631"
       r="150.22878" />
    <path
       id="path6819"
       d="m 169.34375,207.90625 c -1.37016,0.11809 -2.03242,1.16947 -2.75,3.34375 -0.63278,1.91734 -1.62472,3.74592 -2.1875,4.09375 -0.86759,0.53619 -6.12071,0.79615 -10.5625,0.5 -0.67632,-0.0451 -2.16262,-1.93355 -3.3125,-4.1875 -2.01073,-3.94135 -2.24235,-4.08756 -5.78125,-3.4375 -5.16651,0.94902 -5.68453,1.761 -4.5,6.9375 1.15068,5.02846 1.20424,4.92767 -3.90625,9.3125 -3.72167,3.19321 -3.77136,3.19969 -7.96875,1.71875 -5.13448,-1.81155 -6.20977,-1.46834 -8.375,2.71875 l -1.6875,3.28125 3.6875,3.1875 c 3.62128,3.13035 3.65237,3.26973 2.96875,8.53125 -0.76454,5.88442 -1.15353,6.36008 -6.625,7.875 -4.08346,1.13061 -4.54741,2.44591 -2.6875,7.78125 0.99361,2.85027 1.49893,3.09963 6.15625,3.375 4.88803,0.289 5.14553,0.49315 7.65625,5 l 2.59375,4.65625 -2.25,3.03125 c -2.97815,4.02817 -2.83355,5.43699 0.84375,8.53125 l 3.09375,2.625 3.03125,-2.28125 c 1.65968,-1.24151 3.5763,-2.64906 4.28125,-3.15625 0.83315,-0.59943 2.99374,-0.23485 6.15625,1.0625 4.57602,1.8772 4.9116,2.25796 5.71875,6.65625 l 0.84375,4.6875 4.90625,0 4.90625,0 0,-3.875 c 0,-4.52472 0.85557,-5.4116 7.375,-7.625 l 4.84375,-1.65625 2.78125,2.65625 c 1.78523,1.71036 3.60997,2.55816 5.125,2.34375 l 0.375,-0.34375 0,-56.53125 -2.875,-4.15625 c -4.84743,-4.14415 -4.86304,-4.14311 -4.21875,-9 0.641,-4.83215 0.63883,-4.88862 -2.84375,-6.34375 -2.25152,-0.94075 -3.74682,-1.40435 -4.8125,-1.3125 z m -10.84375,24 c 10.212,0 18.5,8.288 18.5,18.5 0,10.212 -8.288,18.5 -18.5,18.5 -10.212,10e-6 -18.5,-8.288 -18.5,-18.5 0,-10.212 8.288,-18.5 18.5,-18.5 z"
       style="fill:#184898;fill-opacity:1"
       inkscape:connector-curvature="0" />
    <path
       id="path6829"
       d="m 200.52517,3.25 -9.9375,18 0,349 c -4.09566,0.76595 -7.46716,-0.084 -11.125,-2.03125 -5.28242,-5.77903 -9.41106,1.10194 -10.5,6.5625 0.24785,4.87672 5.49361,10.77004 10.5,7.71875 2.21465,-1.99941 7.3797,-3.43804 11.21875,-3 l 4.53125,2.75 0,48.6875 -0.21875,16.09375 c -5.54807,2.20167 -9.5,7.60851 -9.5,13.9375 0,8.28 6.72,15 15,15 8.28,0 15,-6.72 15,-15 0,-6.32899 -3.92068,-11.73583 -9.46875,-13.9375 l -0.21875,-16.09375 0,-48.6875 4.53125,-2.75 c 3.83906,-0.43804 9.03534,1.00059 11.25,3 5.0064,3.05129 10.2209,-2.84203 10.46875,-7.71875 -1.08894,-5.46056 -5.18634,-12.34153 -10.46875,-6.5625 -3.65784,1.94728 -7.02932,2.7972 -11.125,2.03125 l 0,-349 -9.9375,-18 z"
       style="fill:#b90000;fill-opacity:1;stroke:#ffffff;stroke-width:6.0999999;stroke-miterlimit:4;stroke-dasharray:none;stroke-opacity:1"
       inkscape:connector-curvature="0" />
    <path
       id="path6813"
       d="m 98.03125,128.9375 c -0.489682,-0.007 -1.060703,0.0746 -1.78125,0.21875 -4.92175,0.98435 -5.918864,2.5447 -4.8125,7.46875 0.83607,3.72107 0.712357,4.46955 -1.1875,6.28125 -4.96704,4.73656 -6.334989,5.20612 -11.3125,3.8125 -4.24703,-1.18909 -4.741966,-1.13773 -6.03125,0.625 -2.85814,3.90767 -2.726739,6.20104 0.5625,8.96875 2.4385,2.05187 3.105329,3.40405 3.09375,6.28125 -0.02096,5.2052 -1.930281,8.30869 -5.96875,9.65625 -3.69247,1.23209 -4.728912,3.53969 -3.59375,8.0625 0.50652,2.01814 1.307508,2.36519 5.65625,2.625 4.90799,0.29322 5.117651,0.44183 7.6875,5.125 L 83,192.90625 80.59375,197.46875 78.15625,202 81.125,204.375 c 3.79156,3.03369 5.221506,2.97819 8.65625,-0.3125 l 2.78125,-2.6875 5.5,1.75 c 4.13502,1.30345 5.60348,2.28172 5.9375,3.9375 0.24421,1.21057 0.71126,3.425 1.03125,4.9375 0.52937,2.50219 1.00269,2.75 5.0625,2.75 3.82528,0 4.51505,-0.32102 4.90625,-2.25 0.25097,-1.2375 0.69965,-3.40946 1,-4.84375 0.41462,-1.9799 1.65655,-3.03846 5.15625,-4.375 4.85898,-1.85566 5.21927,-1.78883 11.65625,2.25 2.69273,1.68952 2.77235,1.66516 5.84375,-1.40625 l 3.125,-3.125 -2.34375,-4.125 -2.34375,-4.15625 L 139.6875,188 c 2.5267,-4.5919 2.76141,-4.77047 7.71875,-5.0625 4.95265,-0.29176 5.12423,-0.38317 5.75,-3.71875 0.86943,-4.63447 0.11964,-6.15623 -3.4375,-6.9375 -3.70892,-0.81462 -4.5011,-1.79736 -6.09375,-7.6875 -1.40668,-5.20231 -0.98665,-6.52561 2.5625,-7.875 3.36595,-1.27972 3.96571,-3.53412 2,-7.65625 -1.49886,-3.14314 -2.00715,-3.44982 -4.65625,-2.90625 -8.37184,1.71782 -8.34952,1.70682 -12.21875,-1.65625 -3.69858,-3.21472 -3.74231,-3.35759 -2.875,-8 1.01392,-5.4273 0.23601,-6.55113 -5.03125,-7.375 -3.0592,-0.4785 -3.48022,-0.1878 -5.3125,3.3125 -1.92312,3.67382 -2.23135,3.83787 -7.71875,4.125 l -5.71875,0.28125 -2.625,-4.15625 c -1.79789,-2.84804 -2.530954,-3.72931 -4,-3.75 z m 12,24.40625 c 10.212,1e-5 18.5,8.288 18.5,18.5 0,10.212 -8.288,18.5 -18.5,18.5 -10.212004,0 -18.5,-8.288 -18.5,-18.5 3e-6,-10.21199 8.287999,-18.5 18.5,-18.5 z"
       style="fill:#184898;fill-opacity:1"
       inkscape:connector-curvature="0" />
    <path
       d="m 214.82745,231.25185 0,-53.08124 c -8.4e-4,-0.58174 3.11135,0.4308 6,1.87145 11.34345,5.65729 21.91108,6.05855 32.13827,1.22031 7.47015,-3.53395 15.50278,-11.49613 19.17871,-19.01052 2.58495,-5.28421 2.93511,-7.07369 2.93511,-15 0,-8.04696 -0.33813,-9.7138 -3.19313,-15.74075 -9.6593,-20.39092 -31.63098,-28.09695 -51.69528,-18.13085 -2.68863,1.33546 -5.34638,2.29311 -5.36368,1.8185 l 0,-32.946906 4.08964,-1.530757 c 2.66066,-0.841917 5.23187,-2.235354 5.71381,-3.096527 0.48193,-0.861174 1.18531,-5.271739 1.56306,-9.801258 0.808,-9.688585 1.2786,-10.071458 12.37925,-10.071458 8.86865,0 9.68019,0.836882 10.55682,10.886428 0.37809,4.334275 0.98634,8.364142 1.35167,8.955259 0.36533,0.591117 5.31226,2.692631 10.99319,4.670031 11.69073,4.069278 9.7594,4.499314 19.08654,-4.249873 5.15522,-4.83579 6.60365,-5.121294 10.63325,-2.095959 4.33698,3.256109 10.38486,9.127736 10.38486,10.082222 0,0.463217 -2.25,4.176568 -5,8.251892 -2.75,4.075323 -5,7.642886 -5,7.927906 0,0.28503 2.10431,4.01785 4.67624,8.29516 2.57194,4.27732 5.22361,8.69985 5.89261,9.82785 1.12063,1.8895 1.96347,2.01824 10.7085,1.63577 l 9.49214,-0.41516 1.21529,3.68236 c 0.66841,2.0253 1.28277,6.63487 1.36525,10.2435 l 0.14997,6.56115 -8.12996,2.23752 c -4.47147,1.23065 -8.63397,2.54904 -9.25,2.92976 -0.61602,0.38072 -1.12491,2.57817 -1.13086,4.88321 -0.006,2.30504 -0.68096,6.4 -1.5,9.09991 -2.47521,8.1593 -3.19561,7.07251 13.44004,20.27553 1.40317,1.11363 -8.52993,17.31554 -10.61585,17.31554 -0.81298,0 -4.554,-1.35 -8.31337,-3 -3.75937,-1.65 -7.61313,-3 -8.56391,-3 -0.95077,0 -3.80035,1.91292 -6.33239,4.25093 -2.53203,2.338 -6.32127,5.60699 -8.42052,7.2644 l -3.81682,3.01349 2.60968,7.98559 c 3.26712,9.99734 2.85409,12.04484 -2.73575,13.56199 -2.33216,0.63297 -6.1196,1.7361 -8.41654,2.4514 -5.40539,1.68332 -6.3737,0.94355 -10.74924,-8.21207 l -3.43341,-7.18427 -10.82055,-0.31573 c -5.9513,-0.17365 -11.41977,0.10735 -12.15215,0.62444 -0.73238,0.51709 -2.59526,3.44346 -4.13973,6.50303 -1.54447,3.05958 -3.72432,6.68651 -4.84411,8.05984 -1.97129,2.41763 -2.13854,2.43342 -2.93665,0.49696 z m -52.06242,-37.25 c -4.62982,-7.27477 -6.76715,-12.26296 -5.59555,-13.0591 8.41147,-5.71585 14.41006,-10.67513 14.41006,-11.91338 0,-0.85081 -0.48481,-4.52381 -1.07735,-8.16222 -0.59254,-3.63842 -1.29182,-8.09851 -1.55394,-9.91132 -0.53487,-3.69898 -1.13036,-4.05124 -12.24851,-7.24565 l -7.37979,-2.12033 0.63655,-6.169 c 0.35011,-3.39295 1.11432,-7.89145 1.69825,-9.99667 l 1.06169,-3.82768 9.86693,0.30896 c 5.42681,0.16993 10.0657,0.0924 10.30863,-0.17232 0.24294,-0.26471 1.44288,-2.50629 2.66655,-4.98129 2.60179,-5.2624 8.25809,-13.93696 9.11197,-13.97421 l 0,88.81911 -1.82768,1.23322 c -2.05519,0.67827 -5.99269,2.28378 -8.75,3.56778 -2.75732,1.28401 -5.75389,2.33896 -6.65905,2.34433 -0.90517,0.005 -3.00611,-2.12773 -4.66876,-4.74023 z m 17.20191,-98.029153 c -7.08336,-9.853354 -7.03546,-9.423439 -1.63002,-14.629483 2.60844,-2.512224 5.30512,-4.57301 5.99262,-4.579525 l 0,12.488155 0,12.470856 c -0.4125,-0.016 -2.10067,-2.603533 -4.3626,-5.750003 z"
       style="fill:#184898;fill-opacity:1"
       id="path6815"
       inkscape:connector-curvature="0" />
    <path
       d="m 213.94117,313.25185 c -1.19988,-3.12683 0.47093,-4.03505 9.74722,-5.29841 34.67894,-4.723 71.74022,-29.08651 93.87131,-61.70953 9.74798,-14.36931 17.0855,-32.15231 20.69376,-50.15279 2.68131,-13.3762 2.42766,-41.40967 -0.49791,-55.02768 -8.45904,-39.37542 -28.65255,-68.784149 -62.17601,-90.549728 -16.30738,-10.587798 -32.96435,-17.217841 -51,-20.299738 -10.27281,-1.755398 -11.38575,-2.281189 -10.80771,-5.10591 1.05358,-5.148455 29.54603,1.602511 50.30771,11.919847 41.25263,20.500131 70.3167,57.778346 80.13001,102.776519 1.45627,6.67762 1.83456,12.63757 1.80562,28.44742 -0.0335,18.30761 -0.27328,21.01206 -2.83344,31.96018 -3.33662,14.26858 -6.46441,23.25487 -11.84798,34.03982 -20.85329,41.77562 -57.64027,69.45855 -104.25551,78.45437 -12.66603,2.44429 -12.41253,2.43376 -13.13707,0.54563 z m -26.86324,0 c 1.19988,-3.12683 -0.47093,-4.03505 -9.74722,-5.29841 -34.67894,-4.723 -71.74022,-29.08651 -93.87131,-61.70953 -9.74798,-14.36931 -17.0855,-32.15231 -20.69376,-50.15279 -2.68131,-13.3762 -2.42766,-41.40967 0.49791,-55.02768 8.45904,-39.37542 28.65255,-68.784149 62.17601,-90.549728 16.30738,-10.587798 32.96435,-17.217841 51,-20.299738 10.27281,-1.755398 11.38575,-2.281189 10.80771,-5.10591 -1.05358,-5.148455 -29.54603,1.602511 -50.30771,11.919847 -41.25263,20.500131 -70.3167,57.778346 -80.13001,102.776519 -1.45627,6.67762 -1.83456,12.63757 -1.80562,28.44742 0.03352,18.30761 0.27328,21.01206 2.83344,31.96018 3.33662,14.26858 6.46441,23.25487 11.84798,34.03982 20.85329,41.77562 57.64027,69.45855 104.25551,78.45437 12.66603,2.44429 12.41253,2.43376 13.13707,0.54563 z"
       style="fill:#184898;fill-opacity:1"
       id="path6823"
       inkscape:connector-curvature="0" />
    <path
       style="fill:#b90000;fill-opacity:1;stroke:none;stroke-width:6.0999999;stroke-miterlimit:4;stroke-dasharray:none;stroke-opacity:1"
       d="m 200.52517,3.25 -9.9375,18 0,349 c -4.09566,0.76595 -7.46716,-0.084 -11.125,-2.03125 -5.28242,-5.77903 -9.41106,1.10194 -10.5,6.5625 0.24785,4.87672 5.49361,10.77004 10.5,7.71875 2.21465,-1.99941 7.3797,-3.43804 11.21875,-3 l 4.53125,2.75 0,48.6875 -0.21875,16.09375 c -5.54807,2.20167 -9.5,7.60851 -9.5,13.9375 0,8.28 6.72,15 15,15 8.28,0 15,-6.72 15,-15 0,-6.32899 -3.92068,-11.73583 -9.46875,-13.9375 l -0.21875,-16.09375 0,-48.6875 4.53125,-2.75 c 3.83906,-0.43804 9.03534,1.00059 11.25,3 5.0064,3.05129 10.2209,-2.84203 10.46875,-7.71875 -1.08894,-5.46056 -5.18634,-12.34153 -10.46875,-6.5625 -3.65784,1.94728 -7.02932,2.7972 -11.125,2.03125 l 0,-349 -9.9375,-18 z"
       id="path4155"
       inkscape:connector-curvature="0" />
  </g>
</svg>
