<?xml version="1.0" encoding="UTF-8" standalone="no"?>
<svg xmlns="http://www.w3.org/2000/svg"
   xmlns:dc="http://purl.org/dc/elements/1.1/"
   xmlns:cc="http://creativecommons.org/ns#"
   xmlns:rdf="http://www.w3.org/1999/02/22-rdf-syntax-ns#"
   xmlns:xlink="http://www.w3.org/1999/xlink"
   version="1.0" width="800" height="400" viewBox="0 0 600 300">
  <metadata>
    <rdf:RDF>
      <cc:Work rdf:about="">
        <dc:format>image/svg+xml</dc:format>
        <dc:type rdf:resource="http://purl.org/dc/dcmitype/StillImage"/>
      </cc:Work>
    </rdf:RDF>
  </metadata>
  <defs><clipPath id="t"><path d="M30,15H60V30zM30,15V30H0zM30,15H0V0zM30,15V0H60z"/></clipPath>
  <clipPath id="Field"><rect width="60" height="40"/></clipPath>
  </defs>
  <rect
     width="600"
     height="300"
     style="fill:#dd0000;fill-opacity:1;stroke:none"/>
  <rect
     width="300"
     height="300"
     x="150"
     style="fill:#ffffff;stroke:none"/>
  <path
     style="fill:#dd0000;fill-opacity:1;fill-rule:evenodd;stroke:none"
     d="m 295.68957,270.41682 8.62086,0 -1.74377,-58.81208 -4.26141,0.38768 -2.61568,58.4244 z"/>
  <path
     style="fill:#dd0000;fill-opacity:1;fill-rule:evenodd;stroke:none"
     d="m 300.54424,29.583177 -21.76375,51.96068 -9.52166,-10.473504 -0.68011,63.250937 -31.96553,-32.64565 -0.68012,12.92224 -35.78578,-7.43575 11.61883,36.63526 -13.64789,0.31729 46.29354,46.61082 -14.59976,14.32802 14.96259,17.68306 -2.72047,15.59716 43.52753,-10.83634 14.59976,-6.89227 19.13744,7.95799 40.39562,10.49628 -3.03776,-16.59456 15.27987,-17.41132 -14.96258,-13.69345 44.88777,-46.61082 -11.56201,-0.68012 10.7908,-37.63266 -35.18547,7.52684 -0.76968,-12.96778 -32.64565,32.64564 -0.45391,-62.253531 -9.74784,9.884478 -21.76378,-51.68894 z"/>
  <g id="UnitedKingdom" style="stroke:none"
     transform="translate(10,10)scale(2.1666666667,2.1666666667)">
    <rect width="60" height="40" style="fill:#00247d"/>
    <g style="stroke:#ffffff;stroke-width:6.93225527;fill:none">
      <path d="M0,0L60,40M60,0L0,40" clip-path="url(#Field)"/>
      <path d="M0,0L60,30M60,0L0,30" style="stroke:#dd0000;stroke-width:4" clip-path="url(#t)" transform="scale(1,1.3333333)"/>
      <path d="M30,0V40M0,20H60" style="stroke-width:11.55375878"/>
      <path d="M30,0V40M0,20H60" style="stroke:#dd0000"/></g>
  </g>
  <g
     id="France"
     transform="matrix(0.288889,0,0,0.288889,-81.66688,-11.66636)"
     style="stroke:none">
    <rect
       style="fill:#1d3380;fill-opacity:1;fill-rule:evenodd;stroke:none"
       y="75"
       x="1875"
       height="300"
       width="450"/>
    <path
       style="font-size:12px;fill:#ffd700;fill-rule:evenodd;stroke:#1d3380;stroke-width:1.38461483;stroke-miterlimit:4;stroke-opacity:1;stroke-dasharray:none"
       d="m 2004.0674,197.8552 c 15.4537,-6.16378 23.0614,-15.49349 23.8783,-28.66469 0.5239,-7.9181 -7.3189,-17.20531 -15.7149,-17.41988 -26.2291,-0.71487 -34.9982,42.37887 -34.84,52.89727 1.1074,-0.003 6.5635,-0.11293 7.9171,-0.0601 1.1955,-6.64279 0.1688,-14.78055 8.5501,-21.64292 8.3812,-6.86238 12.0868,-1.63326 13.1345,2.58975 1.0478,4.22297 -3.8685,12.72993 -2.9251,12.30058 l 0,0 0,0 0,-1e-5 0,0 0,-2e-5 z"/>
    <path
       style="font-size:12px;fill:#ffd700;fill-rule:evenodd;stroke:#1d3380;stroke-width:1.38461483;stroke-miterlimit:4;stroke-opacity:1;stroke-dasharray:none"
       d="m 1934.0126,197.85516 c -15.4537,-6.16378 -23.0614,-15.49349 -23.8783,-28.66469 -0.5238,-7.9181 7.3189,-17.20531 15.7149,-17.41988 26.229,-0.71487 34.9982,42.37887 34.84,52.89731 -1.1074,-0.003 -6.5636,-0.11307 -7.9171,-0.0602 -1.1954,-6.64269 -0.1688,-14.78045 -8.5501,-21.64282 -8.3812,-6.86238 -12.0867,-1.63326 -13.1345,2.58975 -1.0478,4.22297 3.8685,12.72993 2.9251,12.30058 l 0,0 0,0 0,-2e-5 0,0 0,-1e-5 z"/>
    <path
       style="font-size:12px;fill:#ffd700;fill-rule:evenodd;stroke:#1d3380;stroke-width:1.38461483;stroke-miterlimit:4;stroke-opacity:1;stroke-dasharray:none"
       d="m 1969.2581,101.50586 c 17.8225,18.67537 22.6084,37.66944 10.7255,68.09595 -4.0763,10.1627 -5.8014,22.35712 -5.634,35.03229 -1.7251,0.0402 -9.0693,-0.0442 -10.8091,-0.16869 0.1529,-12.52123 -1.9072,-25.69871 -5.9687,-36.03015 -13.761,-31.07202 -3.8437,-52.14877 11.2132,-66.9294 l 0.2365,0 0.2366,0 0,0 z"/>
    <path
       style="font-size:12px;fill:#ffd700;fill-rule:evenodd;stroke:#1d3380;stroke-width:1.38461483;stroke-miterlimit:4;stroke-opacity:1;stroke-dasharray:none"
       d="m 1978.6215,211.81005 c 3.649,9.81418 10.0894,13.52343 15.3539,16.12258 -8.0239,3.82829 -17.298,-0.32947 -19.0432,-2.30891 0.2122,2.7673 0.4296,10.24531 -0.5728,15.29593 -0.6788,4.07265 -2.3972,6.41883 -5.2983,9.66815 -3.007,-3.17464 -4.8669,-5.73291 -5.8692,-9.34049 -1.218,-5.23725 0.071,-12.66618 -0.037,-15.44015 -1.3915,1.7248 -12.4899,5.8756 -19.7929,2.26802 6.7992,-2.9862 13.3879,-6.46305 15.5324,-16.44857 0.7952,0.0494 17.7225,0.0391 19.7272,0.0391 l 0,0.14436 0,0 0,0 0,0 0,0 z"/>
    <rect
       style="font-size:12px;fill:#ffd700;fill-rule:evenodd;stroke:#1d3380;stroke-width:1.38461483;stroke-miterlimit:4;stroke-opacity:1;stroke-dasharray:none"
       y="204.9279"
       x="1947.7001"
       height="6.3303313"
       width="42.230183"/>
    <path
       style="font-size:12px;fill:#ffd700;fill-rule:evenodd;stroke:#1d3380;stroke-width:1.38461483;stroke-miterlimit:4;stroke-opacity:1;stroke-dasharray:none"
       d="m 2265.9875,198.22687 c 15.4536,-6.16378 23.0614,-15.4935 23.8782,-28.66469 0.5239,-7.9181 -7.3188,-17.20532 -15.7149,-17.41988 -26.2291,-0.71487 -34.9981,42.37887 -34.84,52.89728 1.1074,-0.003 6.5636,-0.11293 7.9172,-0.0601 1.1954,-6.64281 0.1688,-14.78056 8.55,-21.64293 8.3813,-6.86238 12.0868,-1.63326 13.1346,2.58975 1.0477,4.22297 -3.8685,12.72992 -2.9251,12.30058 l 0,0 0,0 0,-2e-5 0,0 0,-10e-6 z"/>
    <path
       style="font-size:12px;fill:#ffd700;fill-rule:evenodd;stroke:#1d3380;stroke-width:1.38461483;stroke-miterlimit:4;stroke-opacity:1;stroke-dasharray:none"
       d="m 2195.9327,198.22683 c -15.4537,-6.16378 -23.0614,-15.4935 -23.8783,-28.66469 -0.5239,-7.9181 7.3189,-17.20532 15.7149,-17.41988 26.2291,-0.71487 34.9982,42.37887 34.84,52.89732 -1.1074,-0.003 -6.5635,-0.11307 -7.9171,-0.0602 -1.1955,-6.64271 -0.1688,-14.78046 -8.5501,-21.64284 -8.3812,-6.86237 -12.0868,-1.63325 -13.1345,2.58976 -1.0478,4.22297 3.8685,12.72992 2.9251,12.30057 l 0,0 0,0 0,-1e-5 0,0 0,-10e-6 z"/>
    <path
       style="font-size:12px;fill:#ffd700;fill-rule:evenodd;stroke:#1d3380;stroke-width:1.38461483;stroke-miterlimit:4;stroke-opacity:1;stroke-dasharray:none"
       d="m 2231.1781,101.87753 c 17.8226,18.67537 22.6085,37.66944 10.7255,68.09595 -4.0762,10.1627 -5.8013,22.35712 -5.6339,35.0323 -1.7251,0.0402 -9.0694,-0.0442 -10.809,-0.16869 0.1528,-12.52125 -1.9073,-25.69873 -5.9689,-36.03017 -13.761,-31.07202 -3.8435,-52.14876 11.2132,-66.92939 l 0.2366,0 0.2365,0 0,0 z"/>
    <path
       style="font-size:12px;fill:#ffd700;fill-rule:evenodd;stroke:#1d3380;stroke-width:1.38461483;stroke-miterlimit:4;stroke-opacity:1;stroke-dasharray:none"
       d="m 2240.5416,212.18173 c 3.6489,9.81418 10.0894,13.52342 15.3539,16.12258 -8.024,3.82829 -17.298,-0.32946 -19.0433,-2.30891 0.2123,2.7673 0.4296,10.24531 -0.5727,15.29593 -0.6789,4.07265 -2.3972,6.41883 -5.2983,9.66815 -3.0071,-3.17464 -4.8669,-5.73291 -5.8692,-9.34049 -1.218,-5.23726 0.071,-12.66618 -0.037,-15.44015 -1.3916,1.7248 -12.4901,5.8756 -19.7929,2.26802 6.7991,-2.9862 13.3878,-6.46305 15.5324,-16.44857 0.7951,0.0494 17.7224,0.0391 19.7271,0.0391 l 0,0.14436 0,0 0,0 0,0 0,0 z"/>
    <rect
       style="font-size:12px;fill:#ffd700;fill-rule:evenodd;stroke:#1d3380;stroke-width:1.38461483;stroke-miterlimit:4;stroke-opacity:1;stroke-dasharray:none"
       y="205.29958"
       x="2209.6201"
       height="6.3303308"
       width="42.230179"/>
    <path
       style="font-size:12px;fill:#ffd700;fill-rule:evenodd;stroke:#1d3380;stroke-width:1.38461483;stroke-miterlimit:4;stroke-opacity:1;stroke-dasharray:none"
       d="m 2135.3664,295.76144 c 15.4537,-6.16377 23.0614,-15.49355 23.8783,-28.66471 0.5239,-7.91804 -7.3189,-17.20527 -15.7149,-17.41986 -26.2291,-0.71484 -34.9982,42.3788 -34.84,52.89725 1.1074,-0.003 6.5635,-0.11293 7.9171,-0.0601 1.1955,-6.64274 0.1688,-14.78052 8.5501,-21.64299 8.3812,-6.86233 12.0868,-1.63315 13.1345,2.58984 1.0478,4.22298 -3.8685,12.72987 -2.9251,12.30055 l 0,0 0,0 0,0 0,0 0,0 z"/>
    <path
       style="font-size:12px;fill:#ffd700;fill-rule:evenodd;stroke:#1d3380;stroke-width:1.38461483;stroke-miterlimit:4;stroke-opacity:1;stroke-dasharray:none"
       d="m 2065.3116,295.76144 c -15.4536,-6.16391 -23.0614,-15.49355 -23.8782,-28.66471 -0.5239,-7.91818 7.3188,-17.20541 15.7149,-17.41986 26.2291,-0.71498 34.9981,42.3788 34.84,52.89725 -1.1074,-0.003 -6.5636,-0.11307 -7.9172,-0.0602 -1.1954,-6.64273 -0.1688,-14.78052 -8.55,-21.64285 -8.3813,-6.86233 -12.0868,-1.63329 -13.1346,2.58984 -1.0477,4.22284 3.8685,12.72987 2.9251,12.30055 l 0,0 0,0 0,0 0,0 0,0 z"/>
    <path
       style="font-size:12px;fill:#ffd700;fill-rule:evenodd;stroke:#1d3380;stroke-width:1.38461483;stroke-miterlimit:4;stroke-opacity:1;stroke-dasharray:none"
       d="m 2100.5571,199.41208 c 17.8225,18.67537 22.6084,37.6694 10.7254,68.0959 -4.0762,10.1627 -5.8013,22.35713 -5.6339,35.03234 -1.7251,0.0402 -9.0693,-0.0442 -10.8089,-0.16869 0.1527,-12.52126 -1.9073,-25.69867 -5.9689,-36.03021 -13.761,-31.07193 -3.8435,-52.14871 11.2132,-66.92934 l 0.2365,0 0.2366,0 0,0 z"/>
    <path
       style="font-size:12px;fill:#ffd700;fill-rule:evenodd;stroke:#1d3380;stroke-width:1.38461483;stroke-miterlimit:4;stroke-opacity:1;stroke-dasharray:none"
       d="m 2109.9206,309.71627 c 3.6489,9.81418 10.0893,13.52343 15.3538,16.12258 -8.0239,3.8283 -17.298,-0.32946 -19.0432,-2.30891 0.2122,2.7673 0.4296,10.24532 -0.5728,15.29593 -0.6788,4.07265 -2.3972,6.41883 -5.2983,9.66815 -3.007,-3.17464 -4.8668,-5.73291 -5.8692,-9.34049 -1.2179,-5.23725 0.071,-12.66617 -0.037,-15.44015 -1.3915,1.7248 -12.49,5.87561 -19.7929,2.26802 6.7991,-2.9862 13.3878,-6.46305 15.5325,-16.44857 0.795,0.0494 17.7223,0.0391 19.7271,0.0391 l 0,0.14436 0,0 0,0 0,0 0,0 z"/>
    <rect
       style="font-size:12px;fill:#ffd700;fill-rule:evenodd;stroke:#1d3380;stroke-width:1.38461483;stroke-miterlimit:4;stroke-opacity:1;stroke-dasharray:none"
       y="302.83414"
       x="2078.9993"
       height="6.3303304"
       width="42.230175"/>
  </g>
</svg>
