<?xml version="1.0" encoding="UTF-8" standalone="no"?>
<!-- Svg Vector Icons : http://www.onlinewebfonts.com/icon -->

<svg
   xmlns:dc="http://purl.org/dc/elements/1.1/"
   xmlns:cc="http://creativecommons.org/ns#"
   xmlns:rdf="http://www.w3.org/1999/02/22-rdf-syntax-ns#"
   xmlns:svg="http://www.w3.org/2000/svg"
   xmlns="http://www.w3.org/2000/svg"
   xmlns:sodipodi="http://sodipodi.sourceforge.net/DTD/sodipodi-0.dtd"
   xmlns:inkscape="http://www.inkscape.org/namespaces/inkscape"
   version="1.1"
   x="0px"
   y="0px"
   viewBox="0 0 820 520.00001"
   enable-background="new 0 0 1000 1000"
   xml:space="preserve"
   id="svg2"
   inkscape:version="0.91 r13725"
   sodipodi:docname="DIN.svg"
   width="820"
   height="520"
   inkscape:export-filename="C:\Users\Cole\Documents\Paradox Interactive\Hearts of Iron IV\mod\frozennorth\gfx\flags\DIN.png"
   inkscape:export-xdpi="90"
   inkscape:export-ydpi="90"><defs
     id="defs44" /><sodipodi:namedview
     pagecolor="#ffffff"
     bordercolor="#666666"
     borderopacity="1"
     objecttolerance="10"
     gridtolerance="10"
     guidetolerance="10"
     inkscape:pageopacity="0"
     inkscape:pageshadow="2"
     inkscape:window-width="1920"
     inkscape:window-height="1017"
     id="namedview42"
     showgrid="false"
     fit-margin-top="0"
     fit-margin-left="0"
     fit-margin-right="0"
     fit-margin-bottom="0"
     inkscape:zoom="0.67573438"
     inkscape:cx="949.73945"
     inkscape:cy="90.249972"
     inkscape:window-x="-8"
     inkscape:window-y="-8"
     inkscape:window-maximized="1"
     inkscape:current-layer="svg2"><sodipodi:guide
       position="0,0"
       orientation="0,820"
       id="guide4172" /><sodipodi:guide
       position="820,0"
       orientation="-520,0"
       id="guide4174" /><sodipodi:guide
       position="820,520.00001"
       orientation="0,-820"
       id="guide4176" /><sodipodi:guide
       position="0,520.00001"
       orientation="520,0"
       id="guide4178" /></sodipodi:namedview><metadata
     id="metadata4"> Svg Vector Icons : http://www.onlinewebfonts.com/icon <rdf:RDF><cc:Work
     rdf:about=""><dc:format>image/svg+xml</dc:format><dc:type
       rdf:resource="http://purl.org/dc/dcmitype/StillImage" /><dc:title></dc:title></cc:Work></rdf:RDF></metadata><rect
     style="opacity:1;fill:#ffe680;fill-opacity:1;fill-rule:nonzero;stroke:none;stroke-width:1;stroke-linecap:round;stroke-linejoin:round;stroke-miterlimit:4;stroke-dasharray:8, 2, 1, 2;stroke-dashoffset:0;stroke-opacity:1"
     id="rect4180"
     width="820"
     height="520"
     x="0"
     y="0" /><g
     id="g6"
     transform="matrix(0.54598666,0,0,0.54598666,137.02789,-12.952385)"
     style="fill:#806600"><g
       id="g8"
       style="fill:#806600"><path
         d="m 989.5,385.6 c -2.4,-5.5 -6.4,-9.4 -10.9,-13.6 -4.4,-4.1 -8.4,-8.4 -13.8,-11.6 -5.3,-3.1 -10.6,-4.4 -16.5,-4.3 -1.7,0 -3.3,0 -5,-0.1 -8.5,-0.1 -9.4,-0.6 -10.6,-8.8 -0.1,-0.8 -0.8,-1.3 -1.6,-1.2 -3.2,0.5 -6.4,1 -9.5,1.5 -1.4,0.2 -3.6,0.7 -4.2,0 -5.4,-6.3 -15.4,-6 -19.9,-13.4 -0.4,-0.6 -1.2,-1.5 -1.9,-1.9 -11.4,-6.6 -21.7,-15.4 -35.6,-16.5 -0.1,0 -0.3,-0.1 -0.4,-0.3 -0.2,-0.2 -0.5,-0.4 -0.8,-0.4 -0.3,0 -1.1,0.1 -1.9,0.3 -1,0.2 -1.9,0.4 -2.8,0.7 -6.9,2.2 -14.4,3.4 -20.6,6.8 -8.2,4.5 -15.4,10.9 -23.1,16.4 -6.2,4.5 -12,9.5 -18.5,13.2 -18.1,10.3 -36.9,11.7 -57,5.2 -19.2,-6.2 -39.2,-8.5 -59.4,-7.5 -4.5,0.2 -8.9,0.4 -13.4,0.6 -3.6,0.1 -7.3,0.3 -10.9,0.5 -12.7,0.6 -25.5,1.2 -38.2,1.8 -4.1,0.2 -8.4,-0.4 -12.4,0.4 -11.8,2.4 -23.5,5.3 -35.3,8 -17.2,3.9 -34.4,8.6 -51.8,11.5 -17.4,2.9 -35.1,4.4 -52.7,5.8 -13,1.1 -26.2,0.9 -39.3,1.6 -3.8,0.2 -7.7,0.4 -11.5,0.5 -1.3,0 -2.5,-0.1 -3.8,-0.1 -0.8,0 -1.6,0 -2.4,0.1 -0.8,0.1 -2,0.2 -2.8,0.2 -22.9,0.4 -45.7,-0.6 -68.4,-4.9 -2.7,-0.5 -5.3,-1 -8,-1.5 -9.1,-2.1 -18.2,-4 -27.3,-5.8 -9.6,-2.1 -19.1,-4.4 -28.7,-6.7 -26.2,-6.3 -52.7,-5.9 -79.1,-2.9 -24.4,2.7 -48.3,8.1 -71.6,15.7 -0.7,0.2 -1.6,0.5 -2,0.6 -0.2,0 -0.5,0.1 -0.7,0.1 -0.4,0.1 -0.7,0.2 -1,0.3 -0.5,0.2 -1.5,0.7 -2.2,1 -14.7,4.9 -29.5,9.7 -44.1,14.8 -19.4,6.8 -38,15.5 -55.6,26.3 -0.8,0.5 -1.5,1.3 -2.2,2 -0.5,0.6 -0.3,1.2 0.4,1.3 1.6,0.3 2.9,0.1 4.1,-0.4 9.5,-3.9 18.9,-8.2 28.5,-11.8 12.2,-4.1 24.2,-9.1 36.7,-12.1 21.2,-5.2 42.7,-9 64.2,-13.3 18.2,-3.6 36.4,-5.4 54.7,-4.6 21.2,1.8 42.2,6.3 62.9,11.7 10.5,2.8 20.9,5.7 31.3,8.8 3.9,1.4 7.7,2.8 11.6,4.3 14.6,5.8 29.6,10.7 44.9,14.2 20.8,4.8 42,7.7 63,11.8 26.3,5.2 52.2,11.7 76.2,24.6 10.3,5.6 20.8,12.6 33.7,11.6 0.2,0 0.4,0.1 0.7,0.3 0.3,0.2 0.7,1 0.8,1.8 0.8,7 1.6,14.2 2.6,21.4 0.5,3.7 -0.3,6.1 -3.7,8.2 -10.9,6.8 -18,16.7 -22,28.6 -0.4,1 -0.7,2 -1,3.1 -3.3,10.1 -9.5,18 -18,23.5 -12.3,7.9 -22.8,17.7 -32.7,28.2 -3,3.1 -5.2,7.1 -7,11.1 -3.7,8 -4.6,17.8 -15.4,21.9 -0.7,0.3 -0.7,0.7 0,1 2.1,0.8 3.7,1.5 5.2,2 0.7,0.3 1.2,1.1 1,1.9 -1.3,5.9 -3.6,11.4 -8.4,15.1 -6.7,5.2 -7.8,11.4 -5,18.9 0.6,1.5 1.1,3.2 1.3,4.8 0.8,6.1 3.7,10.9 8.5,14.6 5.4,4.1 10.8,8.1 16,12 0.6,0.5 1.6,0.4 2.3,0.1 5.1,-2.6 11.7,3 15,-2.7 0.4,-0.7 1.2,-1 1.9,-0.8 2,0.7 3.9,1.3 6.2,2.1 0.7,0.2 1.1,-0.1 0.8,-0.8 -0.3,-0.9 -0.5,-1.3 -0.7,-1.7 -3.6,-6.2 -9.2,-8 -16,-7.7 -6.1,0.2 -10.7,-2.2 -13.3,-8.3 -2.3,-5.4 -1.7,-9.7 2.4,-14 3.2,-3.3 4.8,-7.3 3.4,-12.3 -0.7,-2.3 -0.8,-5.3 0.1,-7.4 5.7,-13 11.8,-25.9 17.8,-38.7 0.7,-1.5 1.8,-2.8 2.9,-4 3.7,-4.2 7.9,-8 11.3,-12.4 7.6,-9.7 17.3,-15.9 29.2,-18.6 9.5,-2.1 19.2,-3.2 28.7,-5.5 4.3,-1 8.4,-3.3 11.9,-4.9 0.7,-0.3 1.7,-0.2 2.3,0.3 4.4,3.6 8.4,6.9 12.5,10 6.2,4.6 12,9.4 13.2,17.7 0,0.1 0.2,0.2 0.3,0.4 0.2,0.2 0.8,-0.2 1.3,-0.7 0.1,-0.2 0.3,-0.3 0.4,-0.5 0.5,-0.6 1.1,-0.4 1.4,0.3 2.4,7.2 4.4,14.2 7.1,20.9 2.3,5.9 4.5,12.3 8.5,17 2.5,2.9 3.4,5 2.9,8.3 -0.1,0.6 -0.1,1.3 -0.1,2.1 0,0.8 0.5,1.1 1.2,0.7 5.8,-3.5 7,-8.9 6.3,-15.4 -0.1,-0.8 0.2,-0.9 0.6,-0.3 4.3,6.1 7.1,12.2 11.9,15.6 5.1,3.7 6.6,8.1 7.9,13.3 0,0.1 0.2,0.2 0.4,0.3 0.2,0.1 0.8,-0.3 1.2,-0.9 3.5,-5.4 3.1,-12 -1.7,-19.4 C 619.9,606 614,595.2 612,583.1 l -0.7,-5.6 c -0.2,-2.8 -0.2,-5.7 0.1,-8.6 0.6,-6.2 -1.4,-7.4 -7.5,-8.2 -1.4,-0.2 -3,-0.5 -4.2,-1.3 -9,-5.8 -18,-11.8 -27,-17.8 -1.7,-1.2 -3.2,-2.6 -4.7,-3.9 -0.6,-0.5 -0.6,-1.3 0,-1.8 3.2,-2.5 7,-4.4 7.9,-7.3 3.3,-10.2 10.3,-11.9 19.4,-10.9 1.8,0.2 3.6,-0.4 5.4,-0.5 7.6,-0.5 15.2,-1.1 22.8,-1.2 7.3,-0.1 14.6,0.5 21.9,0.4 8.9,-0.1 15.9,-3 19.3,-12.4 1.4,-4 4,-7.2 7.3,-9.2 0.7,-0.4 1.8,-0.8 2.5,-1.1 0.8,-0.3 1.6,-0.5 2.3,-0.8 0.7,-0.2 1.7,-0.5 2.2,-0.6 0.3,0 0.6,-0.1 0.9,-0.1 3.3,-0.3 6.6,-0.9 9.9,-1.2 21.9,-1.6 42.8,-6.9 62,-17.9 1,-0.6 1.9,-0.9 2.7,-0.9 0.8,0 1.7,0.8 2.2,1.4 1,1.3 2,2.6 3,3.9 0.1,0.2 0.3,0.3 0.4,0.4 0.2,0.2 0.9,0.9 1.3,1.5 5.2,7.1 10.4,14.1 15.5,21.2 2.3,3.2 4.2,6.6 6.3,9.9 0.4,0.6 1.1,1 1.6,0.8 0.5,-0.2 0.6,-1 0.4,-1.7 -1.9,-5.2 -3.9,-10.3 -5.6,-15 -0.3,-0.7 0.1,-1.3 0.9,-1.4 3.3,-0.2 6.7,-0.4 10.1,-0.7 0.8,0 1.4,-0.4 1.3,-0.8 0,-0.4 -0.6,-0.9 -1.4,-1.1 -5.5,-1.8 -9.7,-5 -13.5,-8.8 -2.2,-5.9 -5.9,-11.1 -10.9,-14.9 0.1,-0.1 0.1,-0.3 0.2,-0.4 0.4,-0.2 0.7,-0.4 0.9,-0.5 1.3,-0.7 2.5,-1.6 3.9,-2.2 14,-6.3 22.4,-16.1 20.8,-32.6 -0.6,-5.9 4.1,-10.8 9.7,-13.1 9.8,-4 19.8,-7.6 29.1,-12.6 8.9,-4.8 16.7,-4.3 24.7,1 6.7,4.5 13.8,8.5 20.2,13.4 12.6,9.7 24.8,19.9 37.2,29.9 3.6,2.9 7.1,6.1 11,8.6 5.2,3.3 11.2,4.1 16.5,2.7 0.7,-0.2 2,-0.4 2.7,-0.7 0.7,-0.3 1.3,-0.8 1.4,-0.8 0.1,-0.1 0.7,-0.4 1.4,-0.8 0.4,-0.3 0.8,-0.6 1.2,-0.9 0.6,-0.5 0.8,-1.5 0.5,-2.2 -1.2,-3 -2.4,-6 -3.7,-9.1 -0.3,-0.7 -1,-0.9 -1.7,-0.5 -0.6,0.4 -1.2,0.8 -1.9,1.3 -0.6,0.4 -1.2,0.7 -1.3,0.6 -0.1,-0.1 0,-0.7 0.3,-1.4 0.2,-0.6 0.5,-1.1 0.7,-1.6 0.3,-0.7 -0.1,-1.1 -0.8,-0.9 -0.3,0.1 -0.6,0.2 -0.9,0.3 -0.7,0.2 -1.3,-0.2 -1.2,-0.9 0.1,-0.7 -0.5,-1.1 -1.1,-0.7 -0.4,0.2 -0.8,0.4 -1.1,0.6 -0.7,0.3 -1.3,0 -1.4,-0.8 -0.2,-1.7 -0.4,-3.3 -0.6,-4.8 -0.1,-0.8 -0.7,-1.1 -1.4,-0.8 -0.5,0.2 -1.1,0.5 -1.7,0.7 -0.7,0.3 -1.1,0 -0.9,-0.8 0.1,-0.5 0.2,-0.9 0.3,-1.3 0.2,-0.7 -0.2,-1.1 -1,-0.8 -0.8,0.3 -1.5,0.6 -2.4,1 -0.7,0.3 -1,0 -0.6,-0.7 0.7,-1.4 1.4,-2.6 2.4,-4.1 0.4,-0.7 0.1,-0.9 -0.6,-0.6 -1.3,0.6 -2.2,1 -3.1,1.4 -0.7,0.3 -1.1,0 -0.9,-0.8 0.2,-0.6 0.3,-1.2 0.5,-1.9 0.2,-0.7 -0.2,-1 -0.8,-0.6 -0.6,0.4 -1.2,0.8 -1.8,1.2 -0.6,0.4 -0.9,0.2 -0.7,-0.5 0.2,-0.6 0.4,-1.2 0.6,-1.7 0.3,-0.7 -0.1,-1.1 -0.9,-1 -0.1,0 -0.1,0 -0.2,0 -0.7,0.2 -1.1,-0.2 -0.8,-1 0.2,-0.4 0.3,-0.8 0.5,-1.2 0.3,-0.7 -0.1,-1.1 -0.8,-0.9 l 0,0 c -0.7,0.2 -1.4,-0.2 -1.5,-1 -0.1,-0.6 -0.1,-1.2 -0.5,-1.6 -1.8,-2.2 -4.4,-3.9 -5.7,-6.3 -4.6,-8.6 -2,-16.2 3.8,-23.3 1.4,-1.7 2.7,-3.6 4.5,-4.7 0.7,-0.4 1.5,-0.5 1.8,-0.4 0.2,0 0.4,0.1 0.5,0.2 0.7,0.3 1.5,0.4 2.3,0.5 0.8,0 1.8,0.4 2.4,0.8 0.6,0.5 1.3,0.8 2,1.2 0.7,0.3 1.8,0.8 2.4,1.4 1.4,1.3 2.5,2.8 3.2,4.7 0.3,0.7 0.9,0.9 1.5,0.4 0.1,-0.1 0.2,-0.1 0.2,-0.2 0.6,-0.5 1.6,-0.7 2.3,-0.4 0.8,0.3 1.6,0.6 2.3,0.8 0.7,0.2 1.2,1.1 1.1,1.8 -0.1,0.4 -0.1,0.9 -0.2,1.3 -0.1,0.8 0.4,1.2 1.1,1 2.1,-0.6 4.1,-1.2 6.1,-1.8 0.7,-0.2 1.3,0.2 1.3,1 l 0,4.5 c 0,0.8 0.2,1.5 0.4,1.6 0.2,0.1 0.7,-0.3 1.1,-1 0.6,-0.9 1.1,-1.8 1.7,-2.8 0.4,-0.6 0.9,-1.1 1,-1 0.2,0.1 0.1,0.8 0,1.5 -0.2,0.9 -0.5,1.8 -0.7,2.7 -0.2,0.7 -0.1,1.5 0.2,1.6 0.3,0.2 0.9,-0.3 1.3,-0.9 0.9,-1.6 1.9,-3.2 3.2,-5.3 0.4,-0.7 0.6,-0.6 0.5,0.2 -0.1,1.1 -0.3,2 -0.4,2.8 -0.1,0.8 0.1,1.6 0.5,1.9 0.4,0.3 1,0 1.3,-0.7 0.4,-0.8 0.9,-1.6 1.3,-2.4 0.4,-0.7 0.8,-1.1 1,-0.9 0.2,0.2 0.2,0.9 0,1.7 -0.2,0.8 -0.4,1.5 -0.6,2.3 -0.2,0.7 -0.1,1.5 0.1,1.7 0.3,0.2 0.9,-0.1 1.4,-0.7 0.9,-1 1.8,-2 2.8,-3 0.5,-0.6 0.9,-0.4 0.9,0.4 l 0,2.2 c 0,0.8 0.4,0.9 0.9,0.3 0.9,-1.1 1.7,-2 2.5,-2.9 0.5,-0.6 1,-0.4 1.2,0.3 0.1,0.8 0.3,1.5 0.4,2.3 0.1,0.8 0.7,1 1.4,0.6 0.2,-0.1 0.4,-0.2 0.5,-0.4 0.6,-0.4 1.5,-0.2 1.9,0.4 0,0 0,0 0,0 0.4,0.6 1,0.7 1.3,0.1 0.3,-0.6 0.9,-1 1.5,-1 0.5,0 1,0 1,0.1 0,0.1 0.7,0.1 1.4,-0.1 5.9,-1.3 8.7,-5.1 9,-11.1 0,-0.1 0.1,-0.3 0.3,-0.4 0.2,-0.2 0.4,-0.9 0.4,-1.7 l 0,-3.2 c -0.1,-1 -0.3,-2.2 -0.6,-2.9 z"
         id="path10"
         inkscape:connector-curvature="0"
         style="fill:#806600" /></g><g
       id="g12"
       style="fill:#806600" /><g
       id="g14"
       style="fill:#806600" /><g
       id="g16"
       style="fill:#806600" /><g
       id="g18"
       style="fill:#806600" /><g
       id="g20"
       style="fill:#806600" /><g
       id="g22"
       style="fill:#806600" /><g
       id="g24"
       style="fill:#806600" /><g
       id="g26"
       style="fill:#806600" /><g
       id="g28"
       style="fill:#806600" /><g
       id="g30"
       style="fill:#806600" /><g
       id="g32"
       style="fill:#806600" /><g
       id="g34"
       style="fill:#806600" /><g
       id="g36"
       style="fill:#806600" /><g
       id="g38"
       style="fill:#806600" /><g
       id="g40"
       style="fill:#806600" /></g></svg>