<?xml version="1.0" encoding="UTF-8" standalone="no"?>
<svg
   xmlns:dc="http://purl.org/dc/elements/1.1/"
   xmlns:cc="http://creativecommons.org/ns#"
   xmlns:rdf="http://www.w3.org/1999/02/22-rdf-syntax-ns#"
   xmlns:svg="http://www.w3.org/2000/svg"
   xmlns="http://www.w3.org/2000/svg"
   xmlns:xlink="http://www.w3.org/1999/xlink"
   xmlns:sodipodi="http://sodipodi.sourceforge.net/DTD/sodipodi-0.dtd"
   xmlns:inkscape="http://www.inkscape.org/namespaces/inkscape"
   width="820"
   height="520"
   version="1"
   id="svg2"
   inkscape:version="0.91 r13725"
   sodipodi:docname="Flag_of_Saskatchewan.svg">
  <metadata
     id="metadata160">
    <rdf:RDF>
      <cc:Work
         rdf:about="">
        <dc:format>image/svg+xml</dc:format>
        <dc:type
           rdf:resource="http://purl.org/dc/dcmitype/StillImage" />
        <dc:title></dc:title>
      </cc:Work>
    </rdf:RDF>
  </metadata>
  <defs
     id="defs158" />
  <sodipodi:namedview
     pagecolor="#ffffff"
     bordercolor="#666666"
     borderopacity="1"
     objecttolerance="10"
     gridtolerance="10"
     guidetolerance="10"
     inkscape:pageopacity="0"
     inkscape:pageshadow="2"
     inkscape:window-width="1920"
     inkscape:window-height="1017"
     id="namedview156"
     showgrid="false"
     fit-margin-top="0"
     fit-margin-left="0"
     fit-margin-right="0"
     fit-margin-bottom="0"
     inkscape:zoom="0.51178288"
     inkscape:cx="721.08125"
     inkscape:cy="167.059"
     inkscape:window-x="-8"
     inkscape:window-y="-8"
     inkscape:window-maximized="1"
     inkscape:current-layer="svg2" />
  <path
     d="m 0,0 820,0 0,260 -820,0 z"
     id="path4"
     inkscape:connector-curvature="0"
     style="fill:#076a21;fill-rule:evenodd" />
  <path
     d="m 0,260 820,0 0,260 -820,0 z"
     id="path6"
     inkscape:connector-curvature="0"
     style="fill:#fdd401;fill-rule:evenodd" />
  <path
     d="M 608.19534,198.89518 603.10115,158.7077"
     id="path8"
     inkscape:connector-curvature="0"
     style="fill:none;stroke:#000000;stroke-width:1.98954403" />
  <g
     id="g10"
     style="stroke:#003d00;stroke-width:1.24553597"
     transform="matrix(1.048254,0,0,1.048254,-212,4e-6)">
    <path
       d="m 825.46947,373.47885 c 0,0 -13.5433,-9.84966 -15.39013,-20.31495 -1.84681,-10.46527 -3.07801,-24.6242 -3.07801,-24.6242 l 9.84968,5.54045 c 0,0 1.23122,14.15891 1.84681,20.31495 0.61561,6.15606 6.77165,19.08375 6.77165,19.08375 z m 20.42701,-118.78053 c 10.42137,-0.82122 10.96884,15.97454 10.96884,15.97454 0,0 -18.46814,-9.84968 -26.47101,-9.84968 -8.00285,0 15.50217,-6.12485 15.50217,-6.12485 z"
       id="path12"
       inkscape:connector-curvature="0"
       style="fill:#016b29;fill-rule:evenodd" />
    <path
       d="m 856.54488,269.92222 c -0.40425,-0.40425 -14.06783,-13.82528 -20.77835,-13.66359 -6.71051,0.16171 -6.87222,0.3234 -6.87222,0.3234"
       id="path14"
       inkscape:connector-curvature="0"
       style="fill:none" />
    <path
       d="m 741.13162,262.05438 -16.00573,0 c -5.54044,0 -16.00572,-1.2312 -16.00572,-1.2312 0,0 14.77451,9.84968 22.77738,9.23407 8.00286,-0.61561 27.0866,0.61561 27.0866,0.61561 l -11.08088,-8.00287 -6.77165,-0.61561 z"
       id="path16"
       inkscape:connector-curvature="0"
       style="fill:#016b29;fill-rule:evenodd" />
    <path
       d="m 710.69222,261.35215 c 0,0 14.71463,4.20418 20.5358,4.44674 5.82117,0.24255 22.15278,-0.8085 22.15278,-0.8085"
       id="path18"
       inkscape:connector-curvature="0"
       style="fill:none" />
    <path
       d="m 823.62266,372.24765 c -1.84681,-3.07803 -9.84968,-12.3121 -11.08088,-20.31495 -1.23122,-8.00287 1.84681,-19.08375 1.84681,-19.08375 m -99.72798,22.16176 c 0,0 30.78024,-39.3987 36.32069,-44.32354 5.54043,-4.92484 30.78024,-17.85255 33.85827,-20.93056 3.07801,-3.07803 32.01144,-30.78024 38.16748,-33.24266 6.15606,-2.46242 24.00859,-1.84683 24.00859,-1.84683 0,0 -6.15604,1.23122 -9.84968,4.30925 -3.69362,3.07801 -11.69649,11.69649 -17.23692,15.39011 -5.54045,3.69364 -48.01718,30.78024 -53.55763,36.9363 -5.54043,6.15604 -13.5433,16.62133 -17.85253,20.31495 -4.30923,3.69364 -33.85827,23.39298 -33.85827,23.39298 z"
       id="path20"
       inkscape:connector-curvature="0"
       style="fill:#016b29;fill-rule:evenodd" />
    <path
       d="m 740.51601,262.05438 c 0,0 17.85255,11.69649 20.93056,15.39013 3.07803,3.69362 17.85255,18.46814 19.08375,20.93056 1.23122,2.46242 20.93058,30.78024 26.47101,35.70508 5.54045,4.92484 11.0809,12.92771 11.69649,16.62133 l 0.61561,3.69362 c 0,0 -1.2312,-25.23979 -2.46242,-27.70221 -1.2312,-2.46242 -6.77165,-4.30923 -11.69649,-9.84968 -4.92484,-5.54043 -14.77452,-10.46527 -24.62418,-25.8554 -3.07803,-7.38726 -20.93058,-28.31782 -25.23981,-29.54902 -4.30923,-1.23122 -14.77452,0.61559 -14.77452,0.61559 z"
       id="path22"
       inkscape:connector-curvature="0"
       style="fill:#016b29;fill-rule:evenodd" />
    <path
       d="m 859.94335,337.15818 c 0,0 -3.69364,-16.62133 -17.23694,-26.47101 -13.5433,-9.84968 -36.93628,-19.08375 -62.17609,-19.69936 -25.23979,-0.61561 -38.78309,1.84681 -40.62991,2.46242 -1.84682,0.61561 -6.15605,10.46529 -6.15605,10.46529 0,0 25.23979,-5.54045 40.62992,-5.54045 15.39011,0 46.17035,11.69649 52.32641,15.39013 6.15604,3.69362 33.24266,23.39298 33.24266,23.39298 z"
       id="path24"
       inkscape:connector-curvature="0"
       style="fill:#016b29;fill-rule:evenodd" />
    <path
       d="m 716.50742,353.1639 c 0,0 25.23981,-22.16178 28.93343,-25.8554 3.69364,-3.69364 11.08088,-16.00572 16.62133,-19.69936 5.54045,-3.69362 45.55476,-33.24266 48.63279,-35.70508 3.07801,-2.46242 19.69934,-16.62133 19.69934,-16.62133"
       id="path26"
       inkscape:connector-curvature="0"
       style="fill:none" />
    <path
       d="m 739.2848,298.99068 c 0,0 27.08661,-5.54045 39.39871,-4.92484 12.3121,0.61561 56.02005,17.85253 60.32928,20.93056 4.30923,3.07803 18.46814,19.69936 18.46814,19.69936"
       id="path28"
       inkscape:connector-curvature="0"
       style="fill:none" />
    <path
       d="m 818.69782,341.46741 c 0,0 -37.55189,-48.63279 -44.32354,-56.02005 -6.77165,-7.38724 -27.70221,-24.00857 -27.70221,-24.00857"
       id="path30"
       inkscape:connector-curvature="0"
       style="fill:none" />
    <path
       d="m 707.88896,318.07443 c 0,0 12.9277,-9.84968 18.46814,-14.15891 5.54045,-4.30923 13.54331,-10.46529 13.54331,-10.46529 l 7.93771,-1.13011 c 0,0 -8.55332,12.21099 -13.47816,15.90463 -4.92483,3.69362 -26.471,9.84968 -26.471,9.84968 z"
       id="path32"
       inkscape:connector-curvature="0"
       style="fill:#016b29;fill-rule:evenodd" />
    <path
       d="m 743.15142,293.07278 c 0,0 -8.40502,8.6005 -11.59762,10.94608 -3.19261,2.3456 -21.30577,12.64013 -21.30577,12.64013"
       id="path34"
       inkscape:connector-curvature="0"
       style="fill:none" />
    <path
       d="m 786.07077,424.57406 -1.2312,-182.21902 c 0,0 4.30923,-3.07803 6.15604,-11.69649 1.84681,-8.61848 -1.23122,-40.01432 -1.23122,-40.01432 0,0 -21.54615,-4.30924 -20.93056,-1.84682 0.61561,2.46242 2.46242,29.54903 3.69364,34.47388 1.2312,4.92484 6.77165,19.08375 6.77165,19.08375 0,0 -3.69364,159.44165 -3.69364,165.59769 0,6.15604 10.46529,16.62133 10.46529,16.62133 z"
       id="path36"
       inkscape:connector-curvature="0"
       style="fill:#016b29;fill-rule:evenodd" />
    <path
       d="m 775.30742,198.81946 -1.37205,17.83681 m 2.74412,1.82942 c 0,-1.82942 1.37206,-18.75153 1.37206,-18.75153 m 2.74412,22.41036 -0.45735,-25.15448 m 3.65884,30.64273 0.45734,-27.44125 m 0.45736,32.9295 c 0,0 3.20148,-7.31766 3.20148,-14.17797 l 0,-16.46476 m -12.83971,205.00509 c 0,0 3.53604,-2.59995 7.50805,3.48087 2.74413,4.11618 3.20147,10.57433 3.32426,12.66175"
       id="path38"
       inkscape:connector-curvature="0"
       style="fill:none" />
  </g>
  <path
     d="m 541.0177,147.57345 c 0,0 1.93592,24.52179 9.03434,30.97489 7.09841,6.4531 25.1671,7.09841 25.1671,7.09841 0,0 -20.00461,10.97027 -21.29524,21.94055 -1.29063,10.97027 10.97028,26.45772 10.97028,26.45772 0,0 3.87185,-5.8078 6.45309,-7.09842 2.58124,-1.29062 8.38904,-0.6453 11.6156,-2.58124 3.22653,-1.93592 10.97026,-10.97027 14.19682,-10.97027 3.22655,0 12.9062,9.03435 16.77806,10.97027 3.87187,1.93594 9.67965,3.87186 12.26089,5.80779 2.58124,1.93593 6.45311,3.87187 6.45311,3.87187 0,0 4.51717,-4.51718 6.4531,-7.74372 1.93592,-3.22656 0,-5.16249 1.93592,-8.38904 1.93595,-3.22655 10.97028,-12.9062 9.03436,-18.06868 -1.93595,-5.16249 -4.51717,-6.45311 -9.03436,-7.09842 -4.51717,-0.64531 -9.03433,0 -9.03433,0 l 9.03433,-5.16248 c 0,0 5.16249,1.93593 9.67965,1.93593 4.51719,0 20.64994,-5.16248 23.87649,-5.80779 3.22656,-0.64531 10.97026,1.29062 10.97026,1.29062 0,0 -2.58124,-27.74834 -24.52178,-29.03896 -21.94054,-1.29062 -19.3593,12.26089 -25.1671,16.13276 -5.80778,3.87186 -10.32495,9.03434 -10.32495,9.03434 0,0 1.93593,-6.4531 5.16247,-10.32497 3.22655,-3.87186 10.97028,-11.61558 13.55152,-15.48743 2.58124,-3.87187 5.8078,-13.55152 5.8078,-18.0687 0,-4.51716 -3.22656,-12.26089 -3.22656,-16.13275 0,-3.87186 0.64532,-7.74373 0.64532,-7.74373 0,0 -12.90621,3.87187 -20.64994,10.32497 -7.74372,6.45311 -16.13274,21.29524 -16.13274,21.29524 0,0 -5.8078,-10.97027 -9.67967,-14.19683 -3.87185,-3.22655 -14.19682,-8.38903 -16.77806,-10.97027 -2.58124,-2.58124 -5.8078,-7.74373 -5.8078,-7.74373 0,0 -8.38902,17.42338 -8.38902,23.23118 0,5.80779 4.51717,14.84213 4.51717,14.84213 -6.4531,-2.58124 -14.19683,0.64531 -20.00462,0.64531 -5.80779,0 -13.55151,-3.22655 -13.55151,-3.22655 z"
     id="path40"
     inkscape:connector-curvature="0"
     style="fill:#dd1810;fill-rule:evenodd;stroke:#000000;stroke-width:1.30563807" />
  <path
     d="m 565.74377,213.61172 c 0,0 4.52816,-9.62235 10.18836,-11.32041 5.66022,-1.69806 24.33891,2.26408 24.33891,2.26408 l -2.8301,6.22624 c 0,0 -7.35828,0 -7.9243,-2.2641 -0.56602,-2.26408 1.69806,-3.39612 1.69806,-3.39612 0,0 -8.49031,-0.56602 -13.5845,0 -5.09419,0.56603 -11.88643,8.49031 -11.88643,8.49031 z"
     id="path42"
     inkscape:connector-curvature="0"
     style="fill:#fee500;fill-rule:evenodd" />
  <path
     d="m 613.85554,203.98937 c 0,0 3.96215,0.56602 6.22623,3.39612 2.26408,2.83011 5.66021,9.05634 5.66021,9.05634 0,0 2.26408,-4.52816 -0.56602,-7.9243 -2.83011,-3.39612 -5.09419,-5.09418 -5.09419,-5.09418 l 2.26408,-3.39613 c 0,0 3.39613,0.56603 5.09419,3.39613 1.69806,2.8301 3.39613,3.96214 3.39613,3.96214 0,0 1.13204,-3.96214 -1.13204,-6.22623 -2.26409,-2.26408 -3.96215,-2.8301 -3.96215,-2.8301 0,0 2.26408,-1.69806 5.6602,-0.56602 3.39614,1.13204 9.05634,4.52817 9.05634,4.52817 0,0 -3.39612,-5.66021 -6.22623,-6.22623 -2.83011,-0.56602 -6.79225,-0.56602 -6.79225,-0.56602 0,0 14.71654,-15.28257 20.37676,-18.67869 5.66021,-3.39613 16.4146,-5.09419 16.4146,-5.09419 0,0 0,-2.26409 -3.96214,-2.8301 -3.96215,-0.56603 -20.94278,8.49031 -20.94278,8.49031 l 3.96214,-6.79225 c 0,0 -24.90491,14.71654 -27.73501,18.67869 -2.83011,3.96215 4.52816,-10.7544 7.35826,-14.15052 2.83011,-3.39613 8.49031,-8.49032 10.18838,-13.5845 1.69807,-5.09419 3.39612,-9.05634 3.39612,-9.05634 0,0 -10.75439,10.18838 -13.01847,13.5845 -2.26409,3.39612 -3.96215,10.18838 -7.35828,8.49031 -3.39612,-1.69806 -3.96214,-6.22623 -3.96214,-6.22623 0,0 -1.13205,7.9243 -3.39613,7.35827 -2.26408,-0.56601 -3.39612,-3.39612 -3.39612,-3.39612 0,0 0,5.09419 -2.8301,4.52817 -2.8301,-0.56602 -0.56602,-4.52817 -2.8301,-8.49032 -2.26409,-3.96214 -5.66023,-4.52816 -5.66023,-4.52816 0,0 2.83012,6.22623 2.2641,9.05633 -0.56602,2.8301 -1.13206,9.62236 -5.0942,7.35828 -3.96215,-2.26409 -4.52817,-5.66022 -7.35827,-5.09419 -2.83011,0.56601 1.13204,2.8301 -0.56602,4.52816 -1.69806,1.69807 -5.09418,2.83011 -5.09418,2.83011 0,0 3.96213,0.56602 6.22622,3.96214 2.26408,3.39613 7.35827,3.39613 9.62235,7.9243 2.2641,4.52816 3.39614,11.32042 3.39614,11.32042 l 16.4146,-1.69807 z"
     id="path44"
     inkscape:connector-curvature="0"
     style="fill:#fee500;fill-rule:evenodd" />
  <path
     d="m 591.2147,179.08445 13.58451,22.64084 c 0,0 4.52817,-6.22623 7.35827,-6.22623 2.8301,0 6.22623,2.26408 6.22623,2.26408 0,0 1.69806,-10.7544 1.13204,-14.15052 -0.56602,-3.39613 -2.26409,-6.79225 -6.22622,-6.79225 -3.96215,0 -5.09419,-0.56602 -6.22623,2.26408 -1.13204,2.83011 -1.13204,11.88644 -1.13204,11.88644 0,0 -1.69807,-10.18838 -5.66022,-13.01848 -3.96214,-2.8301 -3.96214,-3.96215 -6.79226,-2.26409 -2.8301,1.69807 -2.26408,3.39613 -2.26408,3.39613 z"
     id="path46"
     inkscape:connector-curvature="0"
     style="fill:#016b29;fill-rule:evenodd" />
  <path
     d="m 577.06418,195.49906 c 0,0 3.39613,3.39612 7.35827,3.39612 3.96215,0 15.28258,1.69807 15.28258,1.69807 l -0.56603,-2.26409 c 0,0 -19.24472,-4.52817 -22.07482,-2.8301 z m -2.26409,15.28257 c 0,0 -3.96213,1.13204 -5.6602,4.52816 -1.69806,3.39612 0.56602,5.6602 0.56602,5.6602 0,0 0,-3.96213 2.8301,-5.6602 2.83011,-1.69807 2.26408,-4.52816 2.26408,-4.52816 z m -20.94276,-36.79137 c 0,0 2.8301,3.39613 5.66021,3.39613 2.8301,0 8.49031,1.13204 8.49031,1.13204 0,0 -6.79225,3.39613 -9.62236,2.26408 -2.8301,-1.13204 -4.52816,-6.79225 -4.52816,-6.79225 z m 10.18837,-17.54664 c 0,0 2.83011,2.26408 6.79226,4.52816 3.96213,2.26408 6.79224,2.26408 6.79224,2.26408 0,0 -1.13204,-2.26408 -4.52816,-3.96213 -3.39613,-1.69807 -9.05634,-2.83011 -9.05634,-2.83011 z m 14.71654,-21.5088 c 0,0 -1.69806,5.09419 0,9.62235 1.69807,4.52818 5.66021,8.49032 5.66021,8.49032 0,0 1.69806,-6.79225 -0.56602,-9.62236 -2.26408,-2.83009 -5.09419,-8.49031 -5.09419,-8.49031 z m 5.66021,-1.69806 c 0,0 2.26408,3.39613 3.39612,6.22623 1.13204,2.8301 4.52817,5.66021 4.52817,5.66021 0,0 0,-5.09419 -2.26408,-7.35827 -2.26409,-2.26408 -5.66021,-4.52817 -5.66021,-4.52817 z m 55.47004,1.69806 c 0,0 -2.26408,0 -3.96213,3.39613 -1.69807,3.39613 -0.56603,6.79225 -0.56603,6.79225 0,0 0.56603,-2.26408 2.83011,-5.09419 2.26408,-2.83011 1.69805,-5.09419 1.69805,-5.09419 z"
     id="path48"
     inkscape:connector-curvature="0"
     style="fill:#fee500;fill-rule:evenodd" />
  <path
     d="m 621.21373,157.00962 c 10e-4,-1.56387 -1.51948,-2.83226 -3.39611,-2.83226 -1.87666,0 -3.39756,1.26839 -3.39614,2.83226 -10e-4,1.56387 1.51948,2.83228 3.39614,2.83228 1.87663,0 3.39755,-1.26841 3.39611,-2.83228 z m -5.09411,5.66023 c 10e-4,-1.56387 -1.51947,-2.83228 -3.39611,-2.83228 -1.87666,0 -3.39757,1.26841 -3.39613,2.83228 -10e-4,1.56387 1.51947,2.83227 3.39613,2.83227 1.87664,0 3.39754,-1.2684 3.39611,-2.83227 z"
     id="path50"
     inkscape:connector-curvature="0"
     style="fill-rule:evenodd" />
  <path
     d="m 626.87403,158.14167 c 0.001,-1.56386 -1.51948,-2.83226 -3.39611,-2.83226 -1.87666,0 -3.39757,1.2684 -3.39614,2.83226 -10e-4,1.56387 1.51948,2.83228 3.39614,2.83228 1.87663,0 3.39754,-1.26841 3.39611,-2.83228 z"
     id="path52"
     inkscape:connector-curvature="0"
     style="fill-rule:evenodd" />
  <path
     d="m 630.27014,162.66985 c 10e-4,-1.56387 -1.51947,-2.83228 -3.39611,-2.83228 -1.87666,0 -3.39757,1.26841 -3.39613,2.83228 -10e-4,1.56387 1.51947,2.83227 3.39613,2.83227 1.87664,0 3.39754,-1.2684 3.39611,-2.83227 z m -28.86706,-6.79226 c 10e-4,-1.56387 -1.51947,-2.83226 -3.39611,-2.83226 -1.87666,0 -3.39757,1.26839 -3.39613,2.83226 -0.001,1.56387 1.51947,2.83227 3.39613,2.83227 1.87664,0 3.39755,-1.2684 3.39611,-2.83227 z"
     id="path54"
     inkscape:connector-curvature="0"
     style="fill-rule:evenodd" />
  <path
     d="m 607.62931,154.74555 c 10e-4,-1.56387 -1.51947,-2.83227 -3.39611,-2.83227 -1.87666,0 -3.39757,1.2684 -3.39613,2.83227 -0.001,1.56387 1.51947,2.83227 3.39613,2.83227 1.87664,0 3.39754,-1.2684 3.39611,-2.83227 z"
     id="path56"
     inkscape:connector-curvature="0"
     style="fill-rule:evenodd" />
  <path
     d="m 613.28952,156.44362 c 10e-4,-1.56387 -1.51948,-2.83228 -3.39612,-2.83228 -1.87665,0 -3.39757,1.26841 -3.39613,2.83228 -10e-4,1.56387 1.51948,2.83227 3.39613,2.83227 1.87664,0 3.39755,-1.2684 3.39612,-2.83227 z m -18.11267,5.09419 c 0.001,-1.56387 -1.51947,-2.83228 -3.39611,-2.83228 -1.87666,0 -3.39757,1.26841 -3.39613,2.83228 -10e-4,1.56387 1.51947,2.83226 3.39613,2.83226 1.87664,0 3.39755,-1.26839 3.39611,-2.83226 z m -12.45247,3.39612 c 10e-4,-1.56387 -1.51948,-2.83228 -3.39611,-2.83228 -1.87666,0 -3.39757,1.26841 -3.39614,2.83228 -10e-4,1.56387 1.51948,2.83227 3.39614,2.83227 1.87663,0 3.39755,-1.2684 3.39611,-2.83227 z m 54.90404,15.84858 c 10e-4,-1.56386 -1.51947,-2.83226 -3.39611,-2.83226 -1.87666,0 -3.39757,1.2684 -3.39613,2.83226 -10e-4,1.56387 1.51947,2.83228 3.39613,2.83228 1.87664,0 3.39755,-1.26841 3.39611,-2.83228 z m 7.92429,2.83011 c 10e-4,-1.56387 -1.51947,-2.83227 -3.39611,-2.83227 -1.87666,0 -3.39756,1.2684 -3.39614,2.83227 -10e-4,1.56387 1.51948,2.83227 3.39614,2.83227 1.87664,0 3.39755,-1.2684 3.39611,-2.83227 z m 2.83011,-5.6602 c 10e-4,-1.56387 -1.51948,-2.83228 -3.39612,-2.83228 -1.87665,0 -3.39756,1.26841 -3.39613,2.83228 -10e-4,1.56387 1.51948,2.83226 3.39613,2.83226 1.87664,0 3.39755,-1.2684 3.39612,-2.83226 z"
     id="path58"
     inkscape:connector-curvature="0"
     style="fill-rule:evenodd" />
  <path
     d="m 663.09936,179.08446 c 10e-4,-1.56387 -1.51948,-2.83227 -3.39611,-2.83227 -1.87666,0 -3.39757,1.2684 -3.39614,2.83227 -10e-4,1.56387 1.51948,2.83227 3.39614,2.83227 1.87663,0 3.39753,-1.2684 3.39611,-2.83227 z"
     id="path60"
     inkscape:connector-curvature="0"
     style="fill-opacity:0.75;fill-rule:evenodd" />
  <path
     d="m 591.78073,198.32916 c 0.001,-1.56386 -1.51948,-2.83227 -3.39611,-2.83227 -1.87666,0 -3.39757,1.26841 -3.39614,2.83227 -10e-4,1.56387 1.51948,2.83227 3.39614,2.83227 1.87663,0 3.39754,-1.2684 3.39611,-2.83227 z m 6.79225,3.39613 c 10e-4,-1.56387 -1.51947,-2.83227 -3.39612,-2.83227 -1.87666,0 -3.39756,1.2684 -3.39613,2.83227 -10e-4,1.56387 1.51947,2.83226 3.39613,2.83226 1.87665,0 3.39755,-1.26839 3.39612,-2.83226 z m 22.64083,7.35827 c 0.001,-1.56387 -1.51947,-2.83228 -3.39612,-2.83228 -1.87666,0 -3.39756,1.26841 -3.39613,2.83228 -10e-4,1.56387 1.51947,2.83227 3.39613,2.83227 1.87665,0 3.39755,-1.2684 3.39611,-2.83227 z"
     id="path62"
     inkscape:connector-curvature="0"
     style="fill-rule:evenodd" />
  <path
     d="m 616.68564,207.38549 c 10e-4,-1.56387 -1.51948,-2.83227 -3.39611,-2.83227 -1.87666,0 -3.39756,1.2684 -3.39614,2.83227 -10e-4,1.56387 1.51948,2.83228 3.39614,2.83228 1.87663,0 3.39755,-1.26841 3.39611,-2.83228 z M 575.36617,172.2922 c 10e-4,-1.56387 -1.51947,-2.83226 -3.39611,-2.83226 -1.87666,0 -3.39757,1.26839 -3.39613,2.83226 -10e-4,1.56387 1.51947,2.83228 3.39613,2.83228 1.87664,0 3.39755,-1.26841 3.39611,-2.83228 z m 6.79221,3.39612 c 0.001,-1.56386 -1.51948,-2.83226 -3.39612,-2.83226 -1.87665,0 -3.39757,1.2684 -3.39613,2.83226 -10e-4,1.56387 1.51948,2.83227 3.39613,2.83227 1.87664,0 3.39755,-1.2684 3.39612,-2.83227 z m 9.62235,6.22625 c 0.001,-1.56387 -1.51948,-2.83228 -3.39611,-2.83228 -1.87666,0 -3.39757,1.26841 -3.39614,2.83228 -10e-4,1.56386 1.51948,2.83226 3.39614,2.83226 1.87663,0 3.39754,-1.2684 3.39611,-2.83226 z m -7.35827,1.13204 c 10e-4,-1.56387 -1.51948,-2.83228 -3.39612,-2.83228 -1.87665,0 -3.39755,1.26841 -3.39613,2.83228 -0.001,1.56387 1.51948,2.83226 3.39613,2.83226 1.87664,0 3.39755,-1.26839 3.39612,-2.83226 z m 3.39613,6.22622 c 10e-4,-1.56387 -1.51948,-2.83227 -3.39612,-2.83227 -1.87666,0 -3.39756,1.2684 -3.39614,2.83227 -10e-4,1.56387 1.51948,2.83227 3.39614,2.83227 1.87664,0 3.39755,-1.2684 3.39611,-2.83227 z m 7.35826,-0.56602 c 0.001,-1.56387 -1.51947,-2.83228 -3.39611,-2.83228 -1.87666,0 -3.39757,1.26841 -3.39613,2.83228 -10e-4,1.56387 1.51947,2.83227 3.39613,2.83227 1.87664,0 3.39755,-1.2684 3.39611,-2.83227 z m -5.6602,-16.98063 c 10e-4,-1.56387 -1.51948,-2.83227 -3.39612,-2.83227 -1.87665,0 -3.39757,1.2684 -3.39613,2.83227 -10e-4,1.56387 1.51948,2.83227 3.39613,2.83227 1.87664,0 3.39755,-1.2684 3.39612,-2.83227 z m 6.79224,-2.8301 c 10e-4,-1.56387 -1.51947,-2.83228 -3.39611,-2.83228 -1.87666,0 -3.39756,1.26841 -3.39613,2.83228 -10e-4,1.56387 1.51947,2.83227 3.39613,2.83227 1.87664,0 3.39755,-1.2684 3.39611,-2.83227 z m 6.79226,-6.21147 c 0.001,-1.56387 -1.51948,-2.83227 -3.39611,-2.83227 -1.87666,0 -3.39757,1.2684 -3.39614,2.83227 -10e-4,1.56387 1.51948,2.83228 3.39614,2.83228 1.87663,0 3.39753,-1.26841 3.39611,-2.83228 z"
     id="path64"
     inkscape:connector-curvature="0"
     style="fill-rule:evenodd" />
  <path
     d="m 606.49727,161.53781 c 0.001,-1.56387 -1.51947,-2.83228 -3.39611,-2.83228 -1.87666,0 -3.39757,1.26841 -3.39613,2.83228 -10e-4,1.56387 1.51947,2.83226 3.39613,2.83226 1.87664,0 3.39754,-1.26839 3.39611,-2.83226 z m 3.96215,9.05633 c 10e-4,-1.56387 -1.51948,-2.83227 -3.39612,-2.83227 -1.87666,0 -3.39756,1.2684 -3.39614,2.83227 -10e-4,1.56386 1.51948,2.83226 3.39614,2.83226 1.87664,0 3.39755,-1.2684 3.39612,-2.83226 z m 13.01848,7.35827 c 10e-4,-1.56387 -1.51948,-2.83227 -3.39612,-2.83227 -1.87665,0 -3.39757,1.2684 -3.39613,2.83227 -10e-4,1.56387 1.51948,2.83227 3.39613,2.83227 1.87664,0 3.39754,-1.2684 3.39612,-2.83227 z m 6.79225,-6.22623 c 0.001,-1.56387 -1.51947,-2.83227 -3.39611,-2.83227 -1.87666,0 -3.39756,1.2684 -3.39613,2.83227 -10e-4,1.56387 1.51947,2.83227 3.39613,2.83227 1.87664,0 3.39755,-1.2684 3.39611,-2.83227 z m 7.35827,-14.71655 c 10e-4,-1.56387 -1.51947,-2.83226 -3.39611,-2.83226 -1.87666,0 -3.39757,1.26839 -3.39613,2.83226 -10e-4,1.56387 1.51947,2.83228 3.39613,2.83228 1.87664,0 3.39755,-1.26841 3.39611,-2.83228 z m -11.32041,43.58362 c 10e-4,-1.56387 -1.51947,-2.83228 -3.39611,-2.83228 -1.87666,0 -3.39757,1.26841 -3.39613,2.83228 -10e-4,1.56387 1.51947,2.83226 3.39613,2.83226 1.87664,0 3.39754,-1.26839 3.39611,-2.83226 z"
     id="path66"
     inkscape:connector-curvature="0"
     style="fill-rule:evenodd" />
  <path
     d="m 614.27453,195.54336 c 0.99237,-8.50509 3.24169,-16.31186 4.23408,-24.81695"
     id="path68"
     inkscape:connector-curvature="0"
     style="fill:none;stroke:#000000;stroke-width:1.98954403" />
  <path
     d="m 626.30801,194.36702 c 10e-4,-1.56387 -1.51947,-2.83227 -3.39611,-2.83227 -1.87667,0 -3.39757,1.2684 -3.39614,2.83227 -10e-4,1.56387 1.51947,2.83226 3.39613,2.83226 1.87665,0 3.39755,-1.26839 3.39612,-2.83226 z"
     id="path70"
     inkscape:connector-curvature="0"
     style="fill-rule:evenodd" />
  <path
     d="m 626.30801,188.70681 c 10e-4,-1.56387 -1.51947,-2.83228 -3.39611,-2.83228 -1.87667,0 -3.39757,1.26841 -3.39614,2.83228 -10e-4,1.56387 1.51947,2.83227 3.39613,2.83227 1.87665,0 3.39755,-1.2684 3.39612,-2.83227 z m -32.82922,20.37675 c 10e-4,-1.56387 -1.51947,-2.83228 -3.39611,-2.83228 -1.87666,0 -3.39757,1.26841 -3.39613,2.83228 -10e-4,1.56387 1.51947,2.83227 3.39613,2.83227 1.87664,0 3.39754,-1.2684 3.39611,-2.83227 z"
     id="path72"
     inkscape:connector-curvature="0"
     style="fill-rule:evenodd" />
  <path
     d="m 599.139,207.95152 c 10e-4,-1.56387 -1.51948,-2.83228 -3.39611,-2.83228 -1.87666,0 -3.39757,1.26841 -3.39614,2.83228 -0.001,1.56387 1.51948,2.83226 3.39614,2.83226 1.87663,0 3.39755,-1.26839 3.39611,-2.83226 z m 7.35827,1.13204 c 0.001,-1.56387 -1.51947,-2.83228 -3.39611,-2.83228 -1.87666,0 -3.39757,1.26841 -3.39613,2.83228 -10e-4,1.56387 1.51947,2.83227 3.39613,2.83227 1.87664,0 3.39754,-1.2684 3.39611,-2.83227 z m -11.32042,-32.82921 c 0.001,-1.56387 -1.51947,-2.83228 -3.39611,-2.83228 -1.87666,0 -3.39757,1.26841 -3.39613,2.83228 -10e-4,1.56387 1.51947,2.83227 3.39613,2.83227 1.87664,0 3.39755,-1.26841 3.39611,-2.83227 z"
     id="path74"
     inkscape:connector-curvature="0"
     style="fill-rule:evenodd" />
  <path
     d="m 603.10115,181.91456 c 0.001,-1.56387 -1.51948,-2.83227 -3.39611,-2.83227 -1.87666,0 -3.39757,1.26841 -3.39614,2.83227 -10e-4,1.56387 1.51948,2.83227 3.39614,2.83227 1.87663,0 3.39753,-1.2684 3.39611,-2.83227 z"
     id="path76"
     inkscape:connector-curvature="0"
     style="fill-opacity:0.75;fill-rule:evenodd" />
  <path
     d="m 617.24429,196.49882 c 3.84442,-11.8081 5.73361,-25.29211 5.66759,-38.35715"
     id="path78"
     inkscape:connector-curvature="0"
     style="fill:none;stroke:#000000;stroke-width:1.98954403" />
  <path
     d="m 622.34584,170.59414 c 0.001,-1.56387 -1.51947,-2.83227 -3.39611,-2.83227 -1.87666,0 -3.39756,1.2684 -3.39613,2.83227 -10e-4,1.56386 1.51947,2.83226 3.39613,2.83226 1.87665,0 3.39755,-1.2684 3.39611,-2.83226 z m 13.0185,19.24471 c 10e-4,-1.56387 -1.51947,-2.83226 -3.39611,-2.83226 -1.87666,0 -3.39757,1.26839 -3.39613,2.83226 -10e-4,1.56387 1.51947,2.83227 3.39613,2.83227 1.87664,0 3.39755,-1.2684 3.39611,-2.83227 z"
     id="path80"
     inkscape:connector-curvature="0"
     style="fill-rule:evenodd" />
  <path
     d="m 607.78374,197.52074 c 3.31511,-11.15389 4.675,-23.14575 4.91762,-34.71862 m -7.76987,37.21772 c -2.85942,-13.20469 -2.08771,-26.26973 -5.22646,-39.61407 m 3.2417,36.65169 c -4.51095,-9.57581 -6.2287,-19.57058 -10.59999,-28.72741"
     id="path82"
     inkscape:connector-curvature="0"
     style="fill:none;stroke:#000000;stroke-width:1.98954403" />
  <g
     transform="matrix(0.94514773,0,0,0.94514773,-109.90618,10.351319)"
     id="g84">
    <g
       id="a"
       style="fill-rule:evenodd;stroke:#917b01;stroke-width:0.5">
      <path
         d="m 265.30699,205.5812 c 0,0 5.31374,-51.23954 4.17508,-51.6191 -1.13866,-0.37955 -2.84664,0.75911 -3.9853,0.18978 -1.13866,-0.56933 -0.0326,-3.52158 -0.0326,-3.52158 1.57648,-0.49141 3.14831,-0.52068 4.72944,-1.47423 1.58113,-0.95356 3.17157,-2.8314 4.75735,-4.2471 l -4.81339,-27.56478 c 5.80961,6.51188 9.26024,22.1527 10.25657,23.31648 0.9072,-1.59939 4.12687,-16.09349 10.38216,-23.84319 l -4.67157,27.61705 c 1.53114,1.69859 2.53135,3.53476 3.88422,4.38657 1.35287,0.85181 3.34208,1.71214 4.51668,1.71717 1.60443,-0.80221 1.16549,2.0954 0.0268,3.04428 -1.13865,0.94888 -3.98529,0.37955 -3.98529,0.37955 l 4.7444,51.6191 c 0,0 -8.16037,-2.27731 -14.42299,-2.65686 -6.26261,-0.37955 -15.56164,2.65686 -15.56164,2.65686 z"
         id="path87"
         inkscape:connector-curvature="0"
         style="fill:#fed501" />
      <path
         d="m 270.04807,170.8494 c 0.86862,-2.74291 1.48907,-21.4535 2.10952,-22.92291 m 0.37226,21.74738 c 0.24818,-2.74291 0.74453,-21.55146 0.74453,-21.55146 m -5.29552,56.28945 c 1.01015,-4.04061 1.73168,-31.60332 2.45322,-33.76793 m 4.08321,-22.3256 -0.1241,21.35554 m -3.52619,33.0063 c 0.28862,-4.04061 0.86585,-31.74762 0.86585,-31.74762 m 4.39759,-1.4546 c 0.24817,-0.48981 0.12409,-21.06166 0.12409,-21.06166 m -3.0786,22.80487 -0.14431,31.45901 m 4.71198,-33.30018 c 0,-1.46942 0.24817,-19.6902 0.12408,-20.96369 m -2.81576,53.97526 c 0.28861,-0.72154 0.14431,-31.0261 0.14431,-31.0261 m 1.73169,30.88179 c 0,-2.16461 0.28861,-29.00579 0.1443,-30.88178 m 1.87599,0.57722 0.14431,30.01594 m 2.16462,-30.44886 -0.14431,30.16025 m 2.0203,-30.30456 -0.1443,30.30456 m 2.16461,-28.71717 -0.14431,29.2944 m 1.73169,-29.58302 0.72154,30.01594 m -7.98153,-53.87203 0.1241,20.37592 m 8.57896,3.48017 1.73169,30.01594 m -8.44931,-54.16592 -0.12409,20.47389 m 8.86202,3.67609 2.16461,31.02609 m -9.28939,-55.27403 -0.12408,20.57185 m 1.86134,-19.49427 -0.1241,19.88612 m 1.48907,-20.08205 0.62045,20.37593 m 0.62043,-20.37593 1.48908,20.37593 m 0.24818,-20.37593 1.86133,21.06166"
         id="path89"
         inkscape:connector-curvature="0"
         style="fill:none;fill-opacity:0.75" />
      <path
         d="m 278.81562,139.77249 c 0,0 -15.02683,-0.42315 -17.30415,-1.18225 -2.27731,-0.75911 -3.60574,-0.75911 -3.60574,-0.75911 0,0 1.89776,-3.79552 3.60574,-4.17507 1.70799,-0.37955 6.26261,1.89776 6.26261,1.89776 l 11.75753,4.04591 c 0,0 14.05202,-6.13345 18.2271,-5.75389 4.17507,0.37955 4.36485,3.41597 4.36485,3.41597 0,0 -2.27731,0.94888 -3.2262,1.5182 -0.94888,0.56933 -20.08174,0.99248 -20.08174,0.99248 z"
         id="path91"
         inkscape:connector-curvature="0"
         style="fill:#fed501" />
      <path
         d="m 261.75213,146.32213 c 0,0 -3.32471,-3.75416 -0.89701,-6.37163 2.4277,-2.61748 36.97353,-1.77891 38.68151,-0.2607 1.70799,1.51821 0.66324,5.24084 0.66324,5.24084 0,0 -1.89776,-0.7591 -4.17508,-0.94888 -2.27731,-0.18977 -6.45239,3.79552 -6.45239,3.79552 0,0 -14.42298,1.70799 -15.18208,1.32844 -0.75911,-0.37955 -2.46709,-5.12396 -5.50351,-5.12396 -3.03642,0 -7.13468,2.34037 -7.13468,2.34037 z"
         id="path93"
         inkscape:connector-curvature="0"
         style="fill:#fed501" />
      <path
         d="m 260.95074,150.58908 c 1.04377,1.04377 7.91328,-0.8379 9.21281,-0.72443 l 19.65908,1.71658 c 4.52865,0.39543 7.44527,-2.06177 8.96348,-2.25155 1.51821,-0.18978 0.22126,-5.69033 -3.63929,-5.76125 -3.8625,-0.071 -25.37738,-0.006 -29.63672,0.13612 -4.26111,0.14184 -5.60313,5.84076 -4.55936,6.88453 z"
         id="path95"
         inkscape:connector-curvature="0"
         style="fill:#fed501" />
      <path
         d="m 260.63213,144.22765 c 0,0 1.20564,-2.48221 2.76589,-2.62405 1.56025,-0.14184 33.04886,-0.49645 34.18359,-0.0709 1.13472,0.42552 2.62405,2.90773 2.62405,2.90773"
         id="path97"
         inkscape:connector-curvature="0"
         style="fill:none;fill-opacity:0.75" />
      <path
         d="m 266.8252,127.20367 c 0,0 -0.37955,-0.56933 -1.32843,-2.46709 -0.94888,-1.89776 -1.32843,-5.31373 -1.32843,-5.31373 0,0 4.17507,-0.94888 5.88306,0.18978 1.70798,1.13865 10.24791,10.81724 10.24791,10.81724 0,0 7.21149,-8.7297 9.29903,-10.43769 2.08753,-1.70798 6.07283,-0.18978 6.07283,-0.18978 0,0 -0.94888,5.88306 -2.65686,7.59105 -1.70799,1.70798 -13.85366,14.23321 -13.85366,14.23321 L 266.8252,127.20367 Z"
         id="path99"
         inkscape:connector-curvature="0"
         style="fill:#fed501" />
      <path
         d="m 278.21177,128.15255 c 0,0 0,-11.57634 -0.18978,-13.85365 -0.18977,-2.27732 2.27732,-3.41597 2.27732,-3.41597 0,0 1.89776,1.70798 1.70798,3.79552 -0.18977,2.08754 0,14.99231 0,14.99231 l -3.79552,-1.51821 z"
         id="path101"
         inkscape:connector-curvature="0"
         style="fill:#fed501" />
      <path
         d="m 258.14992,137.4193 c 0.3546,-0.0709 3.54601,-1.84393 5.46086,-1.56025 1.91485,0.28368 32.55242,-0.0709 33.89991,0.0709 1.34748,0.14184 4.39706,1.27657 4.39706,1.27657 m -40.92102,13.33301 c 1.27657,-1.56024 2.12761,-3.12049 4.1843,-3.68785 2.05669,-0.56736 29.57377,-0.92197 30.49573,-0.63828 0.92197,0.28368 3.33326,2.62405 3.33326,2.62405"
         id="path103"
         inkscape:connector-curvature="0"
         style="fill:none;fill-opacity:0.75" />
      <path
         d="m 264.90151,134.8033 c -2.08754,-1.5182 -6.80601,-4.75299 -6.80601,-4.75299 0,0 3.2262,-1.5182 5.88306,-0.94888 2.65687,0.56933 15.94119,10.08407 15.94119,10.08407 0,0 12.52523,-9.32496 15.37187,-10.08407 2.84664,-0.7591 6.07283,1.51821 6.07283,1.51821 0,0 -5.17565,2.97597 -6.88364,5.06351 -1.70798,2.08753 -14.61276,13.01708 -14.61276,13.01708 0,0 -12.879,-12.37872 -14.96654,-13.89693 z"
         id="path105"
         inkscape:connector-curvature="0"
         style="fill:#fed501" />
      <path
         d="m 276.69356,137.26181 c 0,0 -3.60575,-17.26963 -3.79552,-19.73672 -0.18978,-2.46709 0.56933,-5.50351 0.56933,-5.50351 0,0 3.22619,1.70799 3.9853,3.79553 0.7591,2.08753 3.22619,14.99231 3.22619,14.99231 0,0 1.13866,-13.47411 2.08754,-15.18209 0.94888,-1.70798 4.17507,-3.41597 4.17507,-3.41597 0,0 0.94888,3.60575 0.37955,5.69328 -0.56933,2.08754 -5.31373,19.92649 -5.31373,19.92649 l -5.31373,-0.56932 z"
         id="path107"
         inkscape:connector-curvature="0"
         style="fill:#fed501" />
      <path
         d="m 260.13569,129.47622 c 0,0 2.83681,1.13473 4.32614,2.48221 1.48932,1.34749 15.10602,13.2621 15.10602,13.2621 0,0 13.40394,-12.76565 14.82235,-13.33302 1.4184,-0.56736 6.59558,-1.27656 6.59558,-1.27656"
         id="path109"
         inkscape:connector-curvature="0"
         style="fill:none;fill-opacity:0.75" />
      <path
         d="m 263.78879,127.773 15.75141,15.94119 c 0,0 12.90478,-12.52522 14.80254,-14.80253 1.89776,-2.27732 3.9853,-4.74441 3.9853,-4.74441 0,0 -6.45239,0.75911 -8.53993,2.65687 -2.08754,1.89776 -9.67858,10.81724 -9.67858,10.81724 0,0 -9.29903,-9.48881 -11.19679,-11.76612 -1.89776,-2.27731 -7.59104,-1.51821 -7.59104,-1.51821 0,0 1.5182,2.08754 2.46709,3.41597 z"
         id="path111"
         inkscape:connector-curvature="0"
         style="fill:#fed501" />
      <path
         d="m 262.08669,124.19417 17.64329,16.48361 16.48557,-16.0351"
         id="path113"
         inkscape:connector-curvature="0"
         style="fill:none" />
      <path
         d="m 280.67886,133.46628 c 0,0 -10.24792,-11.76612 -11.57635,-14.23321 -1.32843,-2.46709 -0.94887,-4.17507 -0.94887,-4.17507 0,0 2.65686,-0.56933 4.17507,1.13866 1.51821,1.70798 8.16037,11.38656 8.16037,11.38656 0,0 5.69329,-9.4888 7.02172,-10.81723 1.32843,-1.32844 4.36485,-1.70799 4.36485,-1.70799 0,0 -0.18978,2.46709 -1.70799,5.12396 -1.5182,2.65686 -9.4888,13.28432 -9.4888,13.28432 z"
         id="path115"
         inkscape:connector-curvature="0"
         style="fill:#fed501" />
      <path
         d="m 268.53319,115.43755 11.76612,14.61276 11.19679,-14.80253"
         id="path117"
         inkscape:connector-curvature="0"
         style="fill:none" />
      <path
         d="m 280.20613,111.10786 0.21277,18.58112 m -6.73743,-17.30455 6.87927,18.79388 6.17006,-18.36836"
         id="path119"
         inkscape:connector-curvature="0"
         style="fill:none;fill-opacity:0.75" />
      <path
         d="m 264.88735,119.76014 15.0351,17.23364 15.10603,-17.0918"
         id="path121"
         inkscape:connector-curvature="0"
         style="fill:none;fill-opacity:0.75" />
      <path
         d="m 268.34341,172.56016 23.72202,0 -0.75911,-9.67858 -22.01403,0 -0.94888,9.67858 z"
         id="path123"
         inkscape:connector-curvature="0"
         style="fill:#fed501" />
      <path
         d="m 279.52345,172.80853 12.12182,-5.33937 m -22.80057,0.72154 9.95721,-5.19507"
         id="path125"
         inkscape:connector-curvature="0"
         style="fill:none;fill-opacity:0.75" />
    </g>
    <use
       id="b"
       width="744.09448"
       height="1052.3622"
       transform="translate(46.17837,0)"
       xlink:href="#a"
       x="0"
       y="0" />
    <use
       width="744.09448"
       height="1052.3622"
       transform="translate(45.60114,-0.288615)"
       xlink:href="#b"
       id="use128"
       x="0"
       y="0" />
    <path
       d="m 240.94489,31.889742 166.53543,0 0,70.866138 -166.53543,0 z"
       id="path130"
       inkscape:connector-curvature="0"
       style="fill:#fdd401;fill-rule:evenodd" />
    <path
       d="M 375.3884,93.563425"
       id="path132"
       inkscape:connector-curvature="0"
       style="fill:#0139ab;fill-rule:evenodd" />
    <path
       d="m 345.47193,37.303878 c 0,0 -13.56489,-0.865844 -15.5852,0 -2.0203,0.865845 -2.30891,3.751993 -4.32922,3.751993 -2.0203,0 -8.94706,-0.57723 -10.67875,-0.288615 -1.73169,0.288615 -5.48368,2.308918 -5.48368,5.195067 0,2.886148 0.72114,7.807581 11.25598,8.081214 11.11167,0.288615 30.01594,-6.926755 30.01594,-6.926755 l 0.28862,2.886148 c 0,0 4.32922,-4.906452 6.63814,-5.195067 2.30891,-0.288615 4.61783,1.15446 3.75199,2.308919 -0.86585,1.154459 -1.73169,2.020303 -1.73169,2.020303 0,0 5.19507,-1.443074 5.19507,-3.174762 0,-1.731689 -1.15446,-2.020304 -1.15446,-2.020304 0,0 3.17476,0.288615 4.32922,0 1.15446,-0.288615 2.30892,1.443074 1.73169,2.597533 -0.57723,1.154459 -1.73169,2.886148 -1.73169,2.886148 0,0 5.19507,-1.443074 4.61784,-2.886148 -0.57723,-1.443074 -0.57723,-2.308918 -0.57723,-2.308918 0,0 4.61783,-0.865845 5.48368,0.577229 0.86584,1.443074 -2.02031,8.658445 -2.02031,8.658445 0,0 1.73169,-4.617837 5.48369,-5.483682 3.75199,-0.865844 5.77229,-1.731689 8.08121,-0.288615 2.30892,1.443074 10.10151,4.617837 9.8129,8.658445 0,2.020304 -3.46337,3.751992 -8.94705,4.040607 -5.48369,0.288615 -23.3778,-4.040607 -36.07686,-4.040607 -12.69905,0 -18.47134,2.308918 -26.55256,2.886148 -8.08121,0.57723 -51.08482,0 -51.08482,0 0,0 -10.67875,-3.751993 -12.69905,-7.503985 -2.02031,-3.751993 2.59753,-7.7926 2.59753,-7.7926 l -1.73169,-1.443074 -2.0203,1.443074 c 0,0 1.73169,-4.329222 -1.73169,-4.329222 -3.46338,0 -3.17476,4.329222 -3.17476,4.329222 0,0 -2.30892,-4.329222 -3.752,-4.617837 -1.44307,-0.288615 -2.30892,4.617837 -2.30892,4.617837 0,0 4.04061,1.443074 3.752,3.463378 -0.28862,2.020303 -5.19507,2.020303 -5.19507,2.020303 0,0 -0.28861,3.751993 0.86584,4.617837 1.15446,0.865845 3.46338,-2.308918 4.61784,-2.020303 1.15446,0.288614 0.86585,9.524289 0.86585,9.524289 l 1.73168,-2.020304 0.28862,8.081215 1.73169,-4.040608 0.28861,8.94706 6.34953,-4.329223 -2.88615,9.524289 4.04061,-4.040607 0,5.772296 21.93472,-4.617837 -2.30891,4.040607 c 0,0 -5.7723,4.906452 -11.83321,5.483682 -6.06091,0.57723 -10.67875,1.154459 -13.5649,0.865844 -2.88615,-0.288614 -5.77229,-5.483681 -6.92675,-5.195066 -1.15446,0.288615 0.86584,3.174763 -0.28862,4.617837 -1.15446,1.443074 -5.77229,2.597533 -4.32922,3.463378 1.44307,0.865844 6.34953,0.577229 6.34953,2.020303 0,1.443074 -3.17477,3.463378 -0.86585,4.617837 2.30892,1.15446 5.19507,-3.463378 5.7723,-2.308918 0.57723,1.154459 -0.57723,3.751992 1.73169,3.751992 2.30891,0 2.30891,-3.174763 2.30891,-3.174763 l 11.25598,3.463378 -2.59753,-4.329222 c 0,0 3.75199,2.308918 5.48368,2.886148 1.73169,0.57723 4.32922,0.57723 4.32922,0.57723 l -3.46337,-4.617837 7.50398,4.040607 -1.73169,-4.617837 6.34953,3.751993 -1.15446,-4.040608 c 0,0 2.59753,2.308919 4.61784,2.308919 2.0203,0 3.17476,-1.731689 3.17476,-1.731689 l -2.02031,-2.597533 c 0,0 2.30892,1.443074 5.19507,1.731688 2.88615,0.288615 7.50399,-1.731688 7.50399,-1.731688 l -5.48369,-1.731689 5.19507,-1.731689 -2.59753,-1.731689 3.75199,-6.349526 c 0,0 1.44307,0.288615 6.63814,0 5.19507,-0.288615 21.64611,-11.255978 28.57287,-10.967363 6.92675,0.288615 19.62581,13.564896 25.3981,13.276281 5.7723,-0.288614 16.45105,-1.154459 16.45105,-1.154459 0,0 -1.73169,3.463378 -2.59754,5.195067 -0.86584,1.731689 -0.86584,4.040607 -0.86584,4.040607 l -5.48368,-0.865844 c 0,0 0.28861,-1.154459 -2.02031,-1.154459 -2.30892,0 -1.15446,4.329222 -1.15446,4.329222 0,0 -1.73168,2.886148 -0.28861,3.174763 1.44307,0.288615 3.46338,-2.020304 4.61784,-0.865845 1.15446,1.15446 -0.57723,3.463378 1.15446,3.751993 1.73168,0.288615 0.86584,-4.329222 3.17476,-4.040608 2.30892,0.288615 3.46338,3.174763 4.90645,2.886149 1.44307,-0.288615 2.0203,-2.886149 2.0203,-2.886149 0,0 -2.0203,-0.865844 -2.0203,-2.308918 0,-1.443074 2.30892,-5.195067 3.75199,-5.195067 1.44308,0 1.15446,2.886148 1.15446,2.886148 l 1.44308,-3.174763 1.73169,0.57723 -2.30892,-4.329222 4.90645,0.57723 -2.88615,-3.174763 3.17476,-0.288615 c 0,0 -2.30892,-1.15446 -2.30892,-2.886148 0,-1.731689 0.86585,-4.329223 0.86585,-4.329223 0,0 -6.34953,2.308919 -12.98767,0.57723 -6.63814,-1.731689 -15.00797,-9.812904 -15.00797,-9.812904 0,0 15.29659,2.597534 19.62581,2.308919 4.32922,-0.288615 9.8129,-0.57723 10.67875,-4.040608 0.86584,-3.463377 -5.19507,-12.987666 -5.19507,-12.987666 l 0,3.751992 c 0,0 -5.7723,-6.060911 -25.10949,-7.503985 -19.33719,-1.443074 -33.76793,11.544593 -50.50759,10.101519 -15.00797,-1.731689 -8.36983,-10.678749 -0.86585,-9.812904 4.61784,0.57723 11.83321,3.174763 15.29659,3.174763 3.46338,0 9.23567,-3.751993 10.39013,-8.081215 z"
       id="path134"
       inkscape:connector-curvature="0"
       style="fill:#d4170f;fill-rule:evenodd" />
    <path
       d="m 357.30514,65.876745 c -2.0203,0.288615 -24.24365,0.865844 -25.10949,9.235674 -0.86585,8.369829 8.94706,7.21537 8.94706,7.21537 l -0.28861,2.886148 c 0,0 -6.34953,1.15446 -10.10152,1.15446 -3.75199,0 -3.46338,-4.329223 -5.48368,-4.906452 -2.02031,-0.57723 -2.59754,3.174763 -2.59754,3.174763 l -3.17476,0.288615 0.28862,3.174763 2.0203,1.154459 0.28861,2.308918 1.73169,2.597534 2.59754,-1.443074 0.86584,3.751992 c 0,0 0.86584,-0.865844 2.0203,-1.154459 1.15446,-0.288615 2.02031,1.443074 2.02031,1.443074 0,0 -0.28862,-3.751993 3.17476,-4.040607 3.46338,-0.288615 5.7723,3.751992 5.7723,3.751992 l 0,-4.040607 3.17476,3.174763 0.57723,-4.329223 3.75199,3.751993 0.86585,-3.751993 2.0203,1.731689 0,-3.751992 6.34953,3.174763 0.86584,-3.751993 5.19507,1.443074 -1.73169,-1.731689 5.48368,0 c 0,0 -2.0203,-4.617837 -3.75199,-6.349526 -1.73169,-1.731688 -10.96737,-4.617837 -11.25598,-7.21537 -0.28862,-2.597533 5.48368,-8.947059 5.48368,-8.947059 z"
       id="path136"
       inkscape:connector-curvature="0"
       style="fill:#d4170f;fill-rule:evenodd" />
    <path
       d="m 281.68806,52.023234 c -1.15446,0 -12.41044,10.678748 -13.85351,12.699052 -1.44308,2.020303 -0.57723,5.195066 -0.57723,5.195066 l 4.90645,-4.906452 c 0,0 -1.44307,2.886148 -1.44307,5.195067 0,2.308919 0.86584,4.906452 0.86584,4.906452 l 2.59753,-6.349526 0,11.255978 3.752,-5.483682 -2.30892,10.967363 4.90645,-8.081215 c 0,0 -2.59753,3.751993 -1.44307,6.349526 1.15446,2.597534 2.0203,3.174763 2.0203,3.174763 l 2.30892,-9.524289 c 0,0 -0.28862,5.772297 0.86584,7.7926 1.15446,2.020304 3.17477,3.174763 3.17477,3.174763 0,0 0.28861,-3.751992 0.57723,-6.63814 0.28861,-2.886149 -0.57723,-5.195067 -0.57723,-5.195067 0,0 2.59753,3.463378 2.30891,5.483681 -0.28861,2.020304 -1.15445,4.617837 -1.15445,4.617837 0,0 3.17476,-3.174763 3.75199,-5.772296 0.57723,-2.597533 -0.57723,-4.906452 -0.57723,-4.906452 0,0 0.57723,5.483682 1.73169,6.926756 1.15446,1.443074 3.17476,3.174763 3.17476,3.174763 l 0,-9.812904 c 0,0 0.28861,5.483682 1.73169,6.926756 1.44307,1.443074 4.32922,1.443074 4.32922,1.443074 0,0 -2.30892,-4.040608 -2.59753,-7.503985 -0.28862,-3.463378 0.57723,-4.906452 0.57723,-4.906452 0,0 0.86584,4.617837 1.15446,6.349526 0.28861,1.731689 0.86584,3.751992 0.86584,3.751992 0,0 0.57723,-4.906452 0.86585,-6.926755 0.28861,-2.020304 -0.28862,-3.463378 -0.28862,-3.463378 0,0 2.59753,4.040607 2.0203,5.195067 -0.57723,1.154459 0,2.308918 0,2.308918 0,0 1.44308,-5.195067 1.44308,-7.503985 0,-2.308919 -1.44308,-4.329222 -1.44308,-4.329222 l 3.752,5.195066 c 0,0 1.15446,-4.906452 -0.57723,-9.524289 -1.73169,-4.617837 -10.67875,-9.812903 -10.67875,-9.812903 l -16.16243,-1.443074 z"
       id="path138"
       inkscape:connector-curvature="0"
       style="fill:#d4170f;fill-rule:evenodd;stroke:#fed501;stroke-width:0.875" />
    <path
       d="m 277.64745,45.673708 c 0,0 -3.17476,2.597533 -3.17476,5.772296 0,3.174763 2.0203,4.040607 2.0203,4.040607 l -1.15446,5.772297 2.02031,-1.15446 0.28861,5.772297 2.02031,-2.886148 0.86584,5.483681 2.0203,-2.020304 0,5.483682 2.02031,-2.597533 1.15446,2.886148 1.73169,-3.174763 1.73168,2.886148 1.44308,-2.886148 3.46338,0.865844 -0.57723,-1.731689 2.30892,0.288615 -0.86585,-4.617837 2.30892,3.174763 0.28861,-3.751993 2.59754,1.731689 c 0,0 1.73169,-7.503985 1.73169,-12.121822 0,-4.617837 -1.44308,-7.21537 -1.44308,-7.21537 l 2.88615,-4.329223 -4.90645,1.443075 -1.44308,-4.040608 -2.88614,2.308919 -0.86585,-1.731689 -1.15446,1.443074 -1.44307,-3.463378 -2.0203,3.463378 -3.17477,-2.308919 -0.57723,3.174763 -2.59753,-1.154459 -0.28862,2.886148 c 0,0 -4.32922,-3.174763 -5.77229,-3.174763 -1.44308,0 1.44307,5.483682 1.44307,5.483682 z"
       id="path140"
       inkscape:connector-curvature="0"
       style="fill:#d4170f;fill-rule:evenodd;stroke:#fed501;stroke-width:0.875" />
    <path
       d="m 279.66776,54.332152 c 2.0203,-0.577229 0.86584,5.195067 3.17476,5.772296 2.30892,0.57723 5.48368,-2.020303 5.48368,-2.020303 0,0 0.86584,2.886148 3.46338,2.597533 2.59753,-0.288615 4.04061,-6.060911 4.04061,-6.060911"
       id="path142"
       inkscape:connector-curvature="0"
       style="fill:none;stroke:#fed501;stroke-width:0.75" />
    <path
       d="m 284.28559,64.722286 c 0,0 2.93147,-3.720332 3.05048,-6.183098 0.11587,-2.39775 -1.5442,-2.651957 -1.52946,-3.667727 0.0148,-1.015769 0.67255,-1.374055 2.08561,-1.424113 1.4804,-0.05244 2.49795,0.604947 2.57015,1.615822 0.0674,0.943791 -2.13617,1.000671 -2.13617,3.598204 0,2.597534 3.17476,6.060912 3.17476,6.060912 0,0 -1.81806,-0.288615 -2.39529,0 -0.57723,0.288614 -1.06808,2.308918 -1.06808,2.308918 0,0 0.13483,-1.799103 -1.30825,-2.087718 -1.44307,-0.288614 -2.44375,-0.2212 -2.44375,-0.2212 z"
       id="path144"
       inkscape:connector-curvature="0"
       style="fill:#fed501;fill-rule:evenodd" />
    <path
       d="M 289.08769,62.72076"
       id="path146"
       inkscape:connector-curvature="0"
       style="fill:#0139ab;fill-rule:evenodd" />
    <path
       d="m 287.42255,46.869718 c -1.43671,1.209861 -2.5762,0.828036 -4.58003,-0.04155 -0.11342,0.983012 0.86584,4.329222 2.59753,4.040607 1.73169,-0.288614 1.9825,-3.999056 1.9825,-3.999056 z m -1.29053,2.045485 c 0,0.532188 -0.43192,0.964108 -0.96411,0.964108 -0.53219,0 -0.96411,-0.43192 -0.96411,-0.964108 0,-0.532187 0.43192,-0.964108 0.96411,-0.964108 0.53219,0 0.96411,0.431921 0.96411,0.964108 z m 4.4921,-1.819279 c 1.43671,1.209861 2.50058,0.147489 4.50441,-0.722098 0.11342,0.983012 -0.82803,4.820728 -2.55972,4.532113 -1.73169,-0.288614 -1.94469,-3.356317 -1.94469,-3.810015 z m 1.25272,1.856444 c 0,0.532188 0.43192,0.964108 0.96411,0.964108 0.53219,0 0.96411,-0.43192 0.96411,-0.964108 0,-0.532187 -0.43192,-0.964108 -0.96411,-0.964108 -0.53219,0 -0.96411,0.431921 -0.96411,0.964108 z"
       id="path148"
       inkscape:connector-curvature="0"
       style="fill:#fed501;fill-rule:evenodd" />
    <path
       d="m 306.16227,80.51352 c 0.21388,-0.427751 2.45957,-5.560754 2.45957,-5.560754 0,0 0.10693,3.101189 0.53468,2.566501 0.42775,-0.534687 1.49713,-3.849752 1.49713,-3.849752 0,0 1.49713,2.138751 1.92488,1.390188 0.42775,-0.748563 1.06937,-1.711001 1.06937,-1.711001 0,0 0.96244,2.780377 1.17631,2.031814 0.21388,-0.748563 1.06938,-2.459564 1.06938,-2.459564 0,0 1.39019,2.780377 1.39019,2.138751 0,-0.641625 0.42775,-2.673439 0.42775,-2.673439 l 1.06938,1.497126 1.81793,-2.459564 c 0,0 -0.21387,2.887314 0.21388,2.138751 0.42775,-0.748563 1.17631,-2.352626 1.17631,-2.352626 0,0 1.17632,1.817938 1.711,1.069375 0.53469,-0.748563 0.8555,-1.390188 0.8555,-1.390188 l 1.39019,0 0.96244,-1.604064 1.17631,1.283251 0.8555,-1.176313 m 18.5002,9.410506 c 4.49138,-0.106937 4.70526,-1.711001 4.70526,-1.711001 m -0.96244,3.315065 c 0,0 2.03181,-0.320813 2.78038,-1.390189 m 0,2.566502 c 2.78037,-0.106937 2.67344,-1.497126 2.67344,-1.497126 m 0.42775,2.352627 c 2.67344,0.641625 2.24569,-1.497126 2.24569,-1.497126 m -0.32082,3.742815 c 1.39019,-0.106938 1.60407,-1.817939 1.60407,-1.817939 m 11.977,-16.254511 c 3.52894,-0.641625 2.78038,-0.106938 2.78038,-0.106938 m -0.8555,1.924877 c 1.711,0.106937 2.78038,-1.283251 2.78038,-1.283251 m -0.74857,2.566502 c 1.81794,-0.213876 2.03182,-1.283251 2.03182,-1.283251 m 0.42775,2.352626 c 1.711,-0.213875 1.92487,-1.176313 1.92487,-1.176313 m 0.10694,2.138752 c 1.81794,-0.748563 1.49713,-1.283251 1.49713,-1.283251"
       id="path150"
       inkscape:connector-curvature="0"
       style="fill:none;stroke:#fed501;stroke-width:0.75" />
    <path
       d="m 344.15711,38.050718 c -6.34678,-0.807105 -7.33732,2.971616 -7.33732,2.971616 0,0 3.77872,-1.504152 4.1089,-1.137285 0.33018,0.366866 -0.73373,2.494689 -0.29349,2.274569 0.44024,-0.220119 3.0083,-2.017763 3.52191,-4.1089 z"
       id="path152"
       inkscape:connector-curvature="0"
       style="fill:#fed501;fill-rule:evenodd" />
    <path
       d="m 237.40157,28.346435 173.62205,0 0,177.165355 c 0,17.71653 -21.25984,17.71653 -85.03937,38.97638 -63.77953,-21.25985 -88.24206,-22.35232 -88.58268,-38.97638 l 0,-177.165355 z m 7.08662,7.086614 159.44882,0 0,170.078741 c 0,7.08661 -14.17323,10.62991 -77.95276,31.88976 -63.77953,-21.25985 -81.49606,-24.80315 -81.49606,-31.88976 l 0,-170.078741 z"
       id="path154"
       inkscape:connector-curvature="0"
       style="fill:#feffff;fill-rule:evenodd" />
  </g>
</svg>
