<?xml version="1.0" encoding="UTF-8" standalone="no"?>
<svg
   xmlns:dc="http://purl.org/dc/elements/1.1/"
   xmlns:cc="http://creativecommons.org/ns#"
   xmlns:rdf="http://www.w3.org/1999/02/22-rdf-syntax-ns#"
   xmlns:svg="http://www.w3.org/2000/svg"
   xmlns="http://www.w3.org/2000/svg"
   xmlns:sodipodi="http://sodipodi.sourceforge.net/DTD/sodipodi-0.dtd"
   xmlns:inkscape="http://www.inkscape.org/namespaces/inkscape"
   version="1.0"
   width="820"
   height="520"
   viewBox="0 0 615 390"
   id="svg2"
   inkscape:version="0.91 r13725"
   sodipodi:docname="Prewar_CAN_Flag_HOIRATIO.svg">
  <sodipodi:namedview
     pagecolor="#ffffff"
     bordercolor="#666666"
     borderopacity="1"
     objecttolerance="10"
     gridtolerance="10"
     guidetolerance="10"
     inkscape:pageopacity="0"
     inkscape:pageshadow="2"
     inkscape:window-width="1920"
     inkscape:window-height="1017"
     id="namedview68"
     showgrid="false"
     inkscape:zoom="1"
     inkscape:cx="613.95669"
     inkscape:cy="176.11959"
     inkscape:window-x="-8"
     inkscape:window-y="-8"
     inkscape:window-maximized="1"
     inkscape:current-layer="svg2"
     fit-margin-top="0"
     fit-margin-left="0"
     fit-margin-right="0"
     fit-margin-bottom="0" />
  <metadata
     id="metadata4">
    <rdf:RDF>
      <cc:Work
         rdf:about="">
        <dc:format>image/svg+xml</dc:format>
        <dc:type
           rdf:resource="http://purl.org/dc/dcmitype/StillImage" />
        <dc:title></dc:title>
      </cc:Work>
    </rdf:RDF>
  </metadata>
  <defs
     id="defs6">
    <clipPath
       id="t">
      <path
         d="m 30,15 30,0 0,15 z m 0,0 0,15 -30,0 z M 30,15 0,15 0,0 Z m 0,0 0,-15 30,0 z"
         id="path9"
         inkscape:connector-curvature="0" />
    </clipPath>
    <clipPath
       id="Field">
      <rect
         width="60"
         height="40"
         id="rect12"
         x="0"
         y="0" />
    </clipPath>
  </defs>
  <rect
     width="615"
     height="390"
     style="fill:#2163d1;fill-opacity:1;stroke:none"
     id="rect14"
     x="0"
     y="1.4210855e-014" />
  <rect
     width="307.5"
     height="390"
     x="153.75"
     style="fill:#ffffff;stroke:none"
     id="rect16"
     y="1.4210855e-014" />
  <g
     id="g4196"
     transform="translate(7.4999858,44.999996)">
    <path
       id="path18"
       d="m 295.68957,270.41682 8.62086,0 -1.74377,-58.81208 -4.26141,0.38768 -2.61568,58.4244 z"
       style="fill:#dd0000;fill-opacity:1;fill-rule:evenodd;stroke:none"
       inkscape:connector-curvature="0" />
    <path
       id="path20"
       d="m 300.54424,29.583177 -21.76375,51.96068 -9.52166,-10.473504 -0.68011,63.250937 -31.96553,-32.64565 -0.68012,12.92224 -35.78578,-7.43575 11.61883,36.63526 -13.64789,0.31729 46.29354,46.61082 -14.59976,14.32802 14.96259,17.68306 -2.72047,15.59716 43.52753,-10.83634 14.59976,-6.89227 19.13744,7.95799 40.39562,10.49628 -3.03776,-16.59456 15.27987,-17.41132 -14.96258,-13.69345 44.88777,-46.61082 -11.56201,-0.68012 10.7908,-37.63266 -35.18547,7.52684 -0.76968,-12.96778 -32.64565,32.64564 -0.45391,-62.253531 -9.74784,9.884478 -21.76378,-51.68894 z"
       style="fill:#dd0000;fill-opacity:1;fill-rule:evenodd;stroke:none"
       inkscape:connector-curvature="0" />
  </g>
</svg>
