<?xml version="1.0" encoding="UTF-8" standalone="no"?>
<svg
   xmlns:dc="http://purl.org/dc/elements/1.1/"
   xmlns:cc="http://creativecommons.org/ns#"
   xmlns:rdf="http://www.w3.org/1999/02/22-rdf-syntax-ns#"
   xmlns:svg="http://www.w3.org/2000/svg"
   xmlns="http://www.w3.org/2000/svg"
   xmlns:sodipodi="http://sodipodi.sourceforge.net/DTD/sodipodi-0.dtd"
   xmlns:inkscape="http://www.inkscape.org/namespaces/inkscape"
   version="1.1"
   id="Layer_1"
   x="0px"
   y="0px"
   viewBox="0 0 819.99996 520.00001"
   enable-background="new 0 0 2520.756 1659.428"
   xml:space="preserve"
   inkscape:version="0.91 r13725"
   sodipodi:docname="SSU.svg"
   width="820"
   height="520"><metadata
     id="metadata15"><rdf:RDF><cc:Work
         rdf:about=""><dc:format>image/svg+xml</dc:format><dc:type
           rdf:resource="http://purl.org/dc/dcmitype/StillImage" /><dc:title></dc:title></cc:Work></rdf:RDF></metadata><defs
     id="defs13" /><sodipodi:namedview
     pagecolor="#ffffff"
     bordercolor="#666666"
     borderopacity="1"
     objecttolerance="10"
     gridtolerance="10"
     guidetolerance="10"
     inkscape:pageopacity="0"
     inkscape:pageshadow="2"
     inkscape:window-width="1920"
     inkscape:window-height="1017"
     id="namedview11"
     showgrid="false"
     fit-margin-top="0"
     fit-margin-left="0"
     fit-margin-right="0"
     fit-margin-bottom="0"
     inkscape:zoom="0.75859813"
     inkscape:cx="659.9942"
     inkscape:cy="347.60715"
     inkscape:window-x="-8"
     inkscape:window-y="-8"
     inkscape:window-maximized="1"
     inkscape:current-layer="Layer_1"><sodipodi:guide
       position="0,0"
       orientation="0,820"
       id="guide4190" /><sodipodi:guide
       position="819.99996,0"
       orientation="-520,0"
       id="guide4192" /><sodipodi:guide
       position="819.99996,520.00001"
       orientation="0,-820"
       id="guide4194" /><sodipodi:guide
       position="0,520.00001"
       orientation="520,0"
       id="guide4196" /></sodipodi:namedview><rect
     style="opacity:1;fill:#e5ff80;fill-opacity:1;fill-rule:nonzero;stroke:none;stroke-width:1;stroke-linecap:round;stroke-linejoin:round;stroke-miterlimit:4;stroke-dasharray:8, 2, 1, 2;stroke-dashoffset:0;stroke-opacity:1"
     id="rect4202"
     width="820"
     height="392.13257"
     x="-3.0517578e-005"
     y="0" /><g
     id="g4182"
     transform="matrix(0.15931296,0,0,0.15931296,202.80731,77.80125)"><path
       id="path3"
       d="m 1542.599,29.761 c 3.8,-0.364 7.368,1.405 9.47,4.568 3.537,-1.607 7.348,-1.809 10.835,0.051 2.537,-0.92 5.205,-1.809 7.348,0.515 -0.172,1.152 -1.243,2.476 -0.101,3.497 1.314,0.152 2.658,0.263 4.023,0.334 0.425,1.112 0.738,2.335 1.607,3.234 1.193,0.091 2.406,0.03 3.639,0.01 0.01,-1.738 -0.03,-3.477 0.02,-5.215 2.193,0.091 4.427,0.172 6.661,0.172 1.334,-0.748 2.678,-1.476 4.164,-2.011 1.112,0.627 2.203,1.324 3.255,2.112 1.759,-0.283 3.548,-0.606 5.296,-1.092 4.154,1.253 8.803,-0.697 12.725,1.597 2.537,1.9 7.439,-1.092 7.894,3.164 1.698,-2.951 4.619,-5.448 8.187,-5.508 3.922,0.142 8.126,-1.152 11.674,1.142 0.01,-0.879 0.03,-2.648 0.03,-3.527 3.689,1.284 5.842,5.498 6.327,9.228 3.022,-2.001 2.921,-5.367 2.759,-8.581 2.133,1.728 3.911,3.881 4.568,6.62 4.488,-0.96 9.288,0.162 12.169,3.932 2.112,-0.98 6.246,-0.202 5.903,-3.598 3.629,2.264 6.903,-1.162 10.683,-0.344 0.02,0.718 0.071,2.163 0.091,2.881 3.366,0.697 7.105,0.93 9.743,3.447 2.254,-0.384 4.457,-1.031 6.742,-1.405 0.98,0.687 1.809,1.567 2.709,2.395 1.193,-0.141 2.416,-0.293 3.649,-0.445 0.03,-1.112 0.081,-3.345 0.111,-4.457 1.961,2.274 4.023,4.498 6.074,6.721 19.412,1.424 13.084,-2.486 21.64,5.114 3.851,-1.87 9.794,-2.224 11.957,2.304 2.365,-0.04 4.932,-0.687 7.176,0.495 2.062,0.96 4.346,2.052 6.549,0.677 3.618,1.749 7.864,2.901 9.784,6.832 4.498,-0.313 8.733,-2.032 13.19,-2.527 0.414,1.294 0.758,2.628 1.112,3.962 0.475,0.051 1.425,0.162 1.9,0.212 1.395,-1.223 2.648,-2.608 3.588,-4.245 4.552,1.379 4.379,0.633 4.124,7.489 2.769,3.083 7.065,1.678 10.703,2.062 0.607,0.809 1.243,1.678 1.84,2.557 0.708,-0.414 1.455,-0.798 2.244,-1.162 0.455,-1.021 0.92,-2.042 1.415,-3.062 5.134,-0.152 8.53,4.882 9.38,9.44 1.395,2.456 3.345,4.619 6.165,5.397 -1.183,-0.829 -2.416,-1.617 -3.568,-2.406 0.172,-1.486 0.374,-2.972 0.596,-4.447 4.478,-0.586 7.56,3.487 10.663,6.105 2.739,0.071 5.488,0.02 8.258,-0.01 1.193,1.294 2.426,2.577 3.679,3.851 4.589,0.718 8.237,3.709 11.168,7.146 2.123,0.061 4.286,-0.01 6.438,0.313 1.253,0.829 1.314,2.385 1.637,3.719 4.437,0.364 9.45,0.849 12.139,4.922 5.609,0.869 11.138,2.911 15.221,7.014 1.172,0.424 2.385,0.839 3.618,1.273 1.607,-0.829 3.345,-1.476 5.225,-1.364 0.354,1.092 0.738,2.183 1.152,3.275 0.576,0.081 1.738,0.253 2.314,0.334 1.425,1.476 3.042,2.759 4.821,3.821 0.596,0.03 1.779,0.111 2.365,0.141 0.404,0.495 1.213,1.476 1.617,1.971 2.628,0.323 6.469,-0.536 7.732,2.567 0.677,0.04 2.052,0.121 2.729,0.162 -0.162,0.748 -0.475,2.224 -0.637,2.961 0.617,0.283 1.87,0.849 2.486,1.132 1.253,-0.131 2.527,-0.222 3.841,-0.263 1.263,1.587 1.324,3.719 1.749,5.64 1.546,-0.081 3.113,-0.182 4.71,-0.293 0.354,-1.031 0.758,-2.072 1.152,-3.113 0.718,1.455 2.406,1.041 3.78,1.243 -1.86,4.154 -3.143,8.551 -3.74,13.059 2.628,-0.071 5.003,1.031 7.368,2.082 2.709,1.213 5.771,0.546 8.591,1.294 1.081,0.879 2.021,1.941 3.022,2.972 -0.849,0.02 -2.567,0.071 -3.416,0.091 -2.365,2.355 -3.639,5.448 -3.285,8.803 0.677,0.03 2.021,0.101 2.688,0.142 0.748,0.798 1.516,1.607 2.315,2.406 0.249,3.177 0.369,3.203 1.395,6.368 1.364,0.677 2.759,1.354 4.184,2.011 1.567,0.222 3.467,-0.03 4.599,1.415 -0.718,1.88 -2.406,3.618 -1.86,5.771 5.131,3.461 10.3,-0.134 11.128,9.976 1.496,2.577 3.214,5.023 5.094,7.348 0.728,0.02 2.173,0.081 2.901,0.101 -0.01,2.254 -0.01,4.508 0.01,6.772 1.011,0.819 2.031,1.647 3.093,2.486 -0.748,1.385 -1.627,3.012 -0.829,4.599 3.072,2.8 7.793,3.598 10.006,7.358 -1.122,2.102 -4.356,1.405 -6.408,2.133 0.263,2.426 0.859,4.801 1.698,7.105 0.01,-1.354 -0.03,-2.699 0.01,-4.033 0.708,0.091 2.112,0.263 2.82,0.354 1.759,3.214 1.203,6.974 -0.182,10.218 0.687,0.111 2.052,0.313 2.739,0.414 0.849,1.981 0.576,5.367 3.265,5.822 4.342,0.642 2.785,5.865 9.258,12.189 1.172,0.03 2.385,0.061 3.628,0.111 -0.192,3.255 -0.232,6.529 -0.566,9.774 1.425,0.637 2.85,1.304 4.306,1.991 -1.193,1.405 -1.789,3.083 -1.698,4.922 2.214,0.788 3.831,2.517 5.458,4.144 1.243,0.424 2.486,0.889 3.74,1.405 -1.061,1.91 -0.93,4.104 -0.95,6.206 2.132,-0.546 4.316,-1.172 6.479,-1.728 -0.081,0.566 -0.243,1.708 -0.323,2.284 -0.809,1.081 -1.587,2.193 -2.304,3.305 -1.718,1.223 -4.063,2.284 -4.134,4.75 1.9,0.111 4.104,0.293 6.095,0.556 -0.566,0.222 -1.688,0.677 -2.244,0.9 0.798,0.091 2.405,0.273 3.204,0.364 -0.182,0.566 -0.536,1.698 -0.718,2.264 1.738,0.313 3.608,1.597 5.407,0.849 0.576,-0.991 1.132,-2.011 1.648,-3.052 0.97,-0.081 2.901,-0.243 3.861,-0.323 -0.525,4.548 -0.424,9.137 -0.626,13.695 0.707,1.132 2.042,1.071 3.255,1.203 2.507,-2.972 5.145,-6.196 8.793,-7.803 0.92,1.708 -1.001,3.77 -1.233,5.559 3.77,-1.89 7.358,-4.831 8.015,-9.268 0.879,0.192 1.779,0.394 2.709,0.596 -1.092,1.324 -2.224,2.598 -3.406,3.8 0.255,7.972 6.792,3.801 9.612,2.79 0.051,-2.749 0.101,-5.478 0.152,-8.217 1.647,0.344 3.335,0.697 5.043,1.051 0.05,1.122 0.131,2.254 0.243,3.386 2.021,-0.02 4.053,0.283 6.034,0.839 3.224,0.97 5.943,-1.637 9.056,-1.961 1.94,-0.182 3.153,-1.86 4.528,-3.073 0.253,-1.557 0.617,-3.093 1.324,-4.518 0.576,0.485 1.718,1.455 2.294,1.941 -0.809,2.881 -1.536,5.781 -2.102,8.723 -0.435,0.394 -1.314,1.193 -1.749,1.597 -0.122,1.213 -0.212,2.426 -0.273,3.649 1.829,-0.051 3.689,-0.101 5.569,-0.152 0.172,-0.495 0.505,-1.476 0.667,-1.971 2.587,-0.334 5.226,-0.111 7.853,-0.061 0.415,0.566 1.233,1.698 1.637,2.274 2.961,-0.96 5.438,-2.891 7.489,-5.215 2.072,-2.426 5.438,-3.123 7.631,-5.438 13.94,-13.616 13.035,-7.352 17.859,-13.796 3.517,-0.111 7.065,-0.424 10.481,-1.435 1.577,-1.526 3.174,-3.265 5.438,-3.76 1.324,0.303 2.699,0.768 4.053,1.193 -1.233,0.192 -2.446,0.374 -3.628,0.556 -0.142,1.809 -0.243,3.608 -0.313,5.417 4.922,0.414 9.723,-0.839 14.605,-1.273 0.909,-1.122 2.082,-1.809 3.517,-2.092 -1.779,2.608 -4.508,4.215 -7.085,5.882 0.121,1.951 0.586,3.861 1.314,5.69 4.346,-0.273 9.046,0.778 13.099,-1.273 0.869,4.306 8.217,4.447 9.026,0.323 4.225,1.698 9.895,4.265 13.332,-0.243 1.466,0.01 2.961,0.04 4.488,0.081 1.387,4.126 -2.07,3.393 10.592,4.922 -0.799,-1.405 -1.951,-2.345 -3.467,-2.83 -0.051,-0.455 -0.162,-1.364 -0.213,-1.819 3.588,-3.103 8.531,0.455 10.673,3.73 0.556,1.617 2.042,0.657 3.244,0.414 3.083,-1.172 6.398,1.041 9.501,-0.232 1.981,-0.667 4.073,-0.697 6.185,-0.495 0.617,2.931 3.356,2.385 5.691,2.274 -0.627,1.375 -1.163,2.759 -1.708,4.144 13.928,1.699 8.968,-2.754 17.758,-0.061 -0.172,1.445 -0.313,2.891 -0.414,4.346 0.809,-0.101 2.426,-0.293 3.244,-0.384 0.192,-0.97 0.404,-1.951 0.657,-2.911 1.446,-0.091 2.901,-0.172 4.407,-0.243 -0.253,5.377 5.286,8.46 10.097,8.005 0.232,0.475 0.707,1.435 0.94,1.91 2.557,0.536 4.296,2.567 6.196,4.215 3.619,-0.586 7.247,2.406 10.673,0.414 0.798,0.869 1.637,1.749 2.507,2.628 6.428,-1.041 11.613,3.861 17.96,3.77 0.091,0.586 0.263,1.769 0.344,2.365 1.546,1.001 3.103,1.991 4.69,2.992 1.819,-2.102 1.991,-4.953 2.486,-7.57 5.04,-32.811 -9.364,-45.706 0.495,-43.896 3.002,0.809 5.053,3.325 6.802,5.741 14.363,20.196 12.588,19.081 18.557,39.044 0.566,9.157 3.083,18.092 3.073,27.32 0.869,8.328 0.344,16.707 0.97,25.056 2.507,-0.04 5.013,-0.455 7.348,-1.496 1.577,2.385 4.346,1.981 6.863,2.173 1.789,0.293 1.213,2.577 1.627,3.891 2.981,2.092 4.053,5.67 5.72,8.743 -1.93,0.202 -1.87,1.941 -2.031,3.376 -0.566,0.192 -1.718,0.576 -2.294,0.768 -0.02,0.617 -0.071,1.85 -0.101,2.466 1.425,1.415 2.85,2.85 4.326,4.255 2.618,-0.212 4.194,1.92 3.942,4.427 2.375,-0.01 4.71,-0.546 6.984,-1.324 -0.364,1.344 -0.819,2.668 -1.263,3.982 1.041,-0.121 3.113,-0.354 4.154,-0.475 -0.384,3.942 -4.366,5.953 -5.276,9.693 2.406,-0.323 4.852,-0.566 7.318,-0.526 0.323,1.102 0.677,2.214 1.082,3.325 1.213,0.273 3.952,-1.314 4.296,0.809 0.667,3.719 -0.536,7.56 -0.364,11.34 0.647,0.253 1.93,0.758 2.577,1.021 0.697,-0.081 2.102,-0.232 2.8,-0.303 1.011,1.759 1.324,3.719 1.112,5.751 1.87,-1.092 3.912,-1.789 6.145,-1.749 0.02,1.395 0.071,2.81 0.141,4.225 1.86,-1.486 4.316,-1.172 6.58,-1.253 1.173,1.506 2.87,1.86 4.619,1.092 0.99,2.042 3.002,2.86 5.125,3.366 -0.03,2.193 -0.202,4.387 -0.556,6.56 2.375,1.314 4.659,2.81 6.893,4.397 2.011,0.02 4.043,0.04 6.105,0.03 0.708,-0.728 1.556,-1.284 2.537,-1.658 0.556,1.668 0.798,3.416 0.92,5.195 -0.617,1.142 -1.193,2.304 -1.718,3.467 2.547,0 5.134,0 7.732,0.01 0.041,0.485 0.121,1.466 0.162,1.951 -2.618,1.405 -5.296,2.689 -7.904,4.073 1.789,0.738 3.719,1.021 5.69,1.203 0.03,0.92 0.101,2.759 0.131,3.669 -0.445,0.283 -1.334,0.849 -1.779,1.122 2.557,-0.081 4.346,1.445 5.276,3.74 -2.678,-1.031 -5.306,-2.213 -7.975,-3.174 -0.364,3.77 3.164,5.842 6.014,7.398 3.628,0.273 7.166,1.294 10.835,1.395 -0.334,1.021 -0.172,2.709 -1.617,2.82 -2.264,0.809 -4.538,1.567 -6.731,2.426 0.576,0.809 1.203,1.617 1.849,2.426 -0.091,0.92 -0.141,1.85 -0.151,2.79 -1.526,0.708 -2.325,2.092 -2.971,3.538 -2.173,0.323 -4.346,0.657 -6.459,1.081 1.88,3.123 5.175,5.023 8.278,6.792 3.375,0.728 6.65,-0.869 9.996,-1.203 0.465,0.384 1.375,1.142 1.84,1.526 1.89,-0.93 3.881,-1.698 5.963,-2.224 0.03,-0.303 0.101,-0.91 0.132,-1.203 1.374,-1.88 2.911,-3.73 4.932,-4.983 1.173,3.366 -1.738,5.498 -4.477,6.539 -2.577,3.598 -5.68,6.762 -8.288,10.33 -2.365,0.03 -4.7,0.212 -6.994,0.566 0.475,0.788 0.98,1.587 1.516,2.395 -0.677,0.9 -1.314,1.819 -1.92,2.749 1.476,-0.071 2.982,-0.152 4.508,-0.222 -1.627,1.557 -1.85,3.679 -1.799,5.781 -1.223,2.244 -2.638,4.376 -4.094,6.458 2.83,1.334 5.205,-1.041 7.803,-1.88 1.799,-0.243 3.628,-0.162 5.508,-0.192 -0.051,1.233 -0.051,2.466 -0.051,3.709 -4.397,0.667 -8.45,3.467 -10.572,7.368 2.375,0.131 5.195,-0.687 7.034,1.365 -1.496,1.051 -2.921,2.102 -4.386,3.143 -0.172,2.678 -0.364,5.367 -0.586,8.055 0.718,-0.152 2.143,-0.465 2.85,-0.617 0.224,5.022 -3.652,6.976 -13.099,16.212 0.445,0.819 0.92,1.648 1.425,2.476 -1.092,2.618 -1.941,5.326 -2.456,8.116 1.304,0.03 2.648,0.091 4.023,0.172 1.637,2.183 4.568,2.507 6.893,3.699 -0.101,0.708 -0.293,2.112 -0.394,2.81 1.769,0.657 3.548,1.324 5.357,1.981 1.375,3.356 3.538,6.398 4.356,9.986 0.526,2.294 1.415,4.548 2.881,6.438 -2.123,-1.152 -4.831,-1.769 -5.872,-4.174 -3.557,-7.522 -8.375,-10.664 -15.181,-5.448 -2.052,1.344 -1.92,4.023 -2.507,6.125 0.596,1.193 1.203,2.436 1.971,3.598 1.607,0.647 3.396,0.849 5.135,1.253 -1.162,5.205 -8.015,2.446 -10.521,5.377 l 0.485,0.869 c 0.465,0.182 1.405,0.526 1.87,0.697 -0.03,1.203 -0.02,2.416 0.02,3.639 -3.315,1.162 -6.62,2.315 -9.824,3.689 -0.081,1.375 -0.182,2.739 -0.202,4.124 -1.607,0.94 -3.335,1.91 -3.568,3.952 2.193,0.798 4.387,1.698 6.57,2.628 0.283,1.617 0.556,3.224 0.899,4.862 3.679,-1.718 7.742,-0.768 11.482,0.253 -0.576,4.296 -7.297,4.599 -7.398,9.491 1.9,1.769 4.589,2.699 6.206,4.75 0.192,3.295 -2.891,5.094 -5.478,6.236 1.92,2.779 3.103,6.074 5.478,8.551 -1.991,0.556 -3.699,1.658 -5.165,3.042 -1.233,0.02 -2.456,0.03 -3.628,0.051 -1.668,2.739 -3.355,5.478 -4.75,8.359 1.819,-0.465 3.679,-0.94 5.559,-1.435 -0.061,0.97 -0.172,2.901 -0.232,3.871 -5.569,3.305 -12.634,4.356 -16.728,9.763 2.133,-0.05 4.376,-0.495 5.913,-2.163 0.515,-0.081 1.536,-0.253 2.052,-0.333 -4.797,10.988 -13.689,5.811 -18.425,11.007 2.971,1.183 6.034,2.234 9.228,2.729 -1.213,0.425 -2.395,0.889 -3.537,1.385 -3.669,0.273 -7.398,0.051 -10.956,1.001 19.656,4.168 20.25,-1.075 23.873,-4.326 -1.466,4.811 -5.802,7.833 -10.451,9.147 2.607,1.152 5.438,2.011 8.348,1.466 2.81,-1.678 5.145,-4.033 7.843,-5.893 0.708,4.639 -2.951,8.015 -5.579,11.32 3.81,-1.152 7.014,-3.608 10.713,-5.033 -0.162,1.051 -0.293,2.102 -0.384,3.174 -16.071,14.274 -11.987,8.668 -20.862,14.352 2.335,0.182 4.771,0.273 7.166,0.293 -0.111,0.414 -0.344,1.243 -0.465,1.658 -3.393,1.696 -6.117,3.839 -10.572,3.487 1.86,0.323 3.699,0.677 5.599,1.041 0.071,0.91 0.202,2.719 0.273,3.628 -1.94,0.475 -3.022,1.85 -3.275,3.8 -0.526,0.152 -1.577,0.465 -2.102,0.617 0.05,1.183 0.151,2.375 0.293,3.578 2.79,1.061 5.66,1.9 8.601,2.577 0.536,1.708 1.021,3.386 1.587,5.134 -1.829,0.141 -4.124,-1.688 -5.559,-0.606 1.132,1.698 3.052,2.507 5.104,2.476 2.345,1.617 3.982,5.165 7.277,4.74 4.781,-0.465 9.188,1.698 13.806,2.557 -1.769,0.96 -3.477,1.991 -5.155,3.022 1.233,2.395 1.233,5.529 -0.91,7.429 -3.305,3.285 -8.439,0.809 -11.815,4.013 1.365,1.284 1.223,2.628 -0.01,3.911 1.9,1.728 1.001,4.68 1.324,6.994 -1.405,2.587 -0.849,5.529 -0.768,8.328 3.639,1.617 7.055,3.73 10.087,6.347 -3.487,-0.95 -5.741,2.244 -6.064,5.347 -2.102,2.183 -1.344,5.296 -2.598,7.752 -5.66,4.366 -13.736,3.073 -19.224,7.722 2.537,0.04 5.064,-0.606 7.641,-0.667 -1.284,2.031 -2.557,4.063 -3.811,6.095 -1.203,0.051 -2.375,0.121 -3.517,0.202 -0.091,1.425 -0.152,2.87 -0.192,4.326 1.769,1.122 3.629,2.173 5.256,3.568 -0.283,2.85 -3.244,4.568 -5.781,5.195 0.455,0.829 0.94,1.668 1.466,2.527 -1.041,1.637 -2.072,3.275 -3.063,4.932 0.778,0.313 2.355,0.94 3.144,1.263 -1.334,2.507 -3.629,4.215 -5.832,5.882 2.678,1.749 4.437,4.296 5.145,7.429 -0.182,2.618 0.263,5.205 0.768,7.772 -0.536,0.516 -1.607,1.546 -2.143,2.062 0.01,1.829 0.192,3.679 0.071,5.529 -2.072,2.982 -5.822,3.901 -8.783,5.68 -0.263,2.193 -0.051,4.467 0.424,6.64 3.917,4.707 4.223,-3.181 2.981,25.48 -0.485,6.792 1.132,13.463 1.627,20.204 0.131,3.649 1.92,6.883 2.84,10.35 -0.111,3.315 -1.183,6.519 -1.213,9.844 0.164,11.018 -20.275,33.017 -23.651,35.466 -9.946,8.288 -22.66,12.442 -35.314,14.261 -4.033,4.983 -9.895,8.146 -16.262,8.834 -4.144,-0.101 -6.6,3.457 -9.582,5.68 -24.491,18.216 -11.002,8.999 -29.048,15.444 -7.025,2.456 -15.161,-0.313 -21.62,3.891 14.12,72.836 -12.111,69.391 -9.854,107.45 0.121,2.527 1.951,4.568 2.385,7.045 -1.344,3.275 -3.821,5.953 -5.387,9.127 0.657,-0.586 1.971,-1.749 2.628,-2.335 -1.728,6.59 -0.303,13.948 -3.891,20.043 -1.92,3.002 -3.002,6.398 -4.346,9.662 -2.719,2.699 -5.367,5.498 -7.388,8.763 -2.042,3.952 -7.277,5.104 -8.621,9.531 -2.648,4.771 -2.082,11.108 -6.256,14.969 -0.212,-3.659 0.182,-7.54 -2.103,-10.653 -7.674,6.121 -2.575,25.502 -1.718,30.756 -1.607,-0.526 -3.194,-1.061 -4.74,-1.577 -0.748,-3.022 -1.334,-6.085 -1.9,-9.127 -0.536,-0.02 -1.617,-0.061 -2.153,-0.081 -0.799,1.738 -1.314,4.457 -3.558,4.76 -7.23,-9.853 -2.135,-21.408 -7.267,-19.608 -1.092,2.416 -1.739,5.033 -3.224,7.257 -2.981,4.154 -2.769,9.713 -6.084,13.715 -0.657,-2.153 -0.728,-4.619 -2.446,-6.236 -0.344,5.842 -2.668,11.118 -5.003,16.374 -0.334,4.619 -0.526,9.43 0.556,13.998 -0.455,0.465 -1.385,1.395 -1.839,1.86 -1.819,-4.457 -6.944,-6.186 -8.551,-10.673 -0.688,-1.395 -1.223,-2.82 -2.021,-4.114 -1.688,-0.687 -3.558,-0.677 -5.276,-0.92 2.891,3.76 2.972,8.611 4.073,13.038 -0.556,0.192 -1.657,0.556 -2.213,0.738 -1.324,-0.859 -2.668,-1.668 -4.023,-2.385 -9.023,-16.323 -13.68,-19.024 -21.094,-25.561 -6.396,21.887 7.212,11.159 4.457,27.148 -0.091,-3.649 -0.546,-7.52 -3.184,-10.269 -1.071,0.03 -2.102,0.091 -3.113,0.172 -1.193,1.334 -2.699,2.234 -4.437,2.598 0.162,-2.961 0.536,-5.903 0.99,-8.824 -3.305,-4.932 -5.812,-10.532 -7.459,-16.222 -2.759,-0.273 -5.539,-1.132 -5.609,-4.336 -4.518,-2.153 -6.317,-6.782 -8.146,-11.067 -1.556,-4.215 -6.479,-6.742 -5.832,-11.694 -0.394,0.091 -1.182,0.253 -1.576,0.344 -0.819,1.001 -1.607,2.011 -2.365,3.052 -1.334,-0.04 -2.638,-0.061 -3.921,-0.061 0.364,-3.709 -1.85,-6.438 -3.335,-9.521 2.153,1.243 3.234,3.537 4.154,5.771 0.051,-1.354 0.111,-2.688 0.222,-4.002 -1.132,-0.708 -2.203,-1.395 -3.275,-2.072 -1.445,-4.447 -0.152,-9.147 -1.001,-13.635 -0.424,-0.374 -1.253,-1.112 -1.667,-1.476 -0.516,2.082 -0.96,4.205 -1.344,6.337 -0.96,-0.303 -1.859,-0.677 -2.688,-1.132 -0.607,-3.507 0.414,-7.419 -1.567,-10.572 0.152,1.122 0.455,3.355 0.607,4.467 -2.497,-0.061 -4.922,-0.364 -6.428,-2.507 -0.886,-14.993 -6.442,-13.852 -7.075,-19.75 -0.96,0.98 -1.991,1.9 -2.89,2.901 -2.78,-4.821 0.253,-10.148 1.011,-15.09 0.394,-4.104 5.134,-6.347 4.669,-10.623 -6.378,2.082 -8.995,8.692 -13.776,12.836 0.414,-6.529 3.79,-12.654 2.992,-19.325 -1.041,-6.57 4.033,-11.805 4.538,-18.132 -0.273,-1.567 -1.132,-2.901 -1.759,-4.296 -4.467,4.316 -3.77,11.158 -6.812,16.323 -0.344,-1.637 -0.667,-3.265 -0.95,-4.872 -0.738,0.051 -2.203,0.142 -2.931,0.192 -0.02,-0.526 -0.041,-1.587 -0.061,-2.123 -0.95,0.152 -2.87,0.445 -3.82,0.586 0.849,-1.385 1.799,-2.759 3.699,-2.224 -0.583,-17.404 1.46,-13.304 3.76,-22.498 -3.063,2.405 -4.468,6.196 -7.338,8.773 -2.881,2.456 -2.749,6.802 -5.569,9.278 0.596,-5.185 2.143,-10.198 4.104,-15.019 3.041,-6.834 4.074,-2.442 2.466,-13.21 -2.82,3.265 -7.115,6.024 -6.954,10.865 0.071,3.618 -3.366,5.731 -4.174,9.036 -0.556,2.891 -2.739,4.922 -4.609,7.004 -0.586,-1.304 -1.668,-2.466 -1.668,-3.911 -0.051,-2.951 2.416,-4.932 4.053,-7.085 -0.394,-1.718 -0.778,-3.447 -1.082,-5.145 -1.627,3.972 -5.508,6.095 -9.127,7.934 1.85,-4.134 6.458,-8.46 3.709,-13.21 -2.304,-4.356 1.587,-8.399 2.648,-12.513 -0.596,0.01 -1.789,0.03 -2.385,0.04 -1.273,3.623 -10.539,23.47 -11.654,25.278 -1.557,-4.659 -0.364,-9.602 0.06,-14.332 2.335,-3.285 3.942,-6.964 5.771,-10.542 -0.526,-0.061 -1.577,-0.182 -2.092,-0.243 -0.546,-1.092 -1.061,-2.173 -1.546,-3.244 -13.361,0.792 -8.665,12.86 -8.49,16.788 -0.698,2.214 -2.365,4.114 -4.72,4.528 0.546,-5.539 1.263,-11.138 0.384,-16.677 -0.778,-4.76 1.91,-9.268 1.122,-14.039 1.284,-1.122 2.891,-2.153 2.992,-4.043 -3.932,-1.213 -1.162,-6.61 -3.416,-9.43 -1.688,3.497 -4.498,6.034 -7.914,7.762 -2.072,3.447 -4.184,6.873 -6.004,10.451 -0.738,-0.02 -2.193,-0.051 -2.931,-0.071 -0.051,1.476 -0.101,2.951 -0.071,4.457 -0.637,0.98 -1.435,1.587 -2.375,1.789 0.081,-3.881 -0.01,-7.853 1.506,-11.502 1.425,-3.841 -0.121,-7.995 0.991,-11.876 0.627,-2.476 0.162,-5.033 0,-7.52 -11.558,12.486 -6.556,18.245 -12.068,27.219 -1.476,-5.013 -1.425,-10.36 -3.305,-15.242 3.447,-4.72 6.155,-9.966 6.903,-15.828 -2.405,2.365 -5.781,3.527 -7.995,6.044 -3.56,7.023 -1.46,13.239 -11.35,26.299 -1.314,-0.081 -2.598,-0.131 -3.861,-0.141 3.776,-2.522 5.329,-11.325 8.652,-33.232 -3.123,4.124 -6.196,8.561 -7.318,13.685 -0.859,2.193 -3.356,3.548 -3.437,6.084 -0.596,4.356 -0.839,9.976 -5.296,12.28 -0.505,-0.606 -1.001,-1.112 -1.516,-1.617 0.485,0.071 1.476,0.222 1.961,0.303 2.559,-9.782 0.182,-12.496 0.323,-22.438 -3.79,5.256 -8.015,10.4 -13.443,14.029 -0.94,-0.131 -1.85,-0.253 -2.729,-0.354 -0.232,-4.508 3.436,-7.874 4.659,-12.028 -1.294,0.303 -2.557,0.596 -3.8,0.91 2.375,-3.538 4.478,-7.328 5.367,-11.532 -2.719,1.759 -4.346,4.579 -5.771,7.399 -7.976,1.655 -11.461,13.211 -13.453,14.938 -2.021,1.567 -4.235,2.84 -6.216,4.437 -6.827,1.576 -5.012,1.286 -11.997,1.172 0.849,-0.657 1.688,-1.324 2.608,-1.941 0.505,-2.193 1.182,-4.346 1.749,-6.519 -3.396,2.102 -6.833,4.235 -10.795,5.033 -0.788,-1.011 -1.506,-1.981 -2.244,-2.961 -3.437,4.124 -7.682,7.742 -12.856,9.43 -0.344,-2.992 -0.627,-6.084 -2.527,-8.53 -1.799,1.324 0.121,3.032 0.435,4.548 0.869,1.567 -0.455,3.143 -0.97,4.589 -1.759,-1.556 -3.467,-3.123 -5.185,-4.659 -8.253,12.332 -4.628,3.063 -11.431,14.372 -3.315,0.182 -4.791,-2.992 -5.367,-5.741 -1.506,2.203 -3.376,4.104 -5.498,5.7 -0.839,2.79 -1.89,5.508 -3.143,8.126 -1.506,-0.061 -2.992,-0.091 -4.437,-0.121 0.475,-1.162 0.97,-2.314 1.496,-3.457 0,-0.768 0.01,-2.325 0.01,-3.093 -1.597,0.616 -3.204,1.223 -4.75,1.86 -0.121,-1.738 -0.172,-3.487 -0.152,-5.205 -0.677,-0.101 -2.011,-0.303 -2.678,-0.404 -1.526,-2.517 -2.031,-5.488 -3.093,-8.187 -2.608,3.386 -4.589,7.277 -7.874,10.097 0.465,0.849 0.95,1.708 1.466,2.577 -1.981,1.789 -2.911,4.215 -2.84,6.863 -0.232,0.708 -0.697,2.123 -0.93,2.83 -2.153,-0.485 -3.123,-2.335 -3.881,-4.174 -1.597,1.587 -3.042,3.416 -5.013,4.548 -1.365,-0.131 -2.668,-0.455 -3.962,-0.728 0.607,-1.031 1.243,-2.042 1.9,-3.032 -0.172,-0.546 -0.515,-1.637 -0.687,-2.173 1.405,-0.98 2.87,-1.88 4.457,-2.577 2.072,-3.649 3.133,-7.782 3.204,-11.967 -3.153,1.93 -5.478,4.841 -8.369,7.105 -2.395,3.214 -3.052,7.348 -4.204,11.108 -0.97,0.101 -2.921,0.313 -3.891,0.414 -0.728,-2.001 -1.051,-4.073 -1.182,-6.155 -0.465,2.547 -1.243,5.054 -2.638,7.257 -0.263,4.619 -0.111,9.248 -0.03,13.877 -1.021,0 -3.073,-0.02 -4.104,-0.02 -1.132,-3.153 -2.072,-6.368 -2.79,-9.632 -1.688,6.105 -2.335,12.503 -2.193,18.83 -0.758,-0.02 -2.274,-0.061 -3.032,-0.091 -0.536,-1.627 -1.102,-3.255 -1.647,-4.841 -2.017,12.101 0.243,15.142 -1.486,21.862 -1.294,0.425 -2.547,0.879 -3.8,1.324 -0.374,4.336 -0.263,8.682 -0.172,13.038 -1.637,0.03 -3.255,0.212 -4.255,-1.253 -0.344,5.043 -2.618,9.844 -1.819,14.999 -3.244,0.293 -3.234,6.378 0.041,6.539 0.04,1.011 0.101,3.032 0.131,4.033 -1.88,-0.091 -3.699,-0.131 -5.529,-0.182 1.013,6.719 3.437,3.744 3.153,17.87 -0.404,-0.738 -1.203,-2.224 -1.607,-2.972 -1.122,6.044 -2.496,12.028 -3.972,17.981 0.91,4.316 3.81,7.843 5.387,11.927 4.002,9.288 2.83,19.598 3.669,29.432 -0.495,3.093 -3.275,6.216 -1.172,9.299 1.405,2.042 -0.899,4.225 -0.121,6.378 1.149,1.634 2.869,3.127 13.443,6.63 -3.558,0.404 -7.075,1.162 -10.653,1.284 -0.788,2.375 -3.133,3.426 -4.821,5.043 -1.074,2.055 1.019,18.313 1.172,19.315 1.496,5.589 4.063,10.875 5.175,16.596 4.05,17.444 -3.968,4.162 36.285,56.004 3.568,4.498 7.095,9.096 9.925,14.12 3.875,20.26 0.76,46.978 10.542,70.427 4.041,20.123 2.557,17.215 2.557,34.435 -0.131,4.791 2.052,9.319 1.839,14.13 4.508,6.519 1.627,15.04 5.397,21.821 1.302,2.458 20.013,44.177 11.098,53.457 -3.77,0.778 -7.813,-0.546 -11.411,0.91 -2.517,1.001 -2.244,4.023 -2.759,6.216 -2.567,1.425 -4.821,3.729 -7.823,4.124 -20.925,1.803 -52.697,-6.777 -72.853,-12.412 -28.172,-7.467 -34.804,-18.476 -41.217,-24.672 -3.588,-3.275 -4.892,-9.086 -2.365,-13.342 2.113,-4.063 3.174,-8.571 5.509,-12.523 2.426,-4.609 0.263,-9.683 0.152,-14.504 -0.322,-7.943 -2.908,-11.757 -12.462,-9.804 -0.617,-0.809 -1.213,-1.597 -1.799,-2.365 -6.135,0.071 -10.198,-7.125 -8.086,-12.573 1.647,-5.397 6.347,-9.117 8.116,-14.433 1.85,-5.074 5.61,-9.107 8.055,-13.857 0.849,-4.235 0.9,-8.591 1.263,-12.877 -8.177,-1.223 -16.091,2.325 -23.499,5.327 -0.394,-0.414 -1.172,-1.243 -1.567,-1.658 -2.102,0.121 -4.205,0.212 -6.277,0.303 -0.01,-0.94 -0.04,-2.83 -0.051,-3.78 3.437,-1.698 5.761,-4.791 7.985,-7.793 3.194,-3.669 -0.475,-9.026 2.021,-13.069 3.699,-6.246 6.57,-12.937 10.036,-19.315 1.708,-2.698 0.91,-6.004 0.738,-8.965 -1.465,-0.98 -3.851,-1.375 -4.083,-3.426 -0.505,-2.749 -0.182,-5.549 -0.637,-8.268 -2.021,-1.597 -4.488,-2.456 -6.792,-3.467 -0.819,10.526 4.056,11.932 3.002,16.758 -1.179,5.342 1.909,7.529 -6.469,10.936 0.97,-1.951 2.517,-3.982 1.344,-6.196 -2.042,-4.973 -0.849,-10.997 -4.75,-15.151 -0.455,1.415 -0.869,2.86 -1.263,4.316 -2.739,-0.152 -5.417,-0.698 -8.025,-1.445 -1.893,9.852 10.5,19.963 2.759,36.244 -1.102,-4.781 1.274,-9.693 -0.475,-14.362 -0.96,-3.942 -3.507,-7.166 -5.175,-10.764 -0.627,-4.417 -0.556,-10.047 -5.013,-12.523 -1.91,3.467 -3.285,7.217 -4.043,11.108 1.091,3.386 2.931,6.954 1.607,10.582 -1.981,5.134 -3.285,11.31 0.182,16.141 -1.84,1.284 -4.013,1.435 -6.155,1.344 0.263,-5.013 -2.385,-9.43 -4.265,-13.867 -2.153,-0.111 -4.862,-0.152 -5.933,-2.365 -0.384,-3.618 0.546,-7.247 0.01,-10.825 -2.032,-3.224 -3.74,-6.641 -4.195,-10.461 -1.193,-0.04 -2.365,-0.05 -3.517,-0.061 -5.877,18.825 -7.086,16.837 -5.579,22.256 -0.394,0.505 -0.758,1.031 -1.102,1.587 -1.041,-1.627 -2.699,-2.557 -4.245,-3.578 0.111,-1.779 0.283,-3.527 0.505,-5.256 -4.578,3.224 -6.661,8.621 -10.299,12.705 0.237,-3.656 8.096,-18.893 9.359,-25.359 -9.383,10.28 -4.205,11.285 -18.041,22.377 2.274,-4.457 6.095,-7.995 7.934,-12.675 0.98,-3.861 1.607,-7.793 2.587,-11.643 -1.344,1.172 -2.668,2.365 -3.962,3.568 -1.071,-0.02 -2.122,-0.02 -3.143,0 -5.064,8.194 -15.888,21.904 -25.319,23.974 12.503,-4.467 14.491,-19.905 25.763,-28.351 -0.131,-5.448 2.214,-10.693 2.082,-16.101 -1.91,-0.809 -1.445,2.193 -2.123,3.255 -0.081,2.112 -2.456,1.991 -3.962,2.385 -0.384,-1.142 -0.738,-2.274 -1.061,-3.396 -1.466,0.081 -2.931,0.141 -4.356,0.243 0.081,-0.677 0.243,-2.032 0.313,-2.709 -6.994,1.769 -9.298,9.117 -11.431,15.141 -2.234,0.697 -4.447,1.486 -6.56,2.466 -0.303,4.882 -5.731,5.872 -9.278,7.712 0.516,-5.296 6.944,-6.62 8.632,-11.31 0.465,-3.639 -1.284,-7.055 -2.133,-10.491 -0.495,2.315 0.061,5.225 -1.991,6.893 -1.678,0.303 -3.396,0.263 -5.023,-0.061 -1.294,-2.021 -0.01,-4.579 -0.92,-6.711 -1.415,-3.265 -3.123,-6.388 -4.599,-9.602 -0.404,-0.192 -1.203,-0.566 -1.607,-0.748 0.92,3.588 1.122,7.51 -1.708,10.34 -2.436,-0.374 -4.75,-1.071 -6.994,-1.981 -3.662,-1.665 -5.934,2.355 -7.237,-5.852 -0.536,-0.333 -1.607,-1.001 -2.143,-1.324 -1.385,-0.051 -2.759,-0.131 -4.083,-0.192 -1.91,-2.294 -4.498,-4.336 -4.851,-7.489 -0.859,-1.688 -0.465,-5.367 -3.103,-5.043 -0.081,1.627 0.202,3.275 0.526,4.892 -1.627,-1.819 -3.396,-3.487 -5.205,-5.084 0.243,-2.749 0.283,-5.508 0.051,-8.248 -0.485,0.93 -0.95,1.87 -1.385,2.84 -1.85,0.051 -3.679,0.121 -5.488,0.212 -1.061,-4.043 -3.517,-7.439 -5.145,-11.219 -4.013,-0.677 -2.537,-5.791 -3.174,-8.702 -1.385,2.375 -3.002,4.609 -4.882,6.61 -0.111,0.728 -0.334,2.173 -0.445,2.901 -0.616,-0.364 -1.86,-1.102 -2.476,-1.466 0.404,-3.81 1.668,-7.449 2.749,-11.098 -1.536,-1.334 -2.961,-2.81 -3.426,-4.831 -2.911,2.921 -5.902,-0.455 -8.611,-1.728 -1.809,-0.798 -3.204,-2.193 -4.538,-3.568 0.465,3.467 1.668,6.772 2.497,10.168 0.808,0.243 1.647,0.505 2.507,0.788 0.394,0.889 0.819,1.799 1.284,2.709 -0.98,0.586 -1.971,1.162 -2.911,1.789 0.03,0.98 0.081,2.961 0.111,3.942 -2.072,-1.233 -0.809,-3.871 -0.778,-5.711 -1.87,-0.273 -4.093,-0.111 -5.306,-1.819 -3.79,-4.498 -2.537,-10.956 -5.721,-15.717 -2.294,-4.013 -2.638,-8.854 -5.397,-12.604 -2.164,10.509 -17.138,41.231 -22.094,58.854 -22.49,68.739 -18.918,61.891 -11.229,131.373 0.583,6.932 20.493,45.679 20.548,50.657 -0.082,6.012 9.486,19.009 10.026,20.022 2.658,3.901 3.325,8.692 5.609,12.796 2.85,5.044 2.426,11.169 5.266,16.222 5.247,9.985 11.277,26.975 0.96,31.403 -1.84,0.95 -3.952,0.748 -5.923,0.91 -1.405,5.913 -7.166,9.521 -12.755,10.703 -10.683,-0.718 -21.407,0.03 -32.08,-0.515 -8.409,-1.617 -16.98,-1.829 -25.511,-1.951 -20.033,-3.463 -51.101,-14.553 -61.26,-30.311 -2.35,-21.78 0.873,-18.259 3.346,-28.998 -0.617,-3.012 -1.435,-5.983 -1.708,-9.046 -0.647,-3.558 -4.993,-4.72 -7.702,-2.588 -0.434,-1.405 -0.97,-2.88 -1.344,-4.225 -2.234,1.314 -4.366,3.255 -7.095,3.265 -5.296,0.576 -10.38,-4.296 -9.945,-9.612 -0.03,-5.407 6.699,-20.398 8.217,-30.473 7.066,-34.25 3.617,-2.791 11.249,-49.404 2.214,-10.309 -0.202,-20.821 0.333,-31.211 0.698,-4.872 1.951,-9.642 2.719,-14.494 -4.417,5.327 -9.39,10.127 -13.483,15.737 -0.505,0.091 -1.516,0.263 -2.021,0.354 1.639,-10.845 8.186,-7.911 7.378,-27.481 -8.425,-1.336 -7.591,0.562 -10.208,4.872 0.05,-1.85 0.202,-3.669 0.414,-5.478 -0.111,-0.374 -0.334,-1.122 -0.435,-1.486 1.061,-2.517 1.708,-5.165 1.9,-7.874 -6.933,5.711 -9.854,14.554 -15.808,21.104 -3.153,4.75 -9.076,6.58 -11.623,11.815 -3.558,1.314 -5.468,5.084 -9.086,5.984 -0.93,-5.205 3.042,-8.662 5.66,-12.513 1.567,-1.698 0.283,-3.942 -0.05,-5.822 -1.051,0.03 -2.082,0.091 -3.093,0.162 -0.849,1.334 -1.526,2.901 -2.921,3.78 -1.9,0.344 -3.841,0.323 -5.731,0.465 0.101,-0.596 0.313,-1.799 0.414,-2.395 3.527,-2.092 4.417,-6.438 5.387,-10.087 -2.234,0 -4.376,0.465 -6.317,1.557 -0.293,6.863 0.697,13.857 -1.112,20.599 -0.778,-0.081 -2.335,-0.243 -3.123,-0.323 0.03,-0.718 0.081,-2.153 0.111,-2.87 -1.182,-0.637 -2.345,-1.253 -3.487,-1.839 -3.372,-17.568 -1.082,-16.289 -2.274,-24.217 -0.505,0.081 -1.526,0.232 -2.031,0.313 -0.819,3.537 -2.122,6.994 -2.446,10.653 -1.182,0.152 -2.345,0.323 -3.497,0.515 -0.809,-4.114 1.496,-8.005 0.859,-12.068 -0.748,-1.749 -2.729,-1.172 -4.194,-1.334 -0.99,3.487 -1.87,7.308 -4.7,9.834 -0.455,-2.729 1.061,-6.448 -1.971,-8.045 0.92,-0.718 1.86,-1.435 2.81,-2.133 -0.02,-0.738 -0.051,-2.213 -0.071,-2.951 -0.748,1.738 -1.789,3.325 -3.073,4.72 0,-12.663 5.315,-15.53 3.881,-35.123 -0.718,2.426 -1.718,4.781 -3.073,6.944 -0.778,0.061 -2.345,0.192 -3.123,0.253 0.152,-2.951 0.344,-5.892 0.637,-8.813 l -0.323,0 c -1.627,2.021 -3.426,3.911 -5.013,5.973 -0.03,-1.688 -0.04,-3.366 -0.04,-5.023 -0.738,0.253 -1.455,0.526 -2.163,0.819 0.374,-1.829 -0.374,-2.82 -2.214,-2.901 0.04,0.809 0.111,2.436 0.152,3.255 -0.445,0.384 -1.334,1.142 -1.779,1.526 -0.778,2.183 -0.96,5.043 -3.538,5.994 0.323,-3.881 0.768,-7.732 0.809,-11.613 -0.879,-1.082 -1.738,-2.163 -2.567,-3.224 4.094,-4.932 9.177,-11.896 5.306,-18.365 1.334,-8.429 6.044,-16.444 4.619,-25.278 -0.364,-0.354 -1.082,-1.082 -1.445,-1.445 -1.284,5.124 -2.517,10.552 -6.327,14.473 -2.931,2.941 -4.558,7.399 -8.702,8.905 -0.344,-1.365 -0.687,-2.689 -1.263,-3.932 4.063,-3.932 2.456,-9.774 2.971,-14.767 1.031,-2.476 2.476,-4.771 3.255,-7.338 -3.699,2.395 -3.982,8.621 -8.743,9.278 0.253,-3.709 1.021,-7.358 1.789,-10.977 -4.397,4.346 -9.592,8.531 -16.02,8.985 0.081,-1.425 0.202,-2.8 0.303,-4.184 2.82,-1.445 5.903,-2.577 8.055,-5.013 0.586,-3.719 1.142,-7.469 0.637,-11.219 -2.456,2.153 -4.538,4.7 -5.973,7.631 -5.02,0.163 -2.414,0.058 -7.904,1.243 0.131,-0.425 0.394,-1.263 0.516,-1.688 1.688,-0.162 3.396,-0.273 5.084,-0.576 12.434,-23.514 9.773,-19.342 9.622,-27.431 -1.658,1.799 -3.366,3.558 -5.225,5.145 0.576,-2.486 1.334,-4.902 2.122,-7.318 -0.404,-1.455 -0.778,-2.891 -1.132,-4.306 -5.304,-5.885 1.272,-17.332 2.304,-24.085 1.031,-4.619 -1.294,-9.48 0.637,-13.958 5.347,-7.762 8.409,-16.879 14.312,-24.308 -9.276,0.927 -25.316,7.357 -26.4,7.803 0.131,-0.465 0.394,-1.395 0.526,-1.86 1.004,-0.412 18.341,-13.813 29.402,-25.662 -1.991,-0.061 -3.942,-0.071 -5.903,-0.051 2.446,-1.971 3.992,-5.023 7.035,-6.206 12.528,-5.93 28.854,-15.276 34.839,-27.724 -4.831,2.133 -9.693,4.366 -13.807,7.742 -2.18,6.234 -18.665,10.773 -23.954,12.21 -3.093,1.718 -6.499,2.81 -10.057,2.891 17.875,-8.542 26.213,-6.801 31.959,-16.525 -0.01,-0.93 -0.02,-2.81 -0.03,-3.74 -2.011,-0.101 -3.992,-0.162 -5.973,-0.232 2.704,-1.159 10.151,-3.042 19.931,-18.021 9.745,-12.115 12.145,-13.916 10.269,-23.732 -2.395,1.365 -5.539,2.092 -6.802,4.821 l -0.475,-0.081 c 1.629,-6.84 13.239,-15.801 13.766,-28.543 -1.607,0 -3.164,0.03 -4.72,0.04 -0.728,-4.083 3.113,-7.206 2.496,-11.209 -0.869,-1.162 -1.91,-2.173 -2.86,-3.194 -5.609,0.384 -11.209,0.445 -16.727,1.556 -0.071,-1.102 -0.111,-2.183 -0.131,-3.265 1.415,-0.92 2.779,-1.961 3.911,-3.244 -4.275,-0.364 -7.348,3.002 -9.278,6.398 -2.781,-2.922 -3.514,-1.435 -0.061,-9.076 -4.841,-0.333 -9.349,-4.225 -14.17,-2.375 -1.89,0.9 -3.174,-1.112 -4.488,-2.021 -0.071,-2.234 -0.01,-4.619 -1.698,-6.287 -0.536,-1.031 -1.021,-2.042 -1.506,-3.063 -2.193,2.648 -5.701,3.063 -8.581,4.579 -2.274,1.142 -4.488,2.547 -7.045,2.901 -0.101,-0.92 -0.192,-1.819 -0.263,-2.709 2.042,-1.385 4.083,-3.052 2.203,-5.599 -6.157,4.428 -25.32,5.76 -30.099,5.377 0.192,-0.637 0.576,-1.92 0.768,-2.567 6.853,-0.576 10.097,-7.823 9.369,-13.968 -3.376,-0.222 -7.692,-0.162 -8.702,-4.205 -3.932,0.738 -7.813,1.708 -11.593,3.012 -0.768,-2.143 -1.435,-4.296 -2.032,-6.469 -4.697,1.744 -11.96,-2.058 -15.939,-5.134 -2.274,0.839 -4.771,1.152 -6.681,-0.596 0.071,-0.93 0.192,-2.779 0.253,-3.699 -8.985,1.627 -18.395,-0.404 -27.087,2.779 -4.508,1.031 -9.187,0.546 -13.756,0.546 3.75,-3.629 7.833,-6.883 11.866,-10.178 -3.467,0.778 -6.731,-0.435 -10.067,-1.051 -5.157,0.688 -13.251,2.833 -14.756,-0.445 -4.012,-0.01 -7.752,1.557 -10.451,4.518 -3.831,0.162 -7.651,0.081 -11.451,-0.081 -0.414,-1.092 -0.94,-2.092 -1.587,-3.002 -2.84,0.01 -5.347,1.314 -7.671,2.779 -3.821,2.517 -8.52,2.658 -12.715,4.184 -1.668,0.687 -3.457,0.445 -5.155,0.202 0.516,-1.092 1.536,-3.275 2.052,-4.366 -4.012,1.213 -8.682,3.81 -12.705,1.223 0,-0.657 0.01,-1.961 0.02,-2.618 -4.184,2.304 -8.854,3.184 -13.574,2.557 1.465,-1.496 2.931,-3.174 2.416,-5.448 -41.663,8.899 -36.313,6.544 -38.822,16.182 3.063,0.232 5.66,-1.132 7.904,-3.062 -5.125,5.574 -8.375,5.498 -12.23,5.498 -0.151,-1.577 -0.293,-3.143 -0.424,-4.69 -1.253,1.061 -2.507,2.123 -3.74,3.194 -1.182,-1.931 -2.365,-3.851 -3.558,-5.751 -2.587,4.356 -7.035,6.681 -11.451,8.783 -0.799,-1.061 -1.233,-2.416 -2.294,-3.194 -2.739,-0.333 -5.64,-0.758 -8.308,-0.02 -10.867,8.284 -0.861,3.013 -17.971,8.045 -1.092,0.697 -2.193,1.395 -3.285,2.092 -0.01,0.374 -0.05,1.122 -0.061,1.496 -0.627,0.061 -1.88,0.172 -2.507,0.222 -1.88,2.143 -4.195,3.81 -6.681,5.165 2.264,-1.627 4.316,-3.568 4.579,-6.58 -2.688,1.304 -5.246,2.82 -7.813,4.336 0.425,-1.728 0.869,-3.436 1.324,-5.145 -5.104,0.758 -10.815,-0.202 -15.221,3.012 -2.507,2.143 -5.842,0.526 -8.743,1.162 -4.164,0.637 -7.004,6.064 -11.532,3.527 0.04,-0.859 0.111,-2.577 0.152,-3.437 -0.708,0.121 -1.415,0.253 -2.092,0.394 -2.4,3.071 -14.173,10.689 -17.213,12.523 -0.97,0.051 -1.93,0.121 -2.88,0.202 -0.293,-2.719 1.829,-4.296 3.76,-5.731 -1.243,-1.647 -2.81,-3.608 -5.145,-2.84 -4.195,-0.404 -6.428,3.548 -9.561,5.498 -2.709,1.395 -5.68,2.143 -8.531,3.153 0.374,2.658 0.374,5.488 1.516,7.975 6.549,5.519 13.918,10.087 20.346,15.757 -2.628,4.002 2.81,7.004 2.891,10.966 -0.091,1.496 0.93,3.901 -1.364,4.195 -1.86,1.142 -1.86,3.911 -2.931,5.731 -0.798,-0.071 -2.406,-0.223 -3.214,-0.293 -0.121,2.042 -0.222,4.094 -0.313,6.165 -1.647,0.131 -3.285,0.283 -4.912,0.455 -0.263,0.637 -0.798,1.91 -1.061,2.547 -0.404,-0.354 -1.213,-1.061 -1.617,-1.405 1.001,3.598 -2.789,3.911 -5.326,3.467 -0.01,2.092 -0.344,4.336 0.778,6.256 -7.441,7.366 -1.929,7.36 -5.852,15.717 -1.071,0.061 -2.133,0.141 -3.174,0.232 -1.152,1.263 -2.557,2.173 -4.255,2.426 -0.94,-3.214 -1.708,-6.539 -3.416,-9.43 0.071,5.114 1.021,10.279 -0.354,15.333 -0.485,0.425 -1.455,1.253 -1.941,1.668 -0.505,3.275 -0.677,6.59 -0.637,9.915 -0.313,0.586 -0.95,1.759 -1.263,2.345 -1.425,0.061 -2.84,0.141 -4.235,0.243 0.263,-0.849 0.778,-2.527 1.031,-3.366 -0.485,0.03 -1.466,0.081 -1.951,0.111 -0.061,-1.415 -0.111,-2.81 -0.142,-4.184 -0.455,-0.414 -1.385,-1.233 -1.839,-1.648 -1.546,-5.69 -4.397,-10.875 -6.196,-16.454 -3.871,-5.781 -3.73,-13.069 -6.095,-19.295 -0.69,-28.727 -3.973,-21.624 -10.168,-36.042 -1.769,-0.647 -3.588,-1.162 -5.407,-1.526 -23.209,-19.019 -31.278,-10.134 -85.032,-47.099 -27.225,-19.066 -108.974,-88.414 -165.192,-114.828 -7.166,14.012 -33.237,89.33 -39.539,155.54 -2.153,27.391 -3.002,54.953 -7.591,82.101 -0.687,4.033 -2.517,7.964 -2.042,12.129 0.475,4.377 0.141,8.925 -1.243,13.129 -3.75,4.073 -6.58,9.42 -6.357,15.1 -1.068,45.191 -6.428,112.829 12.705,151.244 31.539,71.923 88.611,154.703 155.226,202.589 4.649,3.416 6.226,9.208 9.379,13.796 3.663,6.9 35.08,41.255 24.53,54.589 1.794,15.314 -8.611,14.256 -49.02,16.556 -51.911,1.025 -51.811,-1.049 -67.536,-7.5 -43.181,-17.207 -11.326,-24.786 -36.133,-31.666 -4.447,-1.071 -8.945,-2.345 -13.574,-2.072 -3.527,0.293 -6.509,-2.355 -10.077,-2.082 -4.225,0.313 -7.863,-2.092 -11.067,-4.508 -2.102,-2.759 -3.962,-5.741 -5.488,-8.834 0.081,-4.174 2.123,-8.025 2.123,-12.199 0.384,-6.772 -1.93,-13.907 1.051,-20.356 4.479,-13.896 12.404,-1.546 -141.612,-267.426 -10.4,-13.604 -20.083,-27.765 -30.17,-41.601 -3.81,-4.862 -5.69,-10.825 -8.429,-16.283 20.831,-85.805 19.84,-50.643 23.176,-133.688 -8.894,8.672 -14.19,20.417 -23.418,28.816 -45.21,43.118 -26.341,14.103 -77.775,79.938 -19.921,24.388 -58.362,103.889 -68.79,165.313 -22.266,86.155 -11.237,116.875 -6.014,143.532 1.095,8.422 12.797,5.054 23.206,19.183 10.069,8.467 10.639,16.205 26.956,39.539 3.062,4.356 8.359,6.519 11.158,11.098 3.932,5.933 8.844,11.421 11.421,18.132 -0.263,5.205 0.586,11.805 -4.174,15.333 -2.557,2.335 -6.266,1.557 -9.44,1.769 -3.467,12.981 -5.336,11.495 -17.971,12.058 0,0 -59.683,-0.901 -63.756,-1.102 -17.273,-2.609 -48.928,-15.455 -49.97,-32.929 -0.02,-6.792 -1.031,-13.635 0.556,-20.336 -42.342,3.877 -24.621,-20.887 -17.395,-44.532 -0.101,-9.41 -0.768,-18.83 -1.233,-28.219 -1.546,-4.669 -4.74,-8.621 -6.903,-13.018 -3.295,-0.687 -6.539,-1.678 -9.885,-2.042 -6.56,-0.101 -13.857,2.426 -19.77,-1.465 -0.131,-2.962 -0.819,-5.832 -1.152,-8.743 0.9,-3.871 2.689,-7.459 3.628,-11.31 0.889,-4.245 3.76,-7.58 5.994,-11.158 25.699,-38.629 12.15,-7.365 22.236,-43.512 5.596,-17.735 5.966,-10.205 10.34,-37.194 -2.857,-25.213 14.642,-43.558 16.151,-54.458 18.713,-110.352 10.879,-54.113 14.706,-114.333 5.821,-45.546 15.17,-52.301 18.698,-74.662 2.608,-8.227 0.758,-16.899 1.738,-25.298 3.598,-14.534 6.944,-29.26 12.685,-43.117 14.859,-11.181 15.325,-4.17 62.847,-61.492 0.668,-1.006 23.786,-36.381 24.803,-39.903 14.238,-49.948 13.794,-47.738 -5.357,-113.16 -0.398,-1 -20.7,-41.253 -26.926,-51.668 -6.873,-11.017 -10.33,-23.711 -16.778,-34.941 -10.801,-21.183 -6.503,-20.597 -13.554,-37.993 -12.472,-33.01 -17.297,-48.477 -25.036,-96.665 -10.717,-94.526 44.671,-175.723 45.412,-178.301 -8.476,-0.638 -53.476,15.284 -69.679,69.295 -19.056,46.45 -13.29,129.648 -2.931,147.656 19.156,38.886 13.889,27.579 15.282,40.853 0.556,5.175 2.264,10.168 2.79,15.353 -0.172,4.073 -3.335,7.206 -4.518,10.966 0.515,4.397 2.709,8.662 1.708,13.17 -4.406,25.563 -4.314,54.706 -9.743,59.814 -0.788,1.294 -1.607,2.567 -2.496,3.81 -0.283,3.74 1.041,7.469 0.404,11.209 -1.991,5.387 -5.943,10.036 -6.843,15.818 -1.536,1.344 -2.941,2.82 -4.184,4.457 -3.932,1.516 -7.277,4.083 -10.501,6.731 l -0.131,-0.424 c 2.268,-1.56 18.566,-19.567 17.485,-31.777 -1.203,0.93 -2.395,1.86 -3.588,2.81 -1.051,-0.131 -2.102,-0.253 -3.153,-0.364 -5.908,9.416 -0.4,9.902 -20.912,31.504 -2.224,2.234 -3.295,5.306 -5.337,7.681 -1.688,1.001 -3.598,1.536 -5.428,2.214 16.212,-19.659 14.63,-12.893 22.862,-35.931 -16.374,13.373 -11.562,16.131 -17.597,23.58 -5.68,5.377 -9.895,12.573 -17.101,16.161 -4.508,2.426 -8.399,5.741 -12.422,8.854 -6.479,2.284 -13.038,5.195 -20.032,5.205 2.951,-0.869 6.196,-1.769 7.277,-5.023 -4.366,1.223 -8.723,2.476 -13.038,3.871 -4.791,4.7 -12.381,3.78 -18.526,3.315 2.496,-0.162 4.942,-0.708 7.115,-1.991 22.688,-8.397 22.674,-5.531 31.706,-10.926 5.217,-3.264 13.917,-1.515 22.913,-16.465 1.476,-2.102 0.222,-5.124 2.133,-7.004 2.021,-2.042 4.659,-3.8 4.983,-6.934 -1.314,0.586 -2.628,1.193 -3.932,1.839 8.588,-4.976 10.211,-21.366 10.441,-22.367 -4.265,4.215 -8.915,8.217 -14.585,10.4 6.256,-5.246 11.694,-11.381 17.283,-17.283 1.213,-6.357 4.407,-12.058 6.105,-18.254 -4.993,4.619 -8.611,10.451 -12.796,15.767 -5.06,5.426 -21.32,9.446 -27.431,13.887 -4.649,3.335 -10.016,5.407 -14.847,8.44 -7.115,4.639 -16.232,1.698 -23.722,5.367 -2.818,1.416 -17.379,7.602 -24.146,7.762 4.659,-4.76 11.532,-6.054 16.94,-9.703 6.741,-4.194 14.949,-2.749 22.418,-3.871 4.447,-1.577 7.874,-5.084 11.937,-7.419 7.479,-5.205 16.707,-6.691 24.813,-10.582 4.296,-4.387 8.146,-9.258 12.017,-14.019 3.457,-8.015 9.349,-14.564 13.837,-21.963 0.495,-6.085 -0.263,-12.23 -0.687,-18.314 -2.304,3.305 -2.345,7.469 -3.73,11.148 -3.39,9.896 -13.788,25.03 -16.869,27.583 -8.247,2.739 -13.321,10.431 -20.922,14.312 -18.968,9.718 -4.864,5.482 -35.456,3.396 4.963,-0.081 9.905,0.748 14.847,0.94 6.145,-0.556 12.038,-2.557 18.142,-3.376 0.889,-1.728 1.93,-3.366 3.517,-4.508 2.375,-1.445 2.345,-4.457 3.608,-6.65 4.467,-2.81 9.905,-3.922 14.13,-7.095 2.739,-4.285 7.166,-7.914 7.51,-13.311 3.119,-23.241 11.808,-19.846 9.46,-40.57 -0.339,1.001 -2.651,15.662 -6.388,14.069 -1.001,-3.244 1.213,-6.186 2.143,-9.167 0.805,-1.741 3.316,-22.933 3.406,-25.076 -13.055,25.542 -9.518,26.604 -14.302,36.507 -4.773,11.254 -0.915,13.358 -3.639,19.477 -2.456,5.852 -3.821,12.321 -8.035,17.283 3.342,-13.369 2.491,-0.158 6.944,-39.802 0.384,-4.771 4.326,-8.288 4.902,-13.008 5.943,-33.344 6.697,-24.416 10.319,-33.495 -0.232,-9.097 -5.213,-5.166 1.385,-27.027 -6.721,8.234 -9.633,35.649 -21.973,63.17 -1.86,3.871 -1.86,8.247 -2.557,12.412 -0.677,4.599 -2.042,9.066 -3.275,13.544 -0.364,-0.515 -1.102,-1.536 -1.466,-2.052 1.071,-5.468 2.81,-10.825 3.325,-16.394 0.536,-4.296 0.798,-8.632 1.557,-12.887 1.88,-6.984 6.287,-13.129 7.257,-20.366 0.935,-6.102 6.787,-36.184 5.983,-43.703 0.515,3.719 0.798,7.459 1.112,11.209 -0.364,-6.721 -0.243,-13.453 0.253,-20.164 0.772,-7.096 -5.706,-8.903 0.182,-29.594 -2.87,5.094 -6.62,10.168 -6.853,16.242 -0.344,7.924 -2.668,15.565 -3.345,23.449 -0.869,8.379 -5.276,15.686 -8.541,23.267 0.827,-5.638 4.465,-15.586 4.973,-19.224 -1.253,-7.52 0.313,-15.12 2.092,-22.418 0.455,-3.992 -0.02,-8.035 0.323,-12.038 0.202,-2.881 2.284,-5.225 2.668,-8.035 -0.313,-1.971 -0.92,-3.871 -1.445,-5.771 18.348,-32.003 9.512,-22.182 13.139,-30.554 1.031,-2.476 2.193,-4.892 3.062,-7.419 -5.913,6.923 -9.814,15.646 -10.896,24.682 -6.923,4.902 -8.409,13.908 -9.885,21.67 -2.699,3.346 -6.428,5.731 -9.531,8.702 -0.657,4.629 -1.132,9.289 -1.678,13.938 -0.354,4.447 -3.164,8.247 -3.406,12.735 -0.455,0.03 -1.344,0.091 -1.789,0.121 3.871,-9.602 2.648,-20.043 3.962,-30.089 2.395,-2.931 5.458,-5.276 8.51,-7.5 4.101,-2.805 3.283,-32.428 10.633,-38.043 1.172,-4.76 2.941,-9.38 3.426,-14.281 -3.841,4.144 -6.135,9.369 -8.894,14.221 -1.668,2.955 -8.139,6.044 -11.431,18.466 0.404,3.942 2.678,7.631 2.315,11.684 -1.274,3.265 -3.275,6.165 -5.013,9.198 -1.567,0.374 -3.123,0.748 -4.69,1.112 -0.061,-2.426 1.496,-4.043 3.174,-5.478 1.213,-4.356 2.062,-9.006 0.778,-13.463 -1.516,-4.659 1.688,-9.026 2.658,-13.473 2.315,-2.658 4.073,-5.761 6.519,-8.308 0.515,-0.081 1.536,-0.233 2.052,-0.313 1.647,-4.892 1.779,-10.38 4.7,-14.777 3.174,-3.548 8.035,-5.064 11.027,-8.814 -7.156,2.961 -14.837,5.397 -20.578,10.835 -5.018,8.171 -6.659,27.287 -15.686,26.673 1.243,-3.184 2.527,-6.347 4.235,-9.309 3.628,-5.984 3.517,-13.352 6.59,-19.568 5.831,-9.705 10.626,-7.285 14.11,-10.026 4.545,-3.388 4.685,-3.022 16.748,-19.618 -0.859,-1.334 -1.698,-2.658 -2.547,-3.982 1.698,-1.648 3.911,-3.174 4.013,-5.781 -6.984,2.901 -14.666,2.385 -21.751,0.162 2.395,-0.01 4.791,-0.071 7.186,-0.172 5.074,-5.064 13.827,-3.578 18.183,-9.632 7.976,-37.469 8.322,-38.706 37.649,-82.545 28.997,-34.995 43.284,-36.982 54.68,-45.23 6.63,-4.851 13.614,-9.632 21.801,-11.381 4.518,-0.425 6.6,-5.155 10.582,-6.711 8.325,-3.278 -1.611,-3.359 24.854,-9.602 4.002,-0.849 6.994,-3.841 10.4,-5.903 24.149,-15.231 22.536,-4.895 65.727,-20.962 10.451,-2.224 20.7,-5.357 31.211,-7.328 5.195,-0.809 10.845,0.172 15.565,-2.658 177.179,-108.733 111.233,-28.758 297.778,-101.133 0.071,-1.92 0.556,-3.77 1.334,-5.529 0.586,0.162 1.749,0.465 2.335,0.627 -0.465,-0.455 -1.385,-1.354 -1.84,-1.809 6.994,-1.708 14.221,-2.264 21.225,-3.952 1.89,-0.03 2.183,-2.072 2.992,-3.376 1.162,-0.101 2.335,-0.192 3.517,-0.273 0.344,0.546 1.011,1.658 1.344,2.213 3.002,-0.404 6.822,0.536 8.884,-2.274 1.86,-1.981 4.892,-0.404 7.257,-0.505 -0.303,-0.697 -0.91,-2.092 -1.223,-2.79 2.203,-2.507 6.226,-0.657 9.157,-0.809 2.001,-4.326 7.661,-2.699 11.462,-4.073 0.323,-0.556 0.96,-1.678 1.284,-2.234 1.971,-0.404 3.962,-0.718 5.973,-0.97 0.435,-0.94 0.879,-1.87 1.334,-2.81 6.287,-0.879 12.937,0.556 18.931,-1.971 3.831,-1.031 7.752,0.697 11.654,0.323 1.961,-0.94 0.768,-3.436 1.051,-5.114 2.759,0.142 3.75,-1.789 3.911,-4.265 2.759,-1.213 3.558,-3.881 3.558,-6.701 16.14,-0.887 12.31,-4.072 14.302,-9.572 2.294,-0.02 4.599,-0.131 6.883,-0.556 2.86,0.95 5.872,1.273 8.884,1.284 1.897,-8.254 1.961,-5.293 6.984,-5.155 2.81,-4.872 8.5,-0.95 12.391,0.263 1.031,-1.607 1.941,-3.335 3.285,-4.73 3.8,-0.778 7.52,0.617 10.987,2.042 1.041,-1.536 1.9,-3.174 2.699,-4.862 2.001,0.283 4.023,0.546 6.064,0.728 3.265,-2.921 7.51,0.02 11.29,-0.556 2.719,-0.222 3.972,-4.205 6.994,-3.143 4.7,1.081 10.421,3.406 14.413,-0.617 4.093,-0.061 7.904,-1.637 11.896,-2.284 5.357,-0.04 10.754,-0.131 16.04,-1.152 0,-0.667 0,-1.991 0,-2.648 2.456,-0.95 4.781,-2.224 7.206,-3.255 3.74,-0.697 7.601,3.992 11.077,0.91 2.648,-2.406 5.973,-3.568 9.561,-3.255 4.255,-1.718 8.389,-3.649 12.048,-6.458 5.63,-1.061 11.371,-2.123 17.132,-2.507 0.526,-0.98 1.081,-1.971 1.647,-2.941 4.68,0.101 8.46,-2.881 12.543,-4.71 3.416,1.152 7.075,-0.162 10.501,0.93 2.052,0.606 4.174,0.859 6.327,0.97 -0.243,-1.476 -0.293,-2.992 -0.788,-4.407 -0.889,-1.385 -2.557,-2.183 -2.901,-3.932 2.466,-0.03 4.942,0.02 7.419,0.121 0.364,-0.475 1.112,-1.425 1.476,-1.9 2.153,1.102 4.599,0.849 6.954,0.819 -0.202,-1.84 -0.586,-3.659 -1.365,-5.337 4.932,0.798 9.177,3.851 14.15,4.356 1.647,-2.567 3.366,-5.104 4.619,-7.914 2.88,-1.233 5.711,-2.79 8.854,-3.265 2.901,0.606 5.832,1.162 8.824,1.152 0.677,-2.123 1.071,-4.306 1.263,-6.509 2.931,0.829 6.054,2.921 9.127,1.395 4.841,-1.88 10.4,-0.647 15.141,-2.891 9.38,-16.327 9.662,0.647 26.986,-15.474 7.903,3.65 8.323,-3.585 14.989,-3.133 0.566,-0.667 1.142,-1.344 1.738,-2.021 4.548,-0.364 9.177,-0.061 13.655,-1.172 1.294,-1.637 2.476,-3.366 3.831,-4.963 1.607,-0.485 2.931,0.809 4.376,1.294 2.203,0.243 4.427,-0.02 6.661,-0.131 0.647,-2.153 1.435,-4.255 2.335,-6.307 2.456,-0.364 4.033,1.324 4.801,3.507 4.063,0.253 7.53,-2.406 11.583,-2.325 2.102,0.04 3.982,-0.991 5.943,-1.627 8.802,-1.609 9.584,2.997 24.065,-5.417 1.263,-0.98 2.921,-0.889 4.437,-1.203 5.488,-0.93 10.471,-4.033 16.131,-4.002 1.577,-0.081 2.688,-1.395 3.992,-2.163 3.75,0.374 8.045,0.94 10.623,-2.496 3.073,0.303 6.115,0.859 9.208,1.112 0.414,-0.515 1.263,-1.536 1.678,-2.052 2.496,-0.606 4.882,-1.587 7.237,-2.638 0.445,-1.041 0.9,-2.082 1.385,-3.123 1.556,0.04 3.123,0.081 4.72,0.121 0.101,0.617 0.313,1.84 0.414,2.456 3.942,-0.212 7.853,-0.859 11.815,-1.112 0.04,0.455 0.121,1.364 0.162,1.819 4.791,0.708 7.681,-4.356 12.331,-3.992 3.083,0.212 5.731,-1.587 8.591,-2.426 5.225,1.91 10.511,-0.778 15.747,-1.233 2.911,-0.101 3.285,3.457 5.68,4.316 2.021,0.96 4.346,0.606 6.549,0.778 -0.182,-1.688 -0.384,-3.386 -1.061,-4.953 0.475,-0.344 1.435,-1.031 1.91,-1.375 3.275,2.011 6.873,3.74 10.845,3.073 1.344,-2.486 2.961,-5.599 6.347,-4.326 1.415,3.8 5.872,3.153 9.127,3.426 0.03,0.819 0.091,2.466 0.121,3.285 1.223,-0.222 2.466,-0.455 3.72,-0.697 -1.809,-2.385 -1.536,-5.347 -1.304,-8.136 2.689,0.546 5.448,2.082 8.237,1.132 2.901,-0.93 6.145,-0.424 8.894,-1.93 1.88,2.092 2.891,4.73 2.82,7.56 4.558,-1.122 9.198,-2.011 13.918,-1.476 1.688,2.689 5.246,2.011 7.692,0.788 2.284,-1.779 4.518,-4.68 7.823,-3.922 0.768,2.608 -0.657,4.427 -3.275,4.508 0.778,0.202 1.567,0.394 2.385,0.596 0.051,0.485 0.162,1.445 0.212,1.93 1.011,-1.405 2.82,-1.152 4.366,-1.395 0.92,-2.891 1.88,-5.771 2.84,-8.662 2.79,-0.617 5.286,0.465 7.136,2.577 1.839,2.325 4.872,1.829 7.5,1.647 0,0.505 0.02,1.506 0.03,2.001 1.668,-0.445 3.366,-0.9 5.064,-1.354 0.95,-1.466 1.9,-2.931 2.84,-4.417 3.153,0.485 5.984,2.203 7.53,5.043 -0.374,-2.881 2.618,-2.244 4.538,-2.133 1.84,0.647 3.386,1.92 4.963,3.052 1.85,0.04 3.8,0.202 5.559,-0.606 1.274,0.627 2.689,0.556 4.114,0.515 0.596,-0.718 1.223,-1.425 1.87,-2.133 3.911,-0.546 7.014,-3.73 11.148,-3.255 0.263,-0.576 0.798,-1.749 1.061,-2.335 1.011,0.03 3.042,0.101 4.053,0.131 0.283,1.506 0.606,3.002 0.93,4.508 0.627,0.071 1.86,0.222 2.486,0.303 -0.071,0.839 -0.121,1.688 -0.152,2.527 2.234,-1.334 4.68,-2.365 7.338,-2.446 6.465,-6.027 4.39,-6.638 14.676,-5.428 -0.01,1.324 0,2.648 0.03,3.972 3.419,-0.546 7.159,-2.669 7.381,-6.54 m -269.195,1257.305 c -0.92,2.901 -1.253,5.943 -1.183,8.995 0.859,-0.141 2.567,-0.414 3.416,-0.556 1.031,-2.123 1.466,-4.498 1.738,-6.802 -0.12,-2.183 -2.556,-1.404 -3.971,-1.637 m 15.828,66.061 c 0,-0.627 0,-1.87 0,-2.497 -1.506,-0.475 -1.506,2.962 0,2.497 m 29.19,24.368 c -0.859,2.688 -2.143,5.336 -1.86,8.247 4.562,-1.14 5.253,2.642 6.691,-8.813 -1.638,0.162 -3.234,0.354 -4.831,0.566 z"
       inkscape:connector-curvature="0" /><path
       id="path5"
       d="m 1420.896,46.545 c 0.58,0.51 0.58,0.51 0,0 z"
       inkscape:connector-curvature="0"
       style="stroke:#000000;stroke-width:0.0938" /><path
       id="path7"
       d="m 1794.896,76.135 c 2.93,-1.61 0.24,3.32 0,0 z"
       inkscape:connector-curvature="0"
       style="stroke:#000000;stroke-width:0.0938" /><path
       id="path9"
       d="m 1365.326,1403.265 c 0.39,-0.26 1.18,-0.77 1.58,-1.02 -0.86,1.18 -1.68,2.41 -2.43,3.67 -1.15,1.85 -2.43,3.62 -3.72,5.38 -1.67,0.09 -3.33,0.21 -4.95,0.4 -1.32,0.77 -2.89,0.68 -4.32,0.83 0.82,-0.41 1.66,-0.8 2.52,-1.17 2.4,-1.23 5.01,-2.19 7.07,-3.98 1.44,-1.39 1.81,-4.13 4.25,-4.11 z"
       inkscape:connector-curvature="0"
       style="stroke:#000000;stroke-width:0.0938" /><path
       sodipodi:nodetypes="ccccccccccccccccccccccccccccccccccccccccccccccccccccccccccccccccccccccccccccccccccccccccccccccccccccccccccccccccccccccccccccccccccccccccccccccccccccccccccccccccccccccccccccccccccccccccccccccccccccccccccccccccccccccccccccccccccccccccccccccccccccccccccccccccccccccccccccccccccccccccccccccccccccccccc"
       id="path3-7"
       d="m 2285,321.02076 c -0.4693,1.02036 -0.9155,2.06382 -1.3342,3.12153 1.8057,0.90751 3.4735,2.10732 4.9801,3.50863 2.4221,2.33854 6.033,1.26583 8.9488,2.40315 1.8081,0.7265 3.6548,-0.2099 5.4326,-0.65867 0.9381,-1.26815 1.9645,-2.46736 3.2457,-3.41037 0.2899,0.69486 0.8611,2.08014 1.1506,2.7759 -2.0383,2.19084 -4.0125,4.43613 -5.8627,6.79245 -0.5671,0.15113 -1.7144,0.459 -2.2861,0.61898 -0.6638,1.02251 -1.2993,2.05965 -1.9135,3.11903 1.6494,0.7921 3.3259,1.59928 5.0206,2.41477 0.3799,-0.36106 1.1247,-1.08095 1.4954,-1.44689 2.4528,0.88758 4.6968,2.29418 7.0094,3.54148 0.1098,0.69315 0.3187,2.0741 0.4142,2.77117 3.0719,0.50226 6.1581,-0.0803 9.0456,-1.20722 2.9528,-1.20806 6.2644,-0.28651 9.274,-1.34047 18.6272,-5.72213 14.9545,-0.5677 22.1938,-4.08777 3.1774,1.51168 6.475,2.85796 9.9748,3.52325 2.1007,-0.63455 4.3166,-1.44936 6.5561,-0.8528 1.0383,0.87566 2.0478,1.91856 3.0569,2.91637 -1.1841,-0.39386 -2.3458,-0.78746 -3.48,-1.16689 -0.9544,1.54324 -1.868,3.09634 -2.7585,4.67248 4.1862,2.62174 9.0281,3.70603 13.567,5.55553 1.3219,-0.58124 2.6792,-0.65493 4.0846,-0.24944 -2.7758,1.50397 -5.9377,1.68309 -8.992,1.98515 -0.7856,1.78989 -1.2469,3.70082 -1.437,5.66015 3.9886,1.74723 7.6858,4.83358 12.228,4.86593 -1.199,4.22602 5.2689,7.71583 7.8764,4.41994 2.9786,3.44407 6.844,8.32234 11.9636,5.88832 1.2987,0.68012 2.6142,1.39134 3.9529,2.12694 -0.6562,4.30316 -3.3938,2.06865 7.1628,9.22553 -0.067,-1.6149 -0.6607,-2.97801 -1.7865,-4.10334 0.163,-0.42789 0.4806,-1.28679 0.6435,-1.71468 4.6107,-1.11577 7.376,4.31066 7.7807,8.20291 -0.2461,1.69216 1.5145,1.51911 2.6945,1.85342 3.2774,0.36966 5.2111,3.85491 8.5528,4.14401 2.0664,0.31403 3.94,1.24528 5.7252,2.39189 -0.7936,2.88819 1.8915,3.65693 4.0181,4.62738 -1.1869,0.93532 -2.2972,1.92025 -3.4159,2.90199 11.6044,7.8877 9.2338,1.6579 15.8152,8.0767 -0.8146,1.2059 -1.602,2.42683 -2.358,3.6741 0.7655,0.28063 2.2909,0.85031 3.0598,1.144 0.6151,-0.77423 1.252,-1.54993 1.9169,-2.28716 1.3273,0.58123 2.6578,1.17539 4.0291,1.80181 -2.6868,4.66444 0.8258,9.94144 5.3113,11.73976 -0.011,0.52851 -0.029,1.59944 -0.039,2.12843 2.0279,1.64723 2.644,4.24915 3.5785,6.58419 3.4857,1.13604 5.3411,5.45718 9.299,5.25495 0.3115,1.13791 0.6545,2.30443 1.0254,3.48417 6.1912,2.01776 8.5563,8.74979 14.2405,11.57507 -0.1874,0.56259 -0.576,1.69311 -0.777,2.26005 0.916,1.59776 1.847,3.19078 2.7995,4.80732 2.5796,-1.03584 4.0379,-3.49166 5.6762,-5.59159 19.5039,-26.86186 12.6028,-44.92093 20.539,-38.79762 2.2984,2.09374 2.9697,5.2696 3.4184,8.21827 3.5217,24.53106 2.4542,22.72703 -1.3798,43.20757 -3.6896,8.39986 -5.543,17.49572 -9.7771,25.695 -3.0406,7.80163 -7.3438,15.01033 -10.6102,22.71933 2.2471,1.11233 4.665,1.89083 7.2175,2.03452 0.31,2.84234 2.9568,3.75106 5.1065,5.07422 1.4562,1.07961 -0.1016,2.84639 -0.3352,4.20408 1.6923,3.22479 1.0071,6.89654 1.0819,10.39174 -1.8082,-0.7041 -2.5511,0.86938 -3.3512,2.07139 -0.5912,-0.0884 -1.7912,-0.27459 -2.3911,-0.36759 -0.3003,0.53936 -0.9103,1.61214 -1.219,2.14604 0.619,1.91046 1.2288,3.83865 1.8976,5.76353 2.4246,1.01028 2.8496,3.62726 1.4776,5.74065 2.116,1.07852 4.4373,1.67117 6.8152,2.02074 -0.9387,1.02842 -1.9498,1.99687 -2.9462,2.96175 0.9809,0.36906 2.9296,1.11063 3.9105,1.4797 -2.1463,3.32871 -6.6071,3.29325 -9.1287,6.20153 2.287,0.81451 4.5728,1.7184 6.7468,2.8831 -0.2175,1.1276 -0.4119,2.27827 -0.5605,3.4514 0.9533,0.79813 4.115,0.64133 3.4487,2.68622 -1.1098,3.6117 -3.9379,6.47561 -5.5158,9.91479 0.4593,0.52119 1.3687,1.55761 1.8235,2.08767 0.6567,0.2471 1.9749,0.75614 2.6279,1.01262 0.094,2.02674 -0.5257,3.91254 -1.6445,5.62195 2.1624,-0.11457 4.2969,0.2007 6.2638,1.25874 -0.6209,1.24934 -1.2236,2.53061 -1.8091,3.82065 2.3339,-0.46945 4.3735,0.93423 6.4234,1.89887 0.3532,1.87591 1.6998,2.96762 3.6063,3.08571 -0.054,2.26864 1.3594,3.91713 3.0151,5.33905 -1.0308,1.93586 -2.1883,3.80762 -3.4979,5.57736 1.5097,2.25561 2.8551,4.63132 4.1146,7.06509 1.7787,0.9386 3.576,1.88674 5.4137,2.82198 0.9628,-0.32298 1.9712,-0.42904 3.0147,-0.31231 -0.2695,1.73746 -0.8547,3.40224 -1.5609,5.03964 -1.0713,0.73279 -2.1154,1.5021 -3.1147,2.29558 2.2643,1.16621 4.5643,2.35077 6.8693,3.54918 -0.1856,0.44997 -0.5637,1.3587 -0.7493,1.80867 -2.9707,0.0504 -5.9395,-0.0343 -8.8917,0.002 1.2526,1.47525 2.8388,2.61053 4.5077,3.67486 -0.3946,0.83161 -1.1736,2.49905 -1.5635,3.32181 -0.5252,0.0478 -1.5747,0.14394 -2.0953,0.18289 2.3103,1.09881 3.202,3.2746 2.978,5.74068 -1.9087,-2.14277 -3.7039,-4.39686 -5.6366,-6.47326 -2.0498,3.18493 0.1378,6.64232 1.9591,9.33057 3.1004,1.90391 5.7783,4.4315 8.9938,6.20125 -0.7645,0.75472 -1.3932,2.32958 -2.7287,1.76666 -2.3832,-0.31742 -4.7519,-0.68475 -7.0948,-0.92519 0.1416,0.98292 0.3291,1.98839 0.533,3.00335 -0.5022,0.77621 -0.9724,1.58015 -1.4117,2.4112 -1.6808,-0.0693 -3.0248,0.79531 -4.2612,1.78502 -2.0798,-0.70778 -4.1645,-1.40583 -6.2372,-1.99639 0.2415,3.63721 2.3008,6.83506 4.2495,9.82853 2.6671,2.19252 6.3098,2.27226 9.4374,3.50736 0.2376,0.55435 0.6995,1.64483 0.937,2.19912 2.1061,0.0386 4.2278,0.26749 6.3197,0.75317 0.1649,-0.25593 0.5063,-0.76283 0.6682,-1.00904 2.0822,-1.04229 4.2957,-1.98317 6.6661,-2.17177 -0.4984,3.52952 -4.0625,4.09204 -6.9742,3.7634 -3.9384,2.01873 -8.1457,3.4108 -12.098,5.38871 -2.1162,-1.05624 -4.2754,-1.96354 -6.4769,-2.69921 0.061,0.91806 0.1446,1.85962 0.2511,2.82336 -1.0139,0.49011 -2.0009,1.01548 -2.9655,1.56479 1.3447,0.61271 2.7206,1.23022 4.1092,1.86671 -2.1593,0.63928 -3.3291,2.42364 -4.2463,4.31569 -2.1147,1.43498 -4.3488,2.68247 -6.5965,3.86675 1.9052,2.48177 5.104,1.45775 7.7977,1.90141 1.7107,0.60773 3.2996,1.51715 4.9847,2.35132 -0.6099,1.07279 -1.1744,2.16893 -1.7436,3.27397 -4.2143,-1.42024 -9.0996,-0.78675 -12.7722,1.7097 2.0513,1.20391 4.933,1.76788 5.6282,4.43419 -1.8111,0.24935 -3.5592,0.53126 -5.3383,0.78593 -1.379,2.30204 -2.781,4.60467 -4.2091,6.89275 0.7079,0.19357 2.1181,0.56781 2.8162,0.75637 -2.1003,4.56719 -6.4408,4.52964 -19.0682,8.41508 0.021,0.93187 0.063,1.88635 0.1331,2.8537 -2.1695,1.82746 -4.1642,3.84618 -5.8995,6.09073 1.1455,0.62371 2.3124,1.29337 3.4977,1.9949 0.4558,2.69031 2.9132,4.32037 4.4343,6.44464 -0.4139,0.58317 -1.2275,1.7434 -1.6369,2.3177 1.2719,1.39405 2.5481,2.80159 3.8555,4.21397 -0.3142,3.61316 0.2159,7.30791 -0.6998,10.87222 -0.5827,2.28028 -0.8244,4.69117 -0.3865,7.04262 -1.3599,-1.99616 -3.4849,-3.78461 -3.3092,-6.39937 0.2819,-8.31585 -2.5627,-13.31516 -11.0016,-11.79431 -2.4397,0.25529 -3.549,2.69736 -5.0333,4.29733 -0.016,1.33346 -0.046,2.71648 0.1052,4.10112 1.1325,1.31103 2.6304,2.30975 3.9915,3.46514 -3.416,4.09555 -8.2455,-1.49533 -11.8154,-0.037 l 0.033,0.99462 c 0.3301,0.37468 1.0082,1.11095 1.3433,1.47589 -0.5774,1.05573 -1.124,2.13869 -1.6483,3.24429 -3.4792,-0.4848 -6.9454,-0.97307 -10.423,-1.2186 -0.7016,1.18533 -1.4158,2.35172 -2.0677,3.57387 -1.8591,0.0998 -3.8395,0.17098 -4.9816,1.87967 1.5842,1.71356 3.1227,3.51824 4.6376,5.34459 -0.4888,1.56707 -0.982,3.12075 -1.4271,4.734 4.0574,0.1572 7.2345,2.86208 10.0919,5.48223 -2.479,3.55547 -8.5928,0.74751 -10.9225,5.05031 0.8792,2.44267 2.8438,4.50064 3.3423,7.0644 -1.338,3.01723 -4.9026,3.20493 -7.7254,3.03571 0.4346,3.3497 -0.022,6.82064 0.9548,10.11018 -2.0246,-0.4173 -4.0476,-0.21963 -5.9845,0.33952 -1.1054,-0.54681 -2.1972,-1.09786 -3.2489,-1.61586 -2.7369,1.6713 -5.4907,3.3339 -8.0501,5.2564 1.8301,0.41952 3.7011,0.84884 5.5991,1.26961 -0.4984,0.83442 -1.4812,2.50024 -1.9787,3.33518 -6.4642,0.38827 -13.2263,-1.91226 -19.3416,1.02018 1.9191,0.93218 4.1169,1.56358 6.2471,0.78444 0.4948,0.16376 1.4813,0.47834 1.9768,0.64353 -9.2958,7.57209 -14.8306,-1.10175 -21.42,1.34911 2.0996,2.41203 4.3415,4.74888 6.9543,6.65137 -1.273,-0.17756 -2.5363,-0.30631 -3.7786,-0.3882 -3.3868,-1.43728 -6.6004,-3.34204 -10.1984,-4.12657 15.5664,12.70513 18.4948,8.31624 23.2043,7.08493 -3.5062,3.60582 -8.7447,4.30706 -13.4794,3.34657 1.7902,2.21782 3.9138,4.27778 6.7502,5.12562 3.2665,-0.20514 6.4207,-1.22965 9.671,-1.64785 -1.4947,4.44832 -6.2935,5.77425 -10.1431,7.50919 3.9147,0.72033 7.8877,0.004 11.8286,0.43076 -0.6256,0.85989 -1.2229,1.73459 -1.7947,2.64593 -20.8231,5.33136 -14.6254,2.21751 -25.118,3.20707 1.9925,1.23092 4.1164,2.42716 6.2365,3.5416 -0.2884,0.31707 -0.8751,0.9474 -1.1726,1.26108 -3.793,-0.0458 -7.1959,0.61208 -10.9952,-1.74063 1.5056,1.13878 2.9785,2.29553 4.5009,3.48905 -0.3535,0.84154 -1.0653,2.50974 -1.4185,3.35037 -1.9422,-0.46598 -3.5337,0.26098 -4.6514,1.87874 -0.5372,-0.10569 -1.6149,-0.30869 -2.1512,-0.4139 -0.4972,1.07458 -0.9532,2.18054 -1.3778,3.31505 1.9945,2.22068 4.1618,4.28066 6.4665,6.22918 -0.3055,1.76386 -0.6426,3.47769 -0.9399,5.29081 -1.6906,-0.71207 -2.8934,-3.38893 -4.6645,-3.08402 0.2289,2.02784 1.5653,3.62615 3.4038,4.53816 1.3444,2.5113 1.1752,6.41506 4.299,7.54587 4.4634,1.7757 7.3909,5.7165 11.1031,8.59463 -2.0122,0.0435 -4.0027,0.17804 -5.9666,0.32627 -6e-4,2.69377 -1.4354,5.47996 -4.2106,6.18786 -4.4422,1.40715 -7.8728,-3.14479 -12.3411,-1.84211 0.6255,1.76648 -0.116,2.89626 -1.7996,3.47235 0.8979,2.4062 -1.253,4.61893 -2.0253,6.82404 -2.4336,1.65661 -3.2864,4.52656 -4.496,7.05207 2.4948,3.1037 4.5642,6.5463 6.0614,10.26119 -2.665,-2.44126 -6.1313,-0.63372 -7.8392,1.97698 -2.8683,0.97823 -3.6198,4.09288 -5.8591,5.70212 -7.031,1.28992 -13.6186,-3.5574 -20.6262,-1.93709 2.2371,1.19716 4.7795,1.7799 7.0984,2.90556 -2.0715,1.21768 -4.1335,2.44129 -6.1788,3.67359 -1.0929,-0.50545 -2.1668,-0.9799 -3.2191,-1.43074 -0.7335,1.22521 -1.4493,2.48186 -2.1516,3.75804 1.059,1.80737 2.2313,3.5934 3.039,5.57853 -1.5565,2.40418 -4.9755,2.57569 -7.5179,1.97146 0.025,0.94543 0.072,1.91334 0.1461,2.91784 -1.675,0.97864 -3.3415,1.96289 -4.9812,2.98219 0.5484,0.63447 1.6633,1.91402 2.2168,2.56242 -2.3339,1.61787 -5.1562,2.08554 -7.8781,2.55881 1.5801,2.78114 1.9777,5.85084 1.1725,8.96027 -1.3605,2.24418 -2.1494,4.74781 -2.8758,7.26114 -0.7128,0.21334 -2.1366,0.6386 -2.8493,0.85194 -0.8285,1.63055 -1.5138,3.35854 -2.4685,4.9479 -3.2074,1.70232 -6.962,0.80232 -10.409,1.02804 -1.2378,1.82929 -2.0905,3.94791 -2.6633,6.09731 1.3271,5.978 5.2109,-0.8944 -9.0164,24.017 -3.541,5.8163 -5.158,12.4872 -7.8044,18.7068 -1.5544,3.304 -1.4447,6.9982 -2.2142,10.5017 -1.6166,2.8962 -4.0366,5.2537 -5.5856,8.1961 -4.8991,9.8702 -33.1425,20.0693 -37.2651,20.7007 -12.6371,2.8142 -25.8421,0.6857 -37.9245,-3.491 -5.867,2.5833 -12.5267,2.7113 -18.502,0.4076 -3.6379,-1.9872 -7.4504,0.051 -11.1194,0.6623 -30.1135,4.9806 -13.9013,2.9627 -32.8956,0.4294 -7.3699,-1.0331 -13.335,-7.22 -21.0021,-6.4401 -20.7967,71.2177 -42.5391,56.1445 -57.9588,91.0131 -1.0494,2.3019 -0.3571,4.9544 -1.1054,7.3552 -2.6944,2.2961 -6.1226,3.5427 -8.9681,5.6475 0.8523,-0.2202 2.5531,-0.6525 3.4054,-0.8726 -4.5536,5.0674 -6.6557,12.2613 -12.6363,16.0371 -3.0815,1.7896 -5.5983,4.3133 -8.2876,6.5997 -3.6531,1.1546 -7.2887,2.4304 -10.5804,4.4077 -3.6249,2.5783 -8.8063,1.2055 -12.0282,4.5259 -4.5387,3.029 -6.937,8.9219 -12.4156,10.4433 1.4869,-3.3501 3.6141,-6.62 3.0082,-10.4337 -9.6251,1.9281 -13.9661,21.4927 -15.6098,26.5561 -1.1878,-1.2034 -2.3537,-2.4058 -3.4919,-3.5724 0.7187,-3.0291 1.6003,-6.0205 2.4899,-8.9839 -0.467,-0.2637 -1.4095,-0.7948 -1.877,-1.0579 -1.5061,1.1792 -3.2089,3.3607 -5.3426,2.6027 -1.9161,-12.07 7.9042,-20.0097 2.5175,-20.7593 -2.077,1.6478 -3.8505,3.6781 -6.1889,4.9754 -4.5522,2.328 -6.9091,7.3672 -11.6885,9.4072 0.4016,-2.215 1.4677,-4.4397 0.6807,-6.6639 -2.9807,5.0361 -7.4626,8.6625 -11.945,12.2661 -2.4119,3.9534 -4.7853,8.1425 -5.915,12.6989 -0.6174,0.2051 -1.87,0.6061 -2.4865,0.8116 0.4236,-4.7951 -3.3409,-8.6789 -2.7151,-13.4038 0.028,-1.5552 0.2039,-3.067 0.087,-4.5827 -1.186,-1.3837 -2.8534,-2.2306 -4.2692,-3.2337 0.8486,4.6664 -1.3005,9.0161 -2.3487,13.456 -0.5823,-0.084 -1.7277,-0.2645 -2.3054,-0.3571 -0.7837,-1.37 -1.6081,-2.7046 -2.4844,-3.9624 -0.5478,-18.6428 -3.4512,-23.1764 -7.0492,-32.3826 -15.7077,16.5294 1.302,13.2228 -8.4681,26.1758 1.5899,-3.2856 2.9578,-6.9354 1.8713,-10.5871 -0.9659,-0.4638 -1.9104,-0.8816 -2.8463,-1.2725 -1.6713,0.6396 -3.4224,0.7502 -5.134,0.2781 1.4997,-2.5583 3.1792,-5.0025 4.9203,-7.3914 -0.68,-5.898 -0.3447,-12.0243 0.7964,-17.8369 -2.3277,-1.506 -4.4057,-3.5427 -3.0012,-6.4231 -3.0307,-3.9827 -2.5105,-8.9217 -2.1747,-13.5685 0.5467,-4.4597 -2.6729,-8.9603 0.1697,-13.0664 -0.3919,-0.1 -1.1667,-0.3164 -1.5586,-0.4159 -1.1864,0.515 -2.3495,1.0521 -3.4999,1.6305 -1.1677,-0.6464 -2.3173,-1.2621 -3.4579,-1.8496 2.0218,-3.1307 1.3031,-6.5706 1.3945,-9.9914 1.3449,2.0908 1.2555,4.6252 1.0506,7.0326 0.6653,-1.1805 1.3294,-2.3388 2.0297,-3.4562 -0.6821,-1.1478 -1.3197,-2.2489 -1.9628,-3.3416 0.7516,-4.6151 4.053,-8.2014 5.3532,-12.5801 -0.2056,-0.5266 -0.6047,-1.5622 -0.8061,-2.0755 -1.412,1.6148 -2.7787,3.2989 -4.0964,5.0184 -0.715,-0.7087 -1.3427,-1.4531 -1.8714,-2.2372 1.0661,-3.3957 3.765,-6.406 3.4475,-10.1161 -0.3785,1.067 -1.1315,3.1909 -1.5056,4.2491 -2.192,-1.1975 -4.2091,-2.5773 -4.5667,-5.172 6.0771,-13.7347 0.6154,-15.2642 2.7531,-20.7975 -1.3021,0.4317 -2.64,0.7775 -3.8975,1.2558 -0.2641,-5.5589 4.8714,-8.9059 7.8081,-12.9524 2.2294,-3.4681 7.4702,-3.2918 9.0148,-7.3062 -6.6235,-1.0693 -11.9766,3.6088 -18.1244,5.1037 3.3575,-5.6148 9.1633,-9.5143 11.5083,-15.8103 2.0829,-6.3174 8.9906,-8.6482 12.3365,-14.0418 0.4749,-1.518 0.322,-3.0973 0.4033,-4.6247 -5.9474,1.7918 -8.4605,8.1936 -13.5298,11.3925 0.4436,-1.6128 0.9019,-3.2081 1.3861,-4.7663 -0.6794,-0.2926 -2.0235,-0.8824 -2.6937,-1.1713 0.2232,-0.4768 0.6903,-1.4296 0.918,-1.9153 -0.9141,-0.2999 -2.7552,-0.9185 -3.6644,-1.2281 1.3889,-0.8425 2.8626,-1.6291 4.3068,-0.2836 7.4504,-15.7394 7.3896,-11.159 13.6438,-18.2794 -3.8241,0.7356 -6.809,3.4626 -10.5405,4.4394 -3.6858,0.8643 -5.5583,4.7883 -9.199,5.6984 2.9039,-4.3366 6.5748,-8.0847 10.5253,-11.473 5.8326,-4.6832 4.74,-0.3057 8.2409,-10.6148 -4.002,1.6114 -9.0837,2.0977 -11.1571,6.4751"
       inkscape:connector-curvature="0" /><path
       sodipodi:nodetypes="cccccccccccccccccccccccccccccccccccccccccccccccccccc"
       id="path3-6"
       d="m 1185.2294,869.96263 c -7.166,14.012 -33.237,89.33 -39.539,155.54007 -2.153,27.391 -3.002,54.953 -7.591,82.101 -0.687,4.033 -2.517,7.964 -2.042,12.129 0.475,4.377 0.141,8.925 -1.243,13.129 -3.75,4.073 -6.58,9.42 -6.357,15.1 -1.068,45.191 -6.428,112.829 12.705,151.244 31.539,71.923 88.611,154.703 155.226,202.589 4.649,3.416 6.226,9.208 9.379,13.796 3.663,6.9 35.08,41.255 24.53,54.589 1.794,15.314 -8.611,14.256 -49.02,16.556 -51.911,1.025 -51.811,-1.049 -67.536,-7.5 -43.181,-17.207 -11.326,-24.786 -36.133,-31.666 -4.447,-1.071 -8.945,-2.345 -13.574,-2.072 -3.527,0.293 -6.509,-2.355 -10.077,-2.082 -4.225,0.313 -7.863,-2.092 -11.067,-4.508 -2.102,-2.759 -3.962,-5.741 -5.488,-8.834 0.081,-4.174 2.123,-8.025 2.123,-12.199 0.384,-6.772 -1.93,-13.907 1.051,-20.356 4.479,-13.896 12.404,-1.546 -141.6119,-267.426 -10.40003,-13.604 -20.08303,-27.765 -30.17003,-41.601 -3.81,-4.862 -5.69,-10.825 -8.429,-16.283 20.831,-85.805 19.84,-50.643 23.176,-133.688 -8.894,8.672 -14.19,20.417 -23.418,28.816 -45.21,43.118 -26.341,14.103 -77.775,79.938 -19.921,24.388 -58.362,103.889 -68.79,165.313 -22.266,86.155 -11.237,116.875 -6.014,143.532 1.095,8.422 12.797,5.054 23.206,19.183 10.069,8.467 10.639,16.205 26.956,39.539 3.062,4.356 8.359,6.519 11.158,11.098 3.932,5.933 8.844,11.421 11.421,18.132 -0.263,5.205 0.586,11.805 -4.174,15.333 -2.557,2.335 -6.266,1.557 -9.44,1.769 -3.467,12.981 -5.336,11.495 -17.971,12.058 0,0 -59.683,-0.901 -63.756,-1.102 -17.273,-2.609 -48.928,-15.455 -49.97,-32.929 -0.02,-6.792 -1.031,-13.635 0.556,-20.336 -42.342,3.877 -24.621,-20.887 -17.395,-44.532 -0.101,-9.41 -0.768,-18.83 -1.233,-28.219 -1.546,-4.669 -4.74,-8.621 -6.903,-13.018 -3.295,-0.687 -6.539,-1.678 -9.885,-2.042 -6.56,-0.101 -13.857,2.426 -19.77,-1.465 -0.131,-2.962 -0.819,-5.832 -1.152,-8.743 0.9,-3.871 2.689,-7.459 3.628,-11.31 0.889,-4.245 3.76,-7.58 5.994,-11.158 25.699,-38.629 12.15,-7.365 22.236,-43.512 5.596,-17.735 5.966,-10.205 10.34,-37.194 -2.857,-25.213 14.642,-43.558 16.151,-54.458 18.713,-110.352 10.879,-54.113 14.706,-114.333 5.821,-45.546 15.17,-52.301 18.698,-74.662 2.608,-8.227 0.758,-16.899 1.738,-25.298 3.598,-14.534 6.944,-29.26 12.685,-43.117"
       inkscape:connector-curvature="0" /></g><rect
     style="opacity:1;fill:#5d6c53;fill-opacity:1;fill-rule:nonzero;stroke:none;stroke-width:1;stroke-linecap:round;stroke-linejoin:round;stroke-miterlimit:4;stroke-dasharray:8, 2, 1, 2;stroke-dashoffset:0;stroke-opacity:1"
     id="rect4198"
     width="820"
     height="129.18565"
     x="-3.0517578e-005"
     y="390.81433" /></svg>